<?xml version="1.0" encoding="utf-8" ?>
<svg baseProfile="full" height="200mm" version="1.1" viewBox="0,0,200,200" width="200mm" xmlns="http://www.w3.org/2000/svg" xmlns:ev="http://www.w3.org/2001/xml-events" xmlns:xlink="http://www.w3.org/1999/xlink"><defs /><rect fill="none" height="200" width="200" x="0" y="0" /><polyline fill="none" points="22.274103559553623,2.5 23.95488233398646,3.800585978664458 25.39554985612631,6.66187346726656 26.355994870886207,16.546303544891998 26.355994870886207,22.268855843693018 25.875772362574935,24.60989732760936 26.355994870886207,26.17059079860337 27.316439884714782,36.05496697174385 31.398331196047366,45.15897349617444 32.59888746403158,46.45954396529123 37.64122379105538,47.23988602007739 41.242892595008016,46.71965800225735 42.68356011621654,46.97977202082984 44.60445014573634,45.93931583384983 32.11866495758295,45.93931583384983 29.237329913303256,39.176343247294426 27.316439884714782,31.633012586273253 26.59610612411052,26.690821804339066 25.63566110935062,8.742808384355158 23.714771079830825,4.580937339225784 22.994437319226563,3.800585978664458 25.39554985612631,7.1821073102764785 26.355994870886207,11.083858720492572 26.115883617661893,22.268855843693018 27.556551138870418,30.3324367266614 28.27688489947468,37.87577012996189 31.878553703427315,44.89885934535414 33.31922122463584,46.45954396529123 47.00556268077344,46.71965800225735 44.3643388915807,45.67920174030587 39.562113819643855,46.97977202082984 33.79944373294711,46.97977202082984 32.11866495758295,45.67920174030587 30.677997435443103,43.85840255394578 28.27688489947468,36.57519653998315 26.59610612411052,29.03186039440334 26.355994870886207,24.870012952946126 26.59610612411052,23.049203175352886 25.155438601970673,10.303508778568357 25.39554985612631,8.222574769053608 23.714771079830825,3.28035164414905 23.474659827537835,5.101171484217048 25.39554985612631,7.442224203143269 26.836217378266156,16.806419757194817 26.59610612411052,21.48850834183395 27.076328630559146,23.309318914543837 28.036773646250367,37.095426032552496 29.237329913303256,42.2977167989593 32.358776210807264,46.71965800225735 34.039554986171424,47.23988602007739 41.48300384823233,46.71965800225735 46.765451427549124,46.97977202082984 48.20611894968897,47.5 46.765451427549124,46.45954396529123 34.51977749355137,46.97977202082984 32.59888746403158,46.199429909233004 28.75710740685463,39.176343247294426 27.316439884714782,35.27462247712538 26.59610612411052,30.852667127503082 26.59610612411052,23.049203175352886 25.63566110935062,8.742808384355158 23.714771079830825,3.540468821534887 22.514214812777936,3.020234448602423 25.39554985612631,6.14163954812102 25.875772362574935,7.702341077150777 25.875772362574935,9.783275389811024 26.355994870886207,12.124325044453144 26.115883617661893,20.18792879441753 28.75710740685463,40.47691589151509 32.83899871818721,46.71965800225735 43.403893877752125,46.97977202082984 45.08467265218496,46.71965800225735 46.765451427549124,46.97977202082984 47.96600769646466,46.71965800225735 46.52534017432481,45.67920174030587 38.361557551659644,46.97977202082984 34.51977749355137,46.71965800225735 32.59888746403158,46.45954396529123 31.15821994189173,44.89885934535414 28.036773646250367,38.135884791612625 27.076328630559146,30.592551936162636 27.316439884714782,28.771745070815086 26.355994870886207,24.870012952946126 26.836217378266156,22.789087417302653 26.355994870886207,15.245722200255841 26.355994870886207,13.424907523673028 25.63566110935062,9.26304192468524 24.675216095522046,6.401756517356262 21.79388105124235,2.5 25.39554985612631,6.921990397851914 26.836217378266156,14.725489530479535 27.316439884714782,20.18792879441753 26.836217378266156,22.268855843693018 27.79666239116341,35.27462247712538 30.197774928994477,43.338174044154584 33.079109971411526,46.97977202082984 39.562113819643855,47.23988602007739 42.923671369440854,46.71965800225735 44.60445014573634,45.93931583384983 46.285228920169175,46.199429909233004 47.96600769646466,47.23988602007739 46.045117667876184,46.199429909233004 38.60166880488396,47.5 35.9604450147599,46.97977202082984 33.559332478791475,46.97977202082984 31.638442450203,46.199429909233004 29.237329913303256,40.997144816908985 27.556551138870418,33.97404794162139 27.556551138870418,32.413357875077054 26.836217378266156,26.950937279034406 27.076328630559146,23.309318914543837 25.63566110935062,14.465373166603968 25.875772362574935,11.083858720492572 23.714771079830825,4.060703117633238 26.115883617661893,10.303508778568357 27.076328630559146,14.98560587526299 27.316439884714782,30.07232149806805 28.27688489947468,37.095426032552496 32.59888746403158,46.199429909233004 34.039554986171424,46.97977202082984 41.723115102387965,46.45954396529123 46.045117667876184,46.71965800225735 44.124227637425065,46.199429909233004 38.60166880488396,47.5 33.559332478791475,47.23988602007739 30.677997435443103,44.63874517590739 27.79666239116341,38.65611405717209 26.355994870886207,22.528971639694646 25.155438601970673,14.725489530479535 25.155438601970673,9.783275389811024 23.474659827537835,2.760117234196514 24.91532734874636,5.101171484217048 27.556551138870418,15.76595479552634 27.076328630559146,22.268855843693018 27.316439884714782,24.34978168248199 27.316439884714782,26.17059079860337 27.79666239116341,27.991398988524452 28.27688489947468,36.05496697174385 29.95766367483884,42.2977167989593 32.358776210807264,46.199429909233004 34.039554986171424,46.71965800225735 41.48300384823233,45.93931583384983 46.285228920169175,46.71965800225735 44.84456139896065,45.93931583384983 37.64122379105538,47.23988602007739 32.59888746403158,46.97977202082984 31.398331196047366,45.67920174030587 27.79666239116341,38.135884791612625 26.836217378266156,29.81220625084825 25.63566110935062,11.343975329538807 24.91532734874636,7.442224203143269 23.474659827537835,5.881522560957819 24.91532734874636,8.222574769053608 26.355994870886207,12.904674588702619 26.355994870886207,20.448044741526246 27.556551138870418,29.03186039440334 27.79666239116341,34.23416288662702 29.717552420683205,41.51737366640009 32.59888746403158,45.67920174030587 33.559332478791475,46.45954396529123 39.562113819643855,46.45954396529123 42.68356011621654,46.71965800225735 46.045117667876184,46.71965800225735 45.3247839063406,45.67920174030587 38.361557551659644,46.97977202082984 31.15821994189173,46.45954396529123 27.316439884714782,34.75439272006042 26.59610612411052,23.829550336347893 27.076328630559146,22.528971639694646 25.875772362574935,15.245722200255841 25.875772362574935,10.563625445123762 25.155438601970673,7.442224203143269 24.43510484136641,5.881522560957819 25.63566110935062,10.303508778568357 27.076328630559146,27.991398988524452 26.836217378266156,32.15324279735796 27.316439884714782,37.87577012996189 28.997218660078943,42.037602440686896 32.11866495758295,46.97977202082984 34.51977749355137,47.5 38.84178005810827,46.71965800225735 46.045117667876184,47.23988602007739 43.403893877752125,46.45954396529123 36.200556268915534,46.97977202082984 32.83899871818721,46.45954396529123 31.398331196047366,45.67920174030587 28.516996152698994,40.47691589151509 26.59610612411052,28.511629728367552 26.115883617661893,11.343975329538807 24.91532734874636,5.621405554469675 26.355994870886207,9.26304192468524 26.59610612411052,17.326652124524117 26.355994870886207,30.07232149806805 27.076328630559146,33.453817995265126 27.076328630559146,36.83531129616313 28.27688489947468,40.21680140052922 30.91810868959874,45.67920174030587 32.358776210807264,47.23988602007739 44.3643388915807,46.97977202082984 42.923671369440854,45.93931583384983 41.48300384823233,46.45954396529123 33.559332478791475,46.45954396529123 32.11866495758295,46.199429909233004 28.516996152698994,39.436457813950256 27.556551138870418,36.57519653998315 26.836217378266156,30.592551936162636 25.39554985612631,8.222574769053608 24.91532734874636,6.66187346726656 23.714771079830825,6.14163954812102 25.39554985612631,7.962457932997495 26.115883617661893,11.604091920424253 25.63566110935062,13.685023962520063 26.59610612411052,16.286187313729897" stroke="#4dd2ff" stroke-linecap="round" stroke-linejoin="round" stroke-width="0.5"><title>2020-12-27 5.1km</title><desc>10997850959</desc></polyline><polyline fill="none" points="88.82504240702838,6.16850080084987 90.17958272155374,8.614165778970346 91.53412303421646,13.994622470578179 92.21139319147915,15.706584158353508 92.88866334874183,31.603329644538462 94.46896038297564,38.20657106884755 95.37198725808412,39.67395629105158 95.59774397779256,41.38590490818024 98.53258132468909,45.543490779353306 99.88712163921446,46.27718187053688 104.85376945883036,45.543490779353306 106.43406649213284,45.7880544946529 109.14314712118357,45.05436329706572 112.0779844680801,45.05436329706572 109.3689038399607,45.543490779353306 107.56285008788109,46.27718187053688 100.56439179647714,46.03261819155887 99.20985148195177,45.543490779353306 95.59774397779256,39.67395629105158 94.01744694449008,28.179421580862254 94.2432036632672,26.467466241912916 92.88866334874183,15.217452335869893 93.11442006845027,12.038093760143965 91.30836631637067,8.369599361205474 87.92201553098857,3.967400800436735 87.47050209250301,2.5 88.37352896947414,3.967400800436735 91.30836631637067,6.16850080084987 92.21139319147915,8.614165778970346 93.11442006845027,23.53268363350071 94.01744694449008,27.44572654250078 94.2432036632672,35.27179870335385 97.40379772987217,43.58698042179458 99.43560820166022,46.03261819155887 100.79014851618558,46.27718187053688 109.3689038399607,45.543490779353306 112.30374118685722,45.7880544946529 106.65982321184129,47.5 100.1128783589229,46.27718187053688 98.75833804439753,45.29892704705708 95.37198725808412,39.184827954974025 94.2432036632672,34.04897612775676 93.34017678722739,26.467466241912916 93.34017678722739,18.88593926653266 92.43714991118759,10.815262738382444 91.08260959666222,7.8804664723575115 92.21139319147915,12.771792159881443 94.2432036632672,35.7609276084695 97.17804101109505,44.076108117820695 98.08106788713485,45.7880544946529 101.0159052349627,47.255436409730464 110.04617399722338,46.03261819155887 106.65982321184129,47.255436409730464 100.33863507770002,46.766309176106006 98.75833804439753,46.27718187053688 97.85531116835773,45.05436329706572 95.37198725808412,39.42939213197678 94.46896038297564,35.02723422390409 94.46896038297564,33.315282370196655 93.34017678722739,25.4892056575045 92.66290662996471,10.570696480339393 91.7598797539249,6.902200481155887 91.08260959666222,5.679367592558265 91.30836631637067,6.902200481155887 92.66290662996471,10.326130205299705 93.34017678722739,20.35333291767165 93.56593350600451,28.179421580862254 94.46896038297564,36.00549203436822 96.95228429231793,42.85328874387778 98.08106788713485,43.58698042179458 98.98409476410598,46.27718187053688 100.79014851618558,47.01087280130014 102.59620226826519,47.01087280130014 111.85222774837166,46.03261819155887 107.33709336910397,46.03261819155887 105.9825530545786,45.543490779353306 101.46741867344826,46.03261819155887 99.88712163921446,45.543490779353306 98.53258132468909,44.565235743066296 95.37198725808412,37.472878217697144 94.01744694449008,23.777248949045315 94.46896038297564,21.087029503425583 93.56593350600451,13.260924337664619 92.43714991118759,8.614165778970346 91.08260959666222,5.679367592558265 89.72806928306818,5.19023431208916 91.30836631637067,6.413067378802225 92.43714991118759,8.125032925279811 93.34017678722739,11.548961404943839 92.88866334874183,13.505490399198607 93.34017678722739,14.97288639866747 93.34017678722739,25.97833598498255 94.46896038297564,32.33702377649024 94.46896038297564,36.49462083308026 97.17804101109505,44.076108117820695 98.75833804439753,46.52174553228542 99.66136492043734,47.01087280130014 104.4022560203448,47.255436409730464 109.59466055873781,45.7880544946529 111.40071431081742,45.7880544946529 107.33709336910397,46.03261819155887 105.75679633487016,46.52174553228542 100.1128783589229,46.52174553228542 98.75833804439753,46.03261819155887 95.59774397779256,41.38590490818024 94.46896038297564,35.516363164409995 94.01744694449008,28.179421580862254 92.66290662996471,16.929413401521742 92.66290662996471,11.059828978031874 91.08260959666222,8.125032925279811 91.08260959666222,6.657633939292282 93.11442006845027,9.836997601436451 93.34017678722739,11.059828978031874 92.88866334874183,12.527226044330746 93.11442006845027,18.64137359522283 92.43714991118759,23.288118300726637 93.34017678722739,26.71203134395182 95.82350069656968,39.184827954974025 97.17804101109505,41.141340873437 98.53258132468909,44.80979952891357 100.79014851618558,46.03261819155887 106.43406649213284,46.52174553228542 108.69163368269801,46.27718187053688 110.2719307160005,45.543490779353306 103.72498586308211,46.766309176106006 99.43560820166022,46.27718187053688 98.08106788713485,45.543490779353306 96.95228429231793,44.32067193929106 96.72652757260948,42.85328874387778 95.82350069656968,41.87503292504698 94.46896038297564,37.22831389773637 94.69471710082144,36.00549203436822 94.2432036632672,32.581588451517746 94.01744694449008,17.907676475821063 93.34017678722739,13.994622470578179 91.08260959666222,8.369599361205474 90.63109615910798,5.923934205435216 92.43714991118759,9.103298561414704 93.11442006845027,13.505490399198607 92.43714991118759,16.929413401521742 92.66290662996471,18.396807906683534 91.7598797539249,22.798987581161782 94.2432036632672,33.315282370196655 94.2432036632672,36.73918520589359 95.14623054023832,39.67395629105158 96.95228429231793,41.87503292504698 97.62955444958061,44.076108117820695 100.56439179647714,46.52174553228542 103.49922914523631,46.03261819155887 105.75679633487016,46.52174553228542 112.52949790656567,45.29892704705708 111.1749575920403,45.05436329706572 106.20830977335572,46.52174553228542 98.75833804439753,46.52174553228542 95.59774397779256,40.16308455658145 94.2432036632672,34.782669726293534 94.46896038297564,33.315282370196655 93.56593350600451,28.179421580862254 93.34017678722739,23.53268363350071 93.34017678722739,14.728320443537086 90.8568528778851,8.125032925279811 89.50231256335974,6.413067378802225 89.95382600277662,7.391333512496203 91.98563647270203,9.836997601436451 93.11442006845027,15.462018255610019 92.88866334874183,19.375070554437116 92.43714991118759,20.842463992536068 92.43714991118759,25.244640466291457 95.59774397779256,39.184827954974025 98.98409476410598,45.05436329706572 100.1128783589229,45.7880544946529 102.37044554948807,46.27718187053688 109.82041727844626,45.29892704705708 111.1749575920403,45.29892704705708 106.65982321184129,46.766309176106006 99.66136492043734,46.52174553228542 97.17804101109505,45.29892704705708 96.0492574153468,42.364160870201886 95.14623054023832,41.38590490818024 94.01744694449008,34.29354067868553 94.01744694449008,28.668551518348977 92.43714991118759,16.68484758818522 92.66290662996471,13.994622470578179 90.8568528778851,6.902200481155887 93.34017678722739,9.592431271914393 93.79169022571295,17.173979197163135 93.34017678722739,21.820725929457694 93.56593350600451,23.043552949791774 94.69471710082144,24.75551003171131 95.14623054023832,26.467466241912916 95.82350069656968,36.98374956101179 96.95228429231793,39.42939213197678 98.75833804439753,41.63046892546117 99.43560820166022,44.565235743066296 100.1128783589229,45.7880544946529 101.24166195373982,46.27718187053688 110.72344415355474,45.29892704705708 105.75679633487016,44.565235743066296" stroke="#4dd2ff" stroke-linecap="round" stroke-linejoin="round" stroke-width="0.5"><title>2020-12-26 4.3km</title><desc>10997850939</desc></polyline><polyline fill="none" points="154.84855225216597,3.7640528937336057 156.24875194206834,11.601170581066981 156.4821185572073,16.910175751661882 155.78201871272177,21.966363615356386 156.4821185572073,27.02254412556067 159.51588455028832,39.157347350148484 161.38281746860594,43.45508000301197 162.78301715757698,44.97192555340007 163.9498502323404,45.47754058986902 169.31728237494826,45.47754058986902 174.21798128727823,44.46631044289097 166.98361622635275,45.98315555229783 163.24975038785487,45.73034808062948 161.38281746860594,44.21350286062807 157.88231824710965,35.61803411785513 157.41558501590043,31.320291777839884 157.41558501590043,20.19669869891368 156.94885178655386,18.427032882347703 155.78201871272177,9.578690288588405 154.3818190228194,4.522484409855679 153.2149859489873,3.51124235172756 153.44835256319493,5.028105329023674 155.31528548244387,5.786536568542942 156.4821185572073,8.31463950779289 155.31528548244387,11.601170581066981 154.61518563795835,17.162985319038853 153.44835256319493,20.70231733797118 154.3818190228194,23.73602763027884 154.3818190228194,25.000072803581133 157.64895163103938,30.81467468221672 159.28251793514937,38.146115365903825 162.08291731309146,42.949464672477916 164.64995007775724,44.97192555340007 167.45034945569932,44.719118007458746 169.78401560522616,45.73034808062948 175.38481436204165,44.97192555340007 176.7850140510127,44.46631044289097 174.91808113176376,44.46631044289097 173.05114821344614,46.23596300650388 169.08391576074064,47.247192637994885 163.9498502323404,46.23596300650388 162.08291731309146,45.47754058986902 160.91608423925936,43.70788764068857 158.58241809066385,37.1348830871284 157.64895163103938,30.05624890141189 157.1822184016928,22.977600305341184 156.0153853269294,14.382079062750563 156.24875194206834,11.853980535175651 154.61518563795835,5.533726173918694 153.44835256319493,4.775294878287241 156.0153853269294,7.809019067557529 156.24875194206834,9.325880169402808 155.5486520966515,14.634888813830912 155.78201871272177,25.505690744146705 158.11568486038595,31.067483239108697 158.58241809066385,34.85960938502103 162.31628392916173,42.191041538724676 163.48311700299382,43.202272346941754 167.45034945569932,44.719118007458746 170.25074883457273,44.97192555340007 173.5178814427927,44.719118007458746 174.68471451755613,44.21350286062807 170.25074883457273,45.47754058986902 167.91708268597722,46.48877044208348 163.24975038785487,45.98315555229783 161.61618408374488,45.22473308048211 160.4493510099128,43.960695260204375 157.64895163103938,32.58433419349603 157.41558501590043,20.70231733797118 156.7154851714149,12.106790470192209 157.64895163103938,8.82025987515226 155.08191886823624,2.5 157.64895163103938,7.0505882683210075 157.41558501590043,14.634888813830912 156.94885178655386,16.910175751661882 157.41558501590043,22.471981996903196 158.3490514755249,23.98883670126088 158.3490514755249,26.516926404787228 159.28251793514937,30.05624890141189 158.81578470487148,31.825908799422905 159.28251793514937,33.34275942272507 160.21598439477384,38.146115365903825 163.9498502323404,44.21350286062807 165.11668330803514,44.719118007458746 176.31828082166612,46.23596300650388 172.11768175289035,47.247192637994885 168.61718253046274,47.5 163.9498502323404,45.98315555229783 162.54965054336935,45.22473308048211 161.1494508543983,43.70788764068857 157.64895163103938,30.309057513717562 157.41558501590043,21.20793590415269 157.64895163103938,19.691079986048862 156.94885178655386,13.118030028184876 155.78201871272177,8.31463950779289 156.0153853269294,6.797777965432033 155.31528548244387,5.533726173918694 155.08191886823624,4.016863417578861 154.84855225216597,5.533726173918694 156.24875194206834,8.06182929710485 156.7154851714149,12.865220166509971 156.94885178655386,18.67984234006144 156.4821185572073,21.713554396294057 156.7154851714149,23.98883670126088 158.81578470487148,30.81467468221672 160.21598439477384,38.39892338914797 162.31628392916173,41.179810437140986 162.78301715757698,42.696656979387626 164.4165834626183,44.46631044289097 166.98361622635275,44.46631044289097 169.08391576074064,45.47754058986902 170.48411544971168,45.22473308048211 174.91808113176376,45.73034808062948 173.5178814427927,44.719118007458746 168.61718253046274,45.73034808062948 162.54965054336935,44.46631044289097 161.38281746860594,43.202272346941754 158.58241809066385,35.87084232480265 158.58241809066385,34.10118448641151 158.11568486038595,32.58433419349603 158.11568486038595,29.297822955995798 157.41558501590043,21.966363615356386 157.1822184016928,13.876459503779188 155.31528548244387,4.269673923263326 156.94885178655386,5.280915760435164 157.64895163103938,6.292157303774729 158.58241809066385,13.118030028184876 157.88231824710965,22.21917281509377 159.51588455028832,31.57310029724613 159.28251793514937,33.34275942272507 159.74925116542727,36.123650514753535 163.24975038785487,43.45508000301197 165.5834165364504,45.98315555229783 167.68371607083827,46.23596300650388 173.5178814427927,44.719118007458746 175.38481436204165,44.719118007458746 167.91708268597722,45.98315555229783 163.48311700299382,45.47754058986902 162.08291731309146,44.46631044289097 159.04915132094175,36.629266837378964 157.88231824710965,29.803440271876752 157.1822184016928,13.37083987169899 156.4821185572073,8.567449701018631 154.84855225216597,5.533726173918694 154.3818190228194,4.016863417578861 155.5486520966515,5.786536568542942 156.94885178655386,6.544967643450946 157.88231824710965,8.06182929710485 158.11568486038595,15.39331795857288 157.64895163103938,23.73602763027884 159.04915132094175,34.85960938502103 159.9826177796349,37.64049926283769 161.61618408374488,39.91577114537358 162.08291731309146,41.43261824036017 163.48311700299382,43.70788764068857 166.28351638186723,45.22473308048211 169.08391576074064,45.47754058986902 173.98461467120796,43.960695260204375 175.1514477469027,43.960695260204375 171.1842152941972,44.719118007458746 167.91708268597722,45.98315555229783 164.88331669196486,45.98315555229783 163.01638377364725,45.22473308048211 161.84955069981515,44.21350286062807 159.28251793514937,37.38769118441269 157.88231824710965,31.067483239108697 157.1822184016928,26.516926404787228 157.1822184016928,23.48321853997186 156.7154851714149,20.44950802787207 157.1822184016928,14.382079062750563 156.7154851714149,12.612410286674276 156.94885178655386,11.34836060856469 155.78201871272177,7.809019067557529 154.61518563795835,6.039346945472062 153.91508579347283,3.258431791793555 154.84855225216597,4.522484409855679 156.94885178655386,6.039346945472062 157.64895163103938,7.303398553049192 158.3490514755249,15.646127636544406 158.58241809066385,28.033779344987124 159.51588455028832,31.320291777839884 159.74925116542727,34.85960938502103 162.31628392916173,40.42138691712171 163.01638377364725,41.179810437140986 163.48311700299382,42.949464672477916 165.5834165364504,44.21350286062807 170.25074883457273,44.46631044289097 172.11768175289035,44.21350286062807 166.05014976579696,45.47754058986902 163.01638377364725,45.73034808062948 161.84955069981515,44.21350286062807 159.04915132094175,36.88207497168332 158.11568486038595,30.81467468221672 157.64895163103938,22.471981996903196 156.94885178655386,18.932651778915897 156.94885178655386,14.382079062750563 156.4821185572073,9.325880169402808 154.61518563795835,4.775294878287241 158.58241809066385,7.303398553049192 159.9826177796349,9.07307003159076 160.4493510099128,11.601170581066981 159.9826177796349,16.910175751661882 159.9826177796349,18.67984234006144 160.68271762505174,20.19669869891368 159.51588455028832,27.2753529578913 160.21598439477384,30.561866107629612 159.9826177796349,35.3652258918155 163.48311700299382,43.70788764068857 164.64995007775724,44.719118007458746 172.81778159737587,44.719118007458746 173.98461467120796,44.21350286062807 175.1514477469027,44.46631044289097 173.98461467120796,43.70788764068857 168.15044930018485,46.23596300650388 162.78301715757698,45.73034808062948 161.61618408374488,44.719118007458746 158.3490514755249,37.38769118441269 157.41558501590043,31.320291777839884 157.1822184016928,20.70231733797118 156.7154851714149,18.932651778915897 156.7154851714149,12.359600387513638 154.14845240768045,5.280915760435164 153.68171917833388,2.5 154.14845240768045,4.016863417578861 156.7154851714149,6.797777965432033 158.81578470487148,8.06182929710485 159.74925116542727,10.589930581860244 159.04915132094175,16.657366164959967 159.74925116542727,19.943889352027327 160.21598439477384,27.528161771362647 159.51588455028832,31.320291777839884 159.74925116542727,34.35399280441925 161.1494508543983,38.90453938161954 163.48311700299382,43.960695260204375 165.5834165364504,44.97192555340007 171.1842152941972,44.97192555340007 174.21798128727823,43.960695260204375 172.58441498316824,43.960695260204375 166.75024961028248,46.48877044208348 163.71648361813277,46.23596300650388 162.31628392916173,45.73034808062948 160.4493510099128,43.202272346941754 157.64895163103938,33.08995103160851 157.41558501590043,25.75849968683906 156.94885178655386,20.19669869891368 156.24875194206834,18.67984234006144 156.0153853269294,8.06182929710485 154.84855225216597,4.775294878287241 155.78201871272177,6.039346945472062 156.94885178655386,7.0505882683210075 158.81578470487148,9.578690288588405 159.74925116542727,11.853980535175651 159.51588455028832,14.634888813830912 159.04915132094175,16.15174693777226 159.74925116542727,17.668604400008917 159.74925116542727,19.691079986048862 160.21598439477384,22.977600305341184 159.9826177796349,24.747263805242255 160.68271762505174,29.045014270348474 160.4493510099128,32.58433419349603 161.1494508543983,38.65173139469698 162.08291731309146,39.91577114537358 163.71648361813277,43.960695260204375 166.51688299700618,45.47754058986902 167.68371607083827,45.47754058986902 166.51688299700618,44.46631044289097 163.48311700299382,45.22473308048211 162.08291731309146,44.46631044289097 159.51588455028832,38.39892338914797 158.11568486038595,36.88207497168332 157.88231824710965,35.3652258918155" stroke="#4dd2ff" stroke-linecap="round" stroke-linejoin="round" stroke-width="0.5"><title>2020-12-20 5.2km</title><desc>10997850879</desc></polyline><polyline fill="none" points="24.97328341472894,56.37933276966214 25.45074610877782,57.67244275286794 26.64440284576267,58.706930400570855 27.121865540742874,64.39660708676092 27.121865540742874,66.20695685013197 26.64440284576267,67.2414420156274 26.40567149873823,71.37937966943718 26.88313419278711,75.25869184779003 28.55425362382084,81.20696230279282 28.792984970845282,86.63798316149041 32.13522383198142,93.87933140597306 33.09014922194183,95.1724277548492 34.283805957995355,96.20690449676476 40.013358294032514,96.20690449676476 46.69783601723611,95.68966616340913 45.504179280251265,94.65518927224912 32.373955179937184,95.68966616340913 30.22537305392325,91.29313729680143 28.792984970845282,86.89660299546085 26.40567149873823,72.41386333084665 26.64440284576267,70.60351672605611 24.734552066773176,62.327634799294174 24.97328341472894,60.51728306082077 23.302163982763886,53.01724461419508 24.97328341472894,54.56897800345905 27.599328234791756,56.120710716815665 27.83805958274752,62.06901317858137 27.360596886835992,67.2414420156274 27.599328234791756,69.05179033149034 28.792984970845282,71.12075870716944 28.55425362382084,75.77593315183185 29.74791036080569,81.20696230279282 29.98664170783013,85.86212354619056 33.09014922194183,93.3620927343145 34.283805957995355,94.9138085229788 38.10350751504302,95.68966616340913 43.59432850219309,95.68966616340913 45.74291062820703,95.1724277548492 38.580970210023224,96.20690449676476 33.806343263946474,95.94828533916734 32.373955179937184,95.68966616340913 31.180298443883657,94.3965700021945 28.55425362382084,86.63798316149041 27.83805958274752,78.36213854374364 26.40567149873823,71.12075870716944 25.689477456733584,64.913849970093 24.734552066773176,63.103499547578394 24.257089372724295,54.31035581906326 23.54089533071965,52.5 25.928208803758025,56.120710716815665 27.360596886835992,56.37933276966214 28.55425362382084,61.81039153970778 27.121865540742874,66.72419947036542 27.360596886835992,69.05179033149034 28.55425362382084,71.12075870716944 28.792984970845282,72.93110504816286 28.3155222767964,74.48282975051552 29.74791036080569,79.1379997949116 29.98664170783013,84.82764379656874 32.13522383198142,90.51727869710885 34.045074610970914,94.13795071328059 36.67111943196505,95.43104696879163 43.833059849217534,95.1724277548492 45.98164197523147,94.9138085229788 43.11686580721289,94.9138085229788 41.445746378041804,95.68966616340913 34.045074610970914,96.20690449676476 32.373955179937184,95.68966616340913 31.180298443883657,94.3965700021945 28.3155222767964,87.15522281033918 26.64440284576267,71.12075870716944 25.928208803758025,69.31041144416668 25.689477456733584,67.50006326008588 26.166940150782466,65.94833551160991 25.689477456733584,62.586256401380524 24.97328341472894,60.51728306082077 24.734552066773176,55.603466553846374 23.779626678675413,54.05173361580819 25.21201476175338,54.82760016992688 28.55425362382084,58.706930400570855 28.792984970845282,62.586256401380524 28.076790928840637,64.65522853727452 28.3155222767964,67.75868448615074 29.031716318801045,70.08627466997132 28.792984970845282,73.44834669097327 30.22537305392325,80.17248119949363 30.464104401879013,85.60350363701582 32.612686526961625,91.29313729680143 33.32888056896627,94.3965700021945 35.477462694980204,95.43104696879163 43.11686580721289,95.68966616340913 45.74291062820703,94.9138085229788 44.0717911971733,94.3965700021945 42.161940418183804,96.20690449676476 38.819701557047665,97.24138093693182 36.90985077805817,97.5 32.612686526961625,96.46552363503724 30.941567095927894,94.9138085229788 28.3155222767964,87.15522281033918 26.64440284576267,72.15524244401604 25.689477456733584,70.34489570721053 25.21201476175338,65.68971415422857 25.689477456733584,61.293148203985766 24.734552066773176,56.120710716815665 23.779626678675413,55.603466553846374 27.83805958274752,60.51728306082077 28.55425362382084,72.15524244401604 28.076790928840637,75.77593315183185 31.65776113793254,89.74141992861405 33.806343263946474,94.9138085229788 35.716194042004645,95.94828533916734 43.35559715516865,95.94828533916734 44.78798523917794,95.43104696879163 43.833059849217534,94.65518927224912 37.86477616801858,97.24138093693182 33.56761191599071,95.94828533916734 32.373955179937184,95.94828533916734 31.65776113793254,95.1724277548492 29.270447665825486,88.18970188312232 28.076790928840637,83.27592360740528 26.64440284576267,71.89662153762765 26.88313419278711,69.31041144416668 26.166940150782466,67.50006326008588 26.40567149873823,60.00003953790292 25.45074610877782,57.1551988159772 24.734552066773176,56.120710716815665 26.64440284576267,58.96555226575583 26.64440284576267,60.25866130855866 27.83805958274752,62.8448779839091 28.076790928840637,69.82765361340716 28.792984970845282,71.12075870716944 28.076790928840637,72.41386333084665 28.3155222767964,74.74145046854392 27.599328234791756,76.81041553406976 28.55425362382084,79.39662017393857 28.55425362382084,86.63798316149041 29.74791036080569,89.74141992861405 31.180298443883657,91.03451778227463 33.56761191599071,95.68966616340913 35.0,95.94828533916734 36.90985077805817,95.68966616340913 33.56761191599071,95.43104696879163 31.896492485888302,94.3965700021945 28.3155222767964,87.67246238468215 27.360596886835992,83.79316374566406 27.599328234791756,78.62075897911564 26.64440284576267,76.034553775331 26.64440284576267,71.89662153762765" stroke="#4dd2ff" stroke-linecap="round" stroke-linejoin="round" stroke-width="0.5"><title>2020-12-19 2.8km</title><desc>10997850841</desc></polyline><polyline fill="none" points="90.71475556772202,55.147074221633375 90.71475556772202,61.50004450068809 91.20345264393836,63.617698796791956 91.20345264393836,68.64712281199172 92.66954386979342,73.94124584831297 92.66954386979342,78.17653873353265 94.37998363282531,85.32358430535533 94.13563509657979,87.70592971076258 97.0678175482899,94.58825212600641 98.04521169885993,96.44118286087178 99.51130292471498,97.23529574461281 103.42087952699512,96.97059146920219 105.37566782906651,97.5 107.08610759302974,96.44118286087178 110.75133565906435,96.70588717446662 112.70612396020442,95.91177417524159 110.26263858284801,96.44118286087178 107.33045613113791,96.44118286087178 101.95478830207139,96.97059146920219 99.51130292471498,96.70588717446662 97.31216608546674,95.38236541370861 93.8912865575403,88.5000444999896 92.66954386979342,85.05887916381471 93.15824094507843,74.20595179847442 91.69214971829206,59.64709598105401 88.5156187294051,52.76470750942826 88.02692165225744,54.08824476390146 89.73736141715199,57.26473221369088 91.44780118111521,68.91182914702222 92.91389240697026,73.41183389141224 93.15824094507843,77.91183307324536 95.1130292462185,87.44122474314645 96.33477193489671,91.41179724340327 97.31216608546674,92.73532044840977 97.31216608546674,94.32354765827768 99.51130292471498,96.97059146920219 104.64262221567333,96.97059146920219 110.99568419530988,95.38236541370861 105.86436490528286,96.44118286087178 100.24434853810817,96.70588717446662 98.2895602369681,96.44118286087178 94.37998363282531,90.352978333598 93.64693801943213,88.5000444999896 92.66954386979342,85.05887916381471 92.42519533168525,77.11771597433835 91.44780118111521,72.35300974640995 91.93649825640023,65.7353518602904 90.95910410489887,59.91180297057144 91.44780118111521,58.58826783206314 89.73736141715199,53.29412246844731 88.5156187294051,52.76470750942826 88.27127019129694,54.61765953176655 89.98170995526016,57.52943937550299 90.226058492437,60.705923822009936 89.98170995526016,62.8235785800498 91.20345264393836,68.11771008512005 91.93649825640023,69.44124175817706 94.62433217093349,86.38240467803553 97.31216608546674,94.8529565744102 98.2895602369681,96.44118286087178 100.0,97.5 110.75133565906435,95.64706980390474 100.0,96.44118286087178 98.53390877321362,95.91177417524159 94.13563509657979,89.82356876297854 92.42519533168525,84.79417400364764 92.66954386979342,73.41183389141224 91.93649825640023,70.23536053160205 92.42519533168525,66.79417793033645 91.69214971829206,60.17650994006544 89.24866434279829,53.8235373517964 87.78257311601192,52.5 89.24866434279829,60.705923822009936 88.75996726658195,62.8235785800498 92.1808467945084,69.70594803569838 92.1808467945084,73.1471278835088 94.37998363282531,86.91181474877521 96.33477193489671,93.52943413960747 98.2895602369681,96.70588717446662 99.75565146189183,97.5 104.64262221567333,96.97059146920219 109.773941507563,95.64706980390474 112.95047249831259,95.38236541370861 110.75133565906435,95.11766100372188 103.66522806510329,96.70588717446662 97.80086315982044,96.44118286087178 92.91389240697026,89.02945426292717 92.1808467945084,85.8529945302289 92.1808467945084,72.6177158113569 91.69214971829206,71.02947913110256 91.69214971829206,64.9412321059499 90.95910410489887,61.764751355396584 91.44780118111521,58.58826783206314 89.49301287904382,54.08824476390146 88.75996726658195,55.94119611289352 89.24866434279829,59.38238897291012 89.24866434279829,63.617698796791956 92.91389240697026,70.23536053160205 93.8912865575403,85.58828942733817 94.37998363282531,86.64710972341709 94.62433217093349,89.55886394856498 95.60172632150352,90.61768309003673 95.84607485868037,91.94120658328757 98.04521169885993,95.91177417524159 99.51130292471498,96.70588717446662 102.44348537735641,97.23529574461281 109.773941507563,94.32354765827768 111.24003273341805,94.58825212600641 103.90957660414279,96.70588717446662 99.26695438660681,96.70588717446662 97.55651462357491,95.91177417524159 95.1130292462185,93.2647295948118 93.4025894831866,89.55886394856498 91.69214971829206,82.94123734091409 91.20345264393836,77.38242169329897 90.95910410489887,75.79418709198944 91.44780118111521,71.29418529267423 90.47040703054518,68.11771008512005 90.95910410489887,66.79417793033645 90.71475556772202,65.20593871036544 90.71475556772202,60.705923822009936 88.27127019129694,54.35295215714723 87.04952750261873,55.41178153757937 87.78257311601192,56.47061061114073 88.5156187294051,59.11768194544129 88.5156187294051,60.97063073446043 89.98170995526016,66.52947144187056 92.1808467945084,71.02947913110256 93.8912865575403,82.1471213393379 94.13563509657979,86.91181474877521 95.60172632150352,90.8823878269177 96.57912047207355,91.94120658328757 97.80086315982044,95.91177417524159 100.0,96.97059146920219 104.39827367849648,96.97059146920219 112.21742688398808,94.8529565744102 105.86436490528286,96.70588717446662 97.80086315982044,96.70588717446662 96.33477193489671,95.91177417524159 93.4025894831866,90.352978333598 92.42519533168525,89.29415911552496 91.20345264393836,84.26476362440735 91.44780118111521,78.17653873353265 90.95910410489887,76.85301023698412 90.71475556772202,72.35300974640995 90.95910410489887,71.02947913110256 91.20345264393836,63.88240549666807 90.95910410489887,62.55887180310674 91.44780118111521,61.235337626654655 90.47040703054518,58.32356074708514 88.02692165225744,53.558829919667915 87.78257311601192,56.73531783092767 88.5156187294051,60.17650994006544 88.5156187294051,62.02945819008164 92.1808467945084,68.64712281199172 92.91389240697026,73.1471278835088 92.42519533168525,75.00006953207776 93.64693801943213,81.08829973451793 94.13563509657979,87.97063466021791 95.1130292462185,89.82356876297854 95.84607485868037,93.79413866531104 98.7782573113218,96.44118286087178 104.8869707537815,96.44118286087178 110.99568419530988,94.32354765827768 112.21742688398808,94.58825212600641 104.39827367849648,96.70588717446662 100.0,96.97059146920219 97.80086315982044,96.17647852795199 94.13563509657979,90.08827355806716 90.95910410489887,81.08829973451793 91.93649825640023,76.323598702671" stroke="#4dd2ff" stroke-linecap="round" stroke-linejoin="round" stroke-width="0.5"><title>2020-12-16 3.4km</title><desc>10997850782</desc></polyline><polyline fill="none" points="153.55310568027198,55.56820011162199 154.73319787811488,56.846616035094485 155.91329007502645,57.35798227414489 156.62134539429098,65.79551448416896 156.38532695453614,67.84097378933802 158.27347447164357,78.06825246545486 158.27347447164357,81.39211162971333 159.45356666948646,88.29550139512867 161.81375106517226,93.40911470539868 164.17393546085805,95.9659185721539 169.1303226929158,96.47727912245318 177.39096807781607,95.9659185721539 174.7947652414441,95.19887760770507 167.4781936146319,96.22159885661677 165.35402765870094,96.22159885661677 163.22986170183867,94.9431972487364 159.6895851092413,86.76141595188528 158.5094929113984,80.1137046306394 158.5094929113984,74.23302644724026 158.03745603188872,65.79551448416896 156.62134539429098,58.63639754708856 154.49717943836004,53.778417038498446 153.0810688007623,52.755683444440365 155.4412531964481,55.56820011162199 157.56541915331036,62.2159578371793 157.80143759213388,63.75005398946814 156.85736383404583,65.79551448416896 158.5094929113984,70.65347839007154 158.74551135022193,77.30120759643614 159.6895851092413,81.64779297425412 159.92560354806483,86.50573497940786 162.0497695049271,90.08526689978316 162.0497695049271,92.64207318332046 163.22986170183867,95.19887760770507 164.17393546085805,96.47727912245318 165.5900460984558,96.98863959871233 173.61467304453254,96.73295936989598 176.68291275855154,96.22159885661677 178.33504183590412,96.22159885661677 177.1549496371299,95.71023826883174 169.60235957149416,96.98863959871233 166.06208297703415,96.98863959871233 162.7578248232603,95.71023826883174 159.2175482288003,88.55118223722093 158.03745603188872,79.34666020749137 158.74551135022193,73.72166266199201 158.03745603188872,60.4261781477835 153.0810688007623,52.755683444440365 154.73319787811488,52.755683444440365 156.38532695453614,57.86934843915515 156.14930851571262,62.47164057614282 155.4412531964481,64.51710181450471 157.80143759213388,71.16484262119047 158.9815297909081,76.2784808438737 158.74551135022193,79.60234170081094 159.6895851092413,89.06254386575893 162.99384326394647,95.19887760770507 164.4099539006129,96.47727912245318 166.06208297703415,97.24431980820373 175.974857439287,95.9659185721539 174.5587468026206,95.19887760770507 167.71421205531806,96.73295936989598 164.4099539006129,96.47727912245318 162.99384326394647,95.9659185721539 160.39764042757452,89.06254386575893 158.5094929113984,85.99437297927216 158.27347447164357,82.41483689495362 158.27347447164357,66.05119696259499 157.80143759213388,59.40344648738392 154.96921631786972,53.778417038498446 154.02514255885035,52.5 156.38532695453614,56.846616035094485 157.3294007126242,60.1704952607397 156.85736383404583,65.79551448416896 158.27347447164357,72.44325287430547 159.6895851092413,82.15915560629219 159.2175482288003,86.50573497940786 160.16162198781967,89.57390541955829 162.99384326394647,94.68751687114127 163.46588014252484,96.22159885661677 164.4099539006129,97.5 170.78245176933706,97.24431980820373 175.03078368213028,95.9659185721539 173.37865460384637,95.19887760770507 169.838378011249,95.9659185721539 165.1180092189461,95.9659185721539 162.7578248232603,95.71023826883174 161.10569574683905,92.89775370899588 159.92560354806483,89.57390541955829 159.92560354806483,88.03982053464279 158.9815297909081,86.50573497940786 157.80143759213388,80.1137046306394 158.03745603188872,78.57961561740376 156.38532695453614,69.11938524991274 156.38532695453614,66.05119696259499 155.91329007502645,64.51710181450471 156.38532695453614,59.659129430074245 154.96921631786972,56.59093288728036 154.73319787811488,55.05683361273259 153.7891241190955,56.335249721538275 155.20523475669324,65.79551448416896 158.03745603188872,72.9546168455854 158.27347447164357,77.04552593594417 159.45356666948646,81.90347429923713 160.39764042757452,89.31822465220466 163.70189858227968,95.71023826883174 169.60235957149416,96.47727912245318 177.1549496371299,94.9431972487364 169.838378011249,96.47727912245318 164.6459723394364,96.73295936989598 163.22986170183867,96.47727912245318 161.81375106517226,95.4545579473488 159.92560354806483,92.64207318332046 159.92560354806483,90.8523089797236 157.56541915331036,86.25005398853682 156.62134539429098,80.62506748596206 157.3294007126242,77.81257086060941 157.3294007126242,76.2784808438737 156.62134539429098,74.74439015844837 157.09338227380067,67.32960907416418 156.62134539429098,61.1932266978547 154.96921631786972,58.12503149360418 154.26116099953651,55.3125168713741 153.55310568027198,54.03410039097071 153.31708724051714,55.56820011162199 154.73319787811488,58.63639754708856 155.91329007502645,64.26141922431998 158.03745603188872,69.37506748642772 159.6895851092413,77.55688923760317 160.16162198781967,82.92619941569865 159.92560354806483,84.97164875571616 160.63365886732936,89.82958616898395 162.28578794468194,93.92047562729567 163.9379170211032,95.9659185721539 165.82606453821063,96.22159885661677 170.07439645007253,96.22159885661677 174.32272836286575,94.9431972487364 176.21087587904185,94.9431972487364 172.43458084668964,96.47727912245318 165.82606453821063,96.73295936989598 162.7578248232603,95.4545579473488 159.92560354806483,91.61935089272447 158.74551135022193,88.55118223722093 155.67727163713425,76.02279910957441 156.85736383404583,68.35233842907473 157.09338227380067,62.72732329601422 156.38532695453614,59.659129430074245 153.0810688007623,53.267050279071555 153.55310568027198,55.3125168713741 154.73319787811488,56.59093288728036 154.96921631786972,60.1704952607397 157.09338227380067,64.7727843853645 158.5094929113984,71.42052470915951 158.5094929113984,76.02279910957441 159.45356666948646,78.83529716636986 159.45356666948646,85.22732983902097 160.8696773070842,89.57390541955829 163.70189858227968,94.9431972487364 167.00615673605353,95.71023826883174 175.50282056070864,94.68751687114127 174.5587468026206,95.4545579473488 172.67059928644449,95.4545579473488 168.18624893389642,96.98863959871233 165.1180092189461,96.98863959871233 163.46588014252484,96.47727912245318 162.28578794468194,95.4545579473488 158.9815297909081,88.29550139512867 158.74551135022193,86.76141595188528 157.56541915331036,85.22732983902097 157.56541915331036,82.15915560629219 156.85736383404583,79.0909786967095 157.3294007126242,74.48870831192471 156.62134539429098,62.2159578371793 155.4412531964481,56.846616035094485 153.31708724051714,54.801150334766135 152.60903192218393,52.755683444440365 153.0810688007623,54.54546703840606 154.02514255885035,55.56820011162199 154.73319787811488,59.147763525368646 154.73319787811488,65.53983198711649 156.38532695453614,70.90916051529348 157.56541915331036,73.72166266199201 157.3294007126242,75.51143558486365 157.56541915331036,77.04552593594417 158.74551135022193,78.57961561740376 159.6895851092413,81.39211162971333 159.6895851092413,84.97164875571616 160.63365886732936,87.78413965483196 162.7578248232603,91.36367027345113 163.70189858227968,92.64207318332046 167.95023049321026,94.68751687114127 173.37865460384637,95.19887760770507 176.21087587904185,94.9431972487364 174.0867099231109,95.19887760770507 171.96254396624863,96.47727912245318 169.838378011249,96.73295936989598 168.18624893389642,96.22159885661677 165.5900460984558,96.22159885661677 164.17393546085805,95.71023826883174 162.5218063844368,94.68751687114127 159.2175482288003,87.27277784072794 158.03745603188872,79.34666020749137 158.27347447164357,77.81257086060941 157.09338227380067,68.09665611828677 157.56541915331036,60.681861016200855 157.3294007126242,58.892080545891076 153.55310568027198,53.01136687071994 152.3730134824291,54.03410039097071 152.84505036193877,55.3125168713741 153.0810688007623,57.61366536631249 151.90097660198808,61.448909510625526 151.66495816316456,64.51710181450471 153.31708724051714,67.07392668910325 153.7891241190955,69.37506748642772 156.85736383404583,73.9773445641622 158.03745603188872,77.55688923760317" stroke="#4dd2ff" stroke-linecap="round" stroke-linejoin="round" stroke-width="0.5"><title>2020-12-13 4.2km</title><desc>10997850758</desc></polyline><polyline fill="none" points="21.826120730489492,104.04286662256345 23.250323894433677,106.1000210721977 24.199792670086026,108.67146245180629 25.149261446669698,115.87148836650886 26.8108318047598,121.7857844021637 27.522933387197554,135.41434195591137 29.89660532772541,142.61431342363358 31.083441298455,143.9000210717786 33.219746043905616,145.1857282523997 34.88131640199572,145.70001099421643 46.51230891048908,145.44286963250488 48.173879268579185,145.95715233683586 46.74967610556632,145.44286963250488 42.71443380601704,146.72857625270262 36.542886761017144,146.47143496596254 32.9823788497597,145.70001099421643 31.558175685815513,144.41430399985984 28.472402163781226,137.7286200975068 27.285566193051636,130.52863868349232 27.522933387197554,128.4714984439779 26.8108318047598,124.6143572696019 27.285566193051636,120.75721188867465 24.91189425252378,105.58573257201351 23.725058282725513,103.78572223265655 22.063487923704088,104.04286662256345 23.487691088579595,104.81429968145676 24.674527058377862,106.61430949787609 26.336097417399287,114.32862690440379 27.285566193051636,129.24292617407627 27.997667774558067,136.7000522215385 29.89660532772541,142.1000302331522 31.320808491669595,144.1571625454817 33.457113238051534,145.44286963250488 35.11868359707296,145.70001099421643 41.290230642072856,145.1857282523997 43.18916819430888,145.44286963250488 46.74967610556632,144.9285868536681 40.8154962528497,146.72857625270262 34.64394920878112,145.95715233683586 32.74501165561378,145.1857282523997 31.558175685815513,143.64287957944907 29.659238133579493,140.0428967247717 27.04819899983704,129.24292617407627 25.86136302910745,118.95720927091315 26.098730222322047,110.21432638191618 25.149261446669698,106.61430949787609 24.199792670086026,104.81429968145676 22.77558950614184,103.52857782319188 25.149261446669698,106.87145368242636 25.623995834961534,114.58577052829787 26.8108318047598,118.70006596506573 28.235034969635308,138.75718767452054 29.184503745287657,140.0428967247717 30.133972520940006,143.12859653891064 32.27027726825327,145.44286963250488 33.93184762634337,146.21429366036318 40.8154962528497,145.44286963250488 42.95180099923164,144.1571625454817 46.51230891048908,143.64287957944907 45.0881057465449,144.9285868536681 40.8154962528497,146.72857625270262 34.88131640199572,146.47143496596254 31.083441298455,144.41430399985984 27.997667774558067,136.95719421911053 26.8108318047598,129.75721123395488 26.098730222322047,121.27149818278849 26.098730222322047,114.32862690440379 25.386628639884293,110.72861420921981 25.623995834961534,107.38574199588038 25.149261446669698,105.58573257201351 26.098730222322047,113.30005222279578 26.336097417399287,119.21435255859978 28.235034969635308,137.7286200975068 32.032910073176026,144.1571625454817 32.9823788497597,145.70001099421643 34.406582014635205,146.21429366036318 39.15392589569092,145.1857282523997 47.69914488028735,144.41430399985984 46.03757452219725,144.1571625454817 40.10339467134327,146.21429366036318 34.64394920878112,146.21429366036318 32.74501165561378,145.44286963250488 29.421870938502252,141.07146362867206 26.8108318047598,132.8429200220853 25.623995834961534,123.0714996221941 25.86136302910745,119.47149582672864 25.149261446669698,117.92863593506627 25.623995834961534,109.70003848010674 25.149261446669698,107.38574199588038 23.487691088579595,104.55715534742922 22.5382223110646,103.78572223265655 24.199792670086026,105.84287683153525 25.149261446669698,108.67146245180629 26.336097417399287,116.90006230049767 27.760300581343472,135.41434195591137 30.371339716017246,142.61431342363358 32.27027726825327,145.1857282523997 33.93184762634337,145.70001099421643 42.00233222451061,145.44286963250488 45.325472940690815,144.67144543584436 47.69914488028735,145.70001099421643 45.56284013483673,147.24285876913927 42.95180099923164,147.5 38.441824313253164,146.47143496596254 34.64394920878112,146.21429366036318 32.74501165561378,145.44286963250488 29.89660532772541,141.07146362867206 27.997667774558067,137.47147815674543 26.8108318047598,132.3286354111042 26.573464610613883,127.18578518694267 26.098730222322047,125.64292866084725 26.098730222322047,117.41434915573336 25.386628639884293,108.15717432554811 24.199792670086026,103.52857782319188 22.77558950614184,102.5 24.91189425252378,105.07144399709068 25.623995834961534,106.87145368242636 25.623995834961534,108.67146245180629 27.04819899983704,123.0714996221941 27.997667774558067,126.41435700771399 27.997667774558067,133.8714890202973 29.421870938502252,140.0428967247717 31.320808491669595,142.87145499046892 31.79554287996143,144.41430399985984 34.64394920878112,145.70001099421643 44.61337135825306,143.9000210717786 47.461777687072754,144.67144543584436 42.00233222451061,146.9857175203506 39.86602747812867,146.9857175203506 32.74501165561378,145.95715233683586 31.320808491669595,144.9285868536681 28.70976935699582,140.8143219309859 27.04819899983704,137.2143361971248 25.86136302910745,121.0143550450448 25.386628639884293,118.95720927091315 25.86136302910745,109.44289450068027 23.012956701219082,103.01428894884884 22.5382223110646,104.04286662256345 24.199792670086026,105.32858829363249 25.386628639884293,106.87145368242636 25.623995834961534,110.47147030453198 26.8108318047598,117.67149255471304 27.285566193051636,121.27149818278849 26.8108318047598,122.81435661553405 28.235034969635308,136.7000522215385 32.27027726825327,145.70001099421643 33.457113238051534,146.47143496596254 38.441824313253164,146.47143496596254 43.18916819430888,145.44286963250488 45.325472940690815,145.1857282523997 46.27494171727449,144.41430399985984 38.91655870061368,145.70001099421643 34.169214819557965,145.70001099421643 32.507644462399185,145.1857282523997 30.371339716017246,142.87145499046892 27.522933387197554,136.4429102060385 27.522933387197554,133.3572045583278 26.8108318047598,130.0143537351396 26.336097417399287,122.30007054610178 26.336097417399287,118.95720927091315 25.386628639884293,115.10005771974102 25.623995834961534,112.01433344953693 23.96242547594011,105.32858829363249 22.77558950614184,103.78572223265655 25.149261446669698,106.35716529469937 25.86136302910745,109.70003848010674 26.8108318047598,121.0143550450448 27.760300581343472,126.41435700771399 27.522933387197554,134.64291557203978 29.421870938502252,140.8143219309859 32.032910073176026,145.1857282523997 33.93184762634337,147.24285876913927 44.376004164107144,145.44286963250488 39.86602747812867,144.9285868536681 36.06815237272531,145.70001099421643 32.74501165561378,145.1857282523997 31.558175685815513,144.1571625454817 28.235034969635308,138.50004580826499 27.522933387197554,135.67148404661566 26.573464610613883,127.44292787509039 25.86136302910745,112.01433344953693 25.386628639884293,108.92860648687929 23.725058282725513,104.04286662256345 22.063487923704088,104.04286662256345 23.96242547594011,105.32858829363249 25.86136302910745,108.41431839764118 27.522933387197554,118.1857792972587 27.285566193051636,122.81435661553405 27.760300581343472,124.6143572696019 27.285566193051636,127.18578518694267 28.70976935699582,135.928626117995 30.133972520940006,139.7857549523469 31.083441298455,141.32860530843027 31.79554287996143,143.38573806849308 32.9823788497597,144.9285868536681 34.64394920878112,145.70001099421643 38.204457118175924,146.21429366036318 42.71443380601704,145.44286963250488 45.0881057465449,145.44286963250488 40.5781290596351,144.9285868536681 38.441824313253164,145.70001099421643 34.406582014635205,145.1857282523997 32.27027726825327,144.1571625454817 28.94713655114174,137.98576202010736 27.04819899983704,130.52863868349232 27.997667774558067,128.4714984439779 26.8108318047598,121.7857844021637 26.8108318047598,119.72863907669671" stroke="#4dd2ff" stroke-linecap="round" stroke-linejoin="round" stroke-width="0.5"><title>2020-12-12 4.5km</title><desc>10997850703</desc></polyline><polyline fill="none" points="90.36105663329363,106.47792441537604 91.27905123867095,107.72102484595962 91.96754719410092,111.94756293017417 92.88554180040956,127.61057027126662 94.26253370940685,134.82050191634335 95.86902427114546,139.79285970982164 98.1640107864514,144.26797554153018 99.31150404457003,145.01382761099376 106.65546089503914,145.01382761099376 111.70443123113364,144.26797554153018 109.63894336577505,143.52212331001647 106.42596224322915,144.01935814903118 104.81947168335319,144.7652102727443 99.77050134819001,145.5110622337088 98.39350943919271,144.51659291633405 96.55752022564411,141.78180080233142 94.26253370940685,134.07464762334712 94.03303505759686,125.62162093562074 93.34453910402954,117.41719269449823 91.73804854229093,110.4558442030102 87.8365714661777,102.5 88.98406472336501,103.74310187762603 92.4265444977209,105.23482353263535 93.5740377549082,106.47792441537604 93.80353640764952,108.46688488777727 93.5740377549082,112.69342204951681 92.88554180040956,114.93099843151867 93.34453910402954,120.40062342351303 93.34453910402954,123.38405154948123 94.26253370940685,125.12438342091627 95.41002696752548,132.58293854957446 95.18052831571549,135.31773802102543 98.1640107864514,141.53318322938867 99.77050134819001,144.26797554153018 100.68849595356733,145.2624449315481 101.83598921261728,145.2624449315481 102.5244851661846,146.75414847303182 103.90147707611322,147.5 108.9504474112764,145.5110622337088 110.786436624825,144.26797554153018 108.9504474112764,143.77074073883705 101.3769919089973,145.5110622337088 98.1640107864514,145.2624449315481 95.18052831571549,139.29562425613403 94.03303505759686,135.31773802102543 94.49203236214817,129.10228151455522 93.80353640764952,116.4227152063977 91.96754719410092,111.698943187017 91.73804854229093,108.46688488777727 90.59055528510362,105.4834437458776 89.44306202698499,104.9862033019308 91.50854989048094,107.22378472844139 92.65604314859957,111.698943187017 92.88554180040956,114.93099843151867 93.34453910402954,115.92547635361552 92.88554180040956,123.13543263846077 94.03303505759686,128.3564259740524 95.41002696752548,132.58293854957446 95.63952561933547,136.3122100138571 97.93451213464141,141.03594802878797 98.62300808914006,143.77074073883705 99.31150404457003,144.51659291633405 100.68849595356733,145.5110622337088 104.81947168335319,145.5110622337088 105.96696494054049,146.25691403169185 112.16342853475362,144.26797554153018 110.3274393202737,143.77074073883705 101.83598921261728,145.7596795174759 98.85250674188137,145.5110622337088 97.70501348376274,144.7652102727443 94.95102966483682,137.55529959732667 93.80353640764952,129.84813689207658 93.80353640764952,116.4227152063977 91.04955258779228,108.71550486492924 88.52506742067635,103.99172219797038 91.50854989048094,108.21826489199884 92.65604314859957,115.6768569003325 92.19704584497958,122.63819476217031 93.34453910402954,129.10228151455522 93.80353640764952,135.31773802102543 96.32802157476544,142.27903589536436 98.1640107864514,145.5110622337088 99.99999999906868,146.25691403169185 103.90147707611322,145.7596795174759 109.86844201758504,144.51659291633405 111.47493257839233,144.7652102727443 109.17994606308639,143.77074073883705 101.3769919089973,145.01382761099376 98.62300808914006,145.2624449315481 97.24601618014276,144.51659291633405 94.26253370940685,137.8039174603764 93.80353640764952,135.06911997753195 94.03303505759686,130.5939921066165 93.80353640764952,123.38405154948123 93.34453910402954,121.89233781187795 93.34453910402954,116.67133460543118 92.19704584497958,110.95308385090902 90.59055528510362,107.22378472844139 91.73804854229093,109.21274476614781 93.11504045221955,114.433759362204 93.34453910402954,125.62162093562074 94.26253370940685,133.57741133822128 95.86902427114546,139.29562425613403 99.31150404457003,144.51659291633405 101.83598921261728,144.7652102727443 102.98348247073591,145.2624449315481 107.11445819865912,145.5110622337088 109.17994606308639,144.7652102727443 110.786436624825,145.01382761099376 109.17994606308639,144.26797554153018 102.06548786349595,145.7596795174759 97.93451213464141,145.5110622337088 95.18052831571549,141.03594802878797 94.26253370940685,137.55529959732667 94.03303505759686,129.59951845067553 94.49203236214817,125.12438342091627 93.80353640764952,123.38405154948123 93.34453910402954,114.68237890629098 92.65604314859957,112.69342204951681 92.65604314859957,110.95308385090902 91.04955258779228,107.47240479616448 93.11504045221955,110.4558442030102 93.80353640764952,113.68790062190965 93.5740377549082,124.12990817404352 94.49203236214817,131.83708376949653 95.86902427114546,138.05253530479968 99.54100269638002,144.01935814903118 100.45899730268866,145.01382761099376 109.63894336577505,144.7652102727443 105.73746628966182,144.26797554153018 102.06548786349595,144.7652102727443 98.62300808914006,144.51659291633405 97.24601618014276,143.52212331001647 94.49203236214817,138.5497709393967 94.03303505759686,136.06359204277396 94.49203236214817,133.826029489981 93.34453910402954,123.88128931773826 93.5740377549082,122.14095681393519 92.65604314859957,116.17409578897059 93.34453910402954,114.433759362204 91.50854989048094,108.71550486492924 90.36105663329363,107.22378472844139 91.04955258779228,108.71550486492924 92.4265444977209,110.20722435158677 93.34453910402954,115.42823742912151 93.5740377549082,120.64924253360368 93.11504045221955,124.12990817404352 94.49203236214817,133.32879316806793 94.72153101209551,137.30668171704747 97.70501348376274,141.28456563851796 98.62300808914006,144.7652102727443 99.77050134819001,146.00829678378068 100.91799460630864,146.25691403169185 102.98348247073591,145.5110622337088 108.26195145677775,145.5110622337088 110.3274393202737,145.01382761099376 105.73746628966182,144.26797554153018 101.60649056080729,145.2624449315481 99.77050134819001,145.01382761099376 97.70501348376274,144.01935814903118 95.86902427114546,140.5387127555441 93.80353640764952,130.5939921066165" stroke="#4dd2ff" stroke-linecap="round" stroke-linejoin="round" stroke-width="0.5"><title>2020-12-09 3.3km</title><desc>10997850667</desc></polyline><polyline fill="none" points="155.53828575182706,102.5 154.15364464186132,103.25000482634641 154.15364464186132,104.50001250649802 156.23060630634427,109.50003868341446 156.9229268617928,117.0000643148087 156.9229268617928,124.25007354002446 158.30756797082722,129.7500703400001 158.07679445203394,135.7500568155665 158.76911500655115,138.7500461267773 160.38452963437885,141.50003402889706 161.53839722648263,145.50001250603236 162.46149129793048,146.75000482588075 163.84613240789622,147.5 175.3848083205521,147.0000032351818 167.0769616626203,147.0000032351818 162.92303833551705,146.5000063981861 161.53839722648263,145.50001250603236 159.69220907986164,140.00004090042785 158.53834148775786,134.25006117811427 158.53834148775786,127.00007303990424 157.84602093417197,124.50007358542643 157.84602093417197,116.75006372388452 156.9229268617928,110.50004304596223 156.23060630634427,109.00003639329225 155.999832787551,110.50004304596223 156.9229268617928,115.00005907961167 157.38447389751673,124.50007358542643 158.30756797082722,126.75007317611016 158.07679445203394,130.50006922218017 158.76911500655115,137.25005179806612 161.30762370768934,144.00002112216316 163.3845853721723,146.5000063981861 164.76922648120672,147.0000032351818 169.38469684682786,147.2500016267877 174.0001672115177,146.2500079520978 177.0002229474485,146.2500079520978 175.84635535720736,146.0000094883144 164.53845296241343,147.2500016267877 163.61535889003426,146.75000482588075 161.07685018982738,143.50002384907566 159.2306620432064,138.7500461267773 158.30756797082722,130.50006922218017 158.53834148775786,126.25007339427248 158.07679445203394,124.00007347669452 157.84602093417197,114.00005602580495 155.53828575182706,107.2500278041698 155.07673871610314,108.25003282097168 156.46137982420623,111.00004511838779 158.76911500655115,136.2500552155543 159.69220907986164,140.00004090042785 163.153811853379,146.5000063981861 165.92309407237917,147.2500016267877 173.30784665606916,146.5000063981861 174.6924877660349,145.75001100660302 172.8462996194139,145.75001100660302 164.76922648120672,147.0000032351818 161.7691707443446,146.2500079520978 159.46143556199968,142.75002780277282 158.53834148775786,136.00005602417514 158.76911500655115,134.50006049592048 158.30756797082722,127.50007271277718 156.9229268617928,111.00004511838779 155.76905926968902,107.50002908543684 154.61519167851657,106.00002112309448 152.99977705162019,106.50002385047264 156.23060630634427,112.50005089933984 156.69215334299952,114.00005602580495 156.46137982420623,115.50006049708463 157.38447389751673,126.50007329462096 158.99988852627575,134.50006049592048 158.76911500655115,137.25005179806612 158.99988852627575,138.7500461267773 161.99994426220655,145.25001398753375 162.69226481672376,146.75000482588075 163.3845853721723,147.2500016267877 167.76928221806884,147.5 174.6924877660349,146.0000094883144 167.76928221806884,147.0000032351818 162.69226481672376,147.0000032351818 160.38452963437885,144.50001832284033 158.53834148775786,138.7500461267773 158.53834148775786,131.2500679406803 158.30756797082722,124.25007354002446 157.38447389751673,117.25006488780491 157.38447389751673,112.50005089933984 156.9229268617928,109.50003868341446 153.92287112399936,105.75001973239705 154.15364464186132,108.75003522029147 155.30751223303378,110.25004198309034 156.46137982420623,114.00005602580495 157.15370037965477,121.25007157656364 158.53834148775786,128.75007157656364 159.9229825977236,139.5000430450309 163.61535889003426,146.5000063981861 166.84618814568967,147.5 169.38469684682786,146.75000482588075 171.00011147279292,145.75001100660302 175.3848083205521,145.25001398753375 168.2308292556554,146.75000482588075 163.3845853721723,147.2500016267877 161.99994426220655,146.75000482588075 160.6153031522408,145.75001100660302 158.30756797082722,139.0000451176893 157.84602093417197,133.25006372341886 158.07679445203394,131.75006699562073 157.61524741631,130.50006922218017 157.84602093417197,127.75007252162322 157.38447389751673,126.25007339427248 157.61524741631,123.50007329462096 157.15370037965477,116.25006248801947 156.46137982420623,111.50004711840302 156.69215334299952,110.25004198309034 155.76905926968902,107.2500278041698 154.61519167851657,106.75002518598922 154.84596519730985,108.25003282097168 155.999832787551,109.75003980193287 156.9229268617928,115.25005979742855 157.38447389751673,117.0000643148087 158.30756797082722,122.50007271301001 158.30756797082722,125.5000735851936 158.99988852627575,131.50006747688167 160.38452963437885,136.2500552155543 160.38452963437885,139.0000451176893 163.153811853379,143.75002249446698 163.84613240789622,146.2500079520978 164.76922648120672,146.75000482588075 168.00005573686212,146.5000063981861 171.92320554703474,145.00001545087434 174.46171424724162,145.00001545087434 169.15392332710326,146.2500079520978 167.5385087011382,147.0000032351818 162.46149129793048,147.2500016267877 161.30762370768934,146.2500079520978 158.07679445203394,140.50003868248314 157.84602093417197,139.2500440904405 156.69215334299952,114.00005602580495 156.9229268617928,112.50005089933984 156.46137982420623,109.50003868341446 155.30751223303378,106.50002385047264 154.15364464186132,105.50001832423732 154.15364464186132,107.00002650381066 155.999832787551,109.50003868341446 156.69215334299952,111.00004511838779 156.46137982420623,114.25005681626499 158.30756797082722,121.25007157656364 158.76911500655115,129.5000706759747 160.1537561165169,134.00006184214726 161.30762370768934,139.7500419819262 163.61535889003426,144.75001689605415 164.99999999906868,146.5000063981861 167.3077351823449,146.75000482588075 174.6924877660349,145.00001545087434 175.84635535720736,145.00001545087434 167.5385087011382,147.2500016267877 164.0769059266895,147.5 162.69226481672376,147.2500016267877 160.38452963437885,145.25001398753375 157.61524741631,140.00004090042785 156.9229268617928,136.50005438830703 157.38447389751673,134.50006049592048 156.9229268617928,117.25006488780491 157.15370037965477,114.5000575890299 156.46137982420623,110.25004198309034 155.30751223303378,106.25002249563113 154.15364464186132,106.25002249563113 154.61519167851657,107.75003034877591 156.69215334299952,110.00004090135917 157.84602093417197,113.25005354452878 158.76911500655115,128.5000718398951 159.2306620432064,130.00006998586468 159.2306620432064,131.75006699562073 160.6153031522408,139.0000451176893 162.69226481672376,144.75001689605415 163.84613240789622,146.2500079520978 165.92309407237917,147.0000032351818 172.61552610155195,145.25001398753375 177.0002229474485,144.75001689605415 172.38475258275867,145.25001398753375 165.6923205545172,146.75000482588075 163.84613240789622,147.0000032351818 162.23071778099984,146.5000063981861 160.38452963437885,143.75002249446698 160.1537561165169,142.25003034784459 158.30756797082722,139.7500419819262 157.38447389751673,135.7500568155665 157.84602093417197,129.5000706759747 157.38447389751673,128.00007231277414 157.38447389751673,122.75007288530469" stroke="#4dd2ff" stroke-linecap="round" stroke-linejoin="round" stroke-width="0.5"><title>2020-12-06 3.9km</title><desc>10997850614</desc></polyline><polyline fill="none" points="24.191314878873527,152.95918691228144 25.039054888300598,154.10715390043333 25.250989890657365,157.321459247265 26.522599905729294,160.07657551160082 27.794209918938577,166.50517077976838 28.006144921295345,167.6531328430865 27.58227491658181,170.17864791373722 28.853884931653738,176.83681432553567 29.065819934010506,180.05109653342515 28.641949928365648,181.42864504968747 28.853884931653738,183.03578422544524 30.973234954290092,187.168424064992 31.820974964648485,190.1531050291378 32.668714974075556,191.30105849541724 37.54322002828121,193.1377831727732 40.298375059850514,193.36737368279137 43.47740009520203,192.67860210384242 47.0802951361984,193.1377831727732 41.78192007634789,194.28573555406183 35.21193500235677,194.28573555406183 33.94032498728484,193.59696417558007 30.761299951933324,189.2347419562284 29.48968993872404,186.25006012339145 29.065819934010506,183.26537546981126 28.43001492600888,181.658236410236 28.853884931653738,180.05109653342515 28.006144921295345,174.0817126852926 28.43001492600888,172.7041609636508 28.006144921295345,170.86742440005764 27.794209918938577,166.2755783169996 28.218079924583435,164.8980231899768 28.006144921295345,163.29087478201836 28.853884931653738,162.37250389554538 28.43001492600888,159.1582036910113 27.58227491658181,156.8622729696799 24.615184883587062,153.18878034339286 22.707769862376153,154.10715390043333 24.827119885012507,155.94390021404251 27.158404911868274,161.22453991277143 28.006144921295345,166.2755783169996 28.641949928365648,168.11231755209155 28.43001492600888,173.6225288452115 30.125494945794344,178.21436424413696 30.125494945794344,179.59191356110387 29.48968993872404,182.11741908243857 30.33742994721979,186.02046909672208 32.88064997643232,192.9081926466897 35.21193500235677,194.28573555406183 39.238700048066676,193.1377831727732 42.205790081992745,193.36737368279137 43.90127010084689,193.1377831727732 44.749010109342635,192.44901154376566 42.841595088131726,193.36737368279137 36.05967501271516,193.59696417558007 34.78806499764323,194.05614511109889 32.45677997171879,192.44901154376566 29.27775493543595,186.70924212783575 29.27775493543595,185.33169591496699 28.641949928365648,183.72455790778622 28.853884931653738,182.11741908243857 28.006144921295345,179.3623220496811 28.218079924583435,176.60722261411138 27.794209918938577,175.45926380576566 28.218079924583435,174.0817126852926 27.794209918938577,172.7041609636508 28.006144921295345,169.94905571779236 27.794209918938577,168.3419098809827 28.43001492600888,165.81639334186912 28.006144921295345,163.06128208548762 28.218079924583435,160.07657551160082 25.6748598953709,155.02552719134837 23.555509871803224,152.5 22.495834859088063,154.10715390043333 25.250989890657365,156.40308662503958 26.946469909511507,160.5357613223605 27.58227491658181,165.81639334186912 27.794209918938577,173.1633449376095 29.27775493543595,178.44395583844744 29.27775493543595,182.11741908243857 30.125494945794344,186.02046909672208 31.609039961360395,188.08678773930296 32.03290996700525,191.07146783568896 33.304519980214536,193.36737368279137 34.3641949929297,194.51532598002814 35.6358050070703,194.974506782135 36.90741502214223,194.974506782135 41.35805007163435,193.36737368279137 44.3251401046291,192.9081926466897 47.50416514091194,193.1377831727732 46.868360133841634,194.05614511109889 43.26546509284526,195.2040971580427 41.56998507492244,195.43368751718663 35.6358050070703,194.28573555406183 34.15225999057293,194.7449163889978 30.973234954290092,190.84187715896405 29.27775493543595,188.31637861579657 27.794209918938577,183.954149101628 27.794209918938577,178.67354741645977 28.006144921295345,177.52558935969137 27.58227491658181,176.14803914050572 26.946469909511507,169.4898712763097 27.794209918938577,160.3061684255954 27.158404911868274,158.46942464984022 24.827119885012507,154.33674724865705 23.76744487415999,153.64796715578996 25.250989890657365,154.79593389341608 26.310664902441204,156.6326798060909 27.370339914225042,166.04598583769985 26.946469909511507,170.40824009221978 28.43001492600888,178.67354741645977 29.065819934010506,180.05109653342515 29.27775493543595,181.658236410236 30.33742994721979,182.8061929650139 30.33742994721979,185.56128699262626 31.820974964648485,189.923514286289 34.3641949929297,193.59696417558007 35.6358050070703,194.05614511109889 46.656425130553544,192.44901154376566 46.02062012441456,194.974506782135 43.689335097558796,196.12245849496685 37.33128502685577,194.974506782135 33.304519980214536,193.1377831727732 32.24484496936202,191.98983037495054 29.913559942506254,188.54596947599202 28.43001492600888,184.64292258326896 28.218079924583435,176.37763088569045 27.58227491658181,172.01538487826474 28.43001492600888,170.17864791373722 28.218079924583435,158.92861069436185 27.794209918938577,157.321459247265 25.88679489772767,154.10715390043333 24.403249880298972,152.95918691228144 22.707769862376153,152.95918691228144 22.9197048638016,154.56634057918563 23.76744487415999,155.94390021404251 26.310664902441204,158.46942464984022 26.946469909511507,159.84698258177377 27.370339914225042,164.4388380141463 27.158404911868274,166.96435565524735 29.065819934010506,178.44395583844744 30.54936495050788,182.8061929650139 30.761299951933324,184.18374027917162 31.820974964648485,186.70924212783575 32.03290996700525,189.00515114655718 34.78806499764323,193.82655465137213 36.271610014140606,194.51532598002814 44.3251401046291,192.2194209676236 43.47740009520203,193.59696417558007 40.93418006692082,194.51532598002814 36.271610014140606,194.28573555406183 32.24484496936202,191.53064913861454 29.065819934010506,185.56128699262626 29.065819934010506,184.41333143995143 28.218079924583435,182.57660168758593 28.43001492600888,181.19905367237516 28.218079924583435,179.59191356110387 28.43001492600888,177.98477263236418 28.006144921295345,176.60722261411138 28.43001492600888,175.2296719942242 27.370339914225042,168.11231755209155 27.794209918938577,165.35720829898492 26.946469909511507,159.61738963448443 26.310664902441204,157.55105236149393 23.97937987651676,155.02552719134837 25.250989890657365,155.48471373552456 27.370339914225042,158.01023853896186 28.218079924583435,164.8980231899768 29.27775493543595,178.67354741645977 30.125494945794344,183.4949666969478 32.03290996700525,187.85719684581272 32.668714974075556,192.2194209676236 34.576129995286465,194.05614511109889 35.84774000942707,194.28573555406183 36.695480019785464,193.59696417558007 38.81483004242182,193.82655465137213 41.78192007634789,193.36737368279137 38.60289504099637,194.7449163889978 35.423870004713535,194.05614511109889 31.39710495993495,190.1531050291378 28.853884931653738,183.72455790778622 28.853884931653738,180.96946227783337 28.641949928365648,179.59191356110387 28.853884931653738,178.21436424413696 28.006144921295345,176.83681432553567 27.794209918938577,169.94905571779236 27.370339914225042,167.6531328430865 28.006144921295345,164.4388380141463 26.946469909511507,157.55105236149393 24.403249880298972,154.79593389341608 23.131639866158366,154.56634057918563 26.098729899153113,156.17349342792295 26.946469909511507,157.09186611697078 28.43001492600888,166.96435565524735 29.065819934010506,167.8827252057381 30.33742994721979,175.2296719942242 29.913559942506254,176.37763088569045 31.39710495993495,182.8061929650139 32.24484496936202,188.31637861579657 34.78806499764323,193.82655465137213 35.84774000942707,194.05614511109889 40.51031006220728,193.1377831727732 46.23255512677133,193.36737368279137 46.868360133841634,197.04081956483424 44.749010109342635,197.5 37.7551550315693,194.28573555406183 33.516454983502626,190.61228646617383 30.54936495050788,186.70924212783575 29.48968993872404,184.18374027917162 28.641949928365648,180.05109653342515 28.641949928365648,177.52558935969137 28.006144921295345,174.54089645878412" stroke="#4dd2ff" stroke-linecap="round" stroke-linejoin="round" stroke-width="0.5"><title>2020-12-05 3.7km</title><desc>10997850585</desc></polyline><polyline fill="none" points="88.26575032342225,152.5 90.37791526503861,154.53391080209985 91.31665523909032,156.56782042095438 91.78602522611618,163.17801851104014 92.7247652001679,165.21192310168408 93.66350517515093,180.4661698169075 93.42882018070668,185.04243085416965 94.83693014271557,191.1441029200796 97.65315006487072,196.22882150835358 100.0,197.5 107.74460478685796,196.7372929607518 109.15271474793553,196.22882150835358 98.12252005189657,195.211878382368 95.54098512325436,191.39833902497776 93.19413518719375,184.78819428710267 92.25539521407336,178.43227410013787 92.7247652001679,175.12719103647396 92.25539521407336,167.24582650861703 92.25539521407336,160.1271594071295 92.02071021962911,156.56782042095438 91.0819702455774,155.2966270481702 89.90854527801275,156.31358178332448 92.02071021962911,161.39835102390498 92.7247652001679,169.5339664274361 93.42882018070668,172.83905477798544 93.66350517515093,186.5678498686757 94.3675601547584,189.61868590163067 98.5918900379911,196.22882150835358 107.50991979334503,196.7372929607518 108.21397477388382,195.7203499819152 106.10180983133614,196.22882150835358 99.06126002594829,195.97458575456403 97.18378007691354,195.46611419133842 95.77567011676729,192.415283260867 93.42882018070668,186.3136134124361 92.25539521407336,169.5339664274361 92.49008020758629,164.19497095397674 91.55134023353457,157.07629764080048 89.90854527801275,153.7711943902541 91.31665523909032,156.0593431275338 93.42882018070668,166.22887495323084 93.66350517515093,172.83905477798544 92.95945019461215,184.78819428710267 95.07161513529718,192.415283260867 97.41846507135779,196.22882150835358 98.5918900379911,196.99152865912765 107.97928977943957,196.7372929607518 108.44865976739675,195.46611419133842 100.93873997498304,195.97458575456403 97.65315006487072,195.7203499819152 95.77567011676729,193.43222719966434 93.42882018070668,189.36444966774434 91.55134023353457,158.34749036678113 90.37791526503861,159.36444421461783 92.49008020758629,166.22887495323084 92.49008020758629,172.58481732360087 94.13287516217679,187.33055912703276 96.94909508433193,193.94069905835204 98.5918900379911,196.48305724351667 99.53063001297414,197.2457643384114 101.17342496756464,197.5 106.10180983133614,196.7372929607518 107.74460478685796,196.99152865912765 108.9180297544226,196.48305724351667 97.88783505745232,196.22882150835358 94.83693014271557,189.36444966774434 93.89819016773254,185.8051404445432 92.49008020758629,170.29667940107174 92.49008020758629,164.19497095397674 92.02071021962911,162.41530398419127 92.49008020758629,160.8898744324688 92.02071021962911,157.58477478660643 91.0819702455774,156.0593431275338 92.7247652001679,166.4831128695514 93.42882018070668,177.92379998601973 93.19413518719375,181.2288804051932 93.66350517515093,182.75430108350702 93.89819016773254,188.34750454500318 95.07161513529718,191.39833902497776 97.65315006487072,196.22882150835358 98.82657503243536,197.2457643384114 105.86712483782321,196.48305724351667 107.27523479890078,196.7372929607518 108.68334475997835,196.48305724351667 107.97928977943957,195.7203499819152 97.88783505745232,195.97458575456403 96.0103551093489,193.43222719966434 93.89819016773254,186.5678498686757 92.7247652001679,174.61871644179337 92.25539521407336,168.51701553724706 90.84728525206447,169.02549101947807 92.95945019461215,177.66956290090457 93.42882018070668,184.78819428710267 95.77567011676729,192.1610472293105 98.12252005189657,196.22882150835358 99.53063001297414,196.7372929607518 107.27523479890078,195.7203499819152 111.73424967750907,195.7203499819152 110.09145472198725,195.211878382368 101.64279495552182,195.97458575456403 100.23468499351293,196.48305724351667 97.41846507135779,195.211878382368 94.3675601547584,188.6017408533953 93.42882018070668,180.4661698169075 92.49008020758629,162.92378035420552 91.31665523909032,162.16106577240862 92.7247652001679,169.5339664274361 92.49008020758629,171.31362977344543 92.95945019461215,172.83905477798544 92.95945019461215,174.61871644179337 93.66350517515093,181.48311723140068 93.66350517515093,185.8051404445432 96.47972509730607,192.92375526716933 98.82657503243536,196.7372929607518 101.40810996107757,196.99152865912765 107.74460478685796,196.22882150835358 109.15271474793553,195.211878382368 105.16306985821575,195.211878382368 99.76531500648707,195.7203499819152 98.12252005189657,195.7203499819152 96.94909508433193,194.70340670831501 94.3675601547584,188.85597714292817 93.66350517515093,185.04243085416965 93.19413518719375,180.4661698169075 92.7247652001679,178.94074813998304 92.7247652001679,171.0593922084663 92.25539521407336,163.43225664948113 92.02071021962911,165.46616109251045 92.49008020758629,170.29667940107174 92.25539521407336,172.0763423589524 93.42882018070668,179.1949851324316 93.66350517515093,186.3136134124361 94.13287516217679,189.36444966774434 97.65315006487072,195.97458575456403 98.5918900379911,196.99152865912765 103.75495989620686,197.2457643384114 109.856769727543,195.97458575456403 111.26487968955189,196.48305724351667 109.856769727543,195.7203499819152 108.44865976739675,195.46611419133842 100.46936998702586,196.22882150835358 97.65315006487072,195.7203499819152 96.47972509730607,194.95764255453832 94.13287516217679,189.61868590163067 92.95945019461215,181.9915908279363 92.95945019461215,174.36447911686264 92.02071021962911,166.73735076747835 92.49008020758629,165.21192310168408 91.31665523909032,163.94073287118226 91.0819702455774,165.97463701781817 92.49008020758629,176.90685153589584 93.19413518719375,178.94074813998304 93.89819016773254,186.3136134124361 94.60224514827132,189.61868590163067 97.65315006487072,195.46611419133842 98.82657503243536,196.48305724351667 104.69369987025857,196.48305724351667 108.21397477388382,195.97458575456403 105.86712483782321,194.70340670831501 102.58153492864221,196.22882150835358 99.53063001297414,195.7203499819152 98.5918900379911,195.211878382368" stroke="#4dd2ff" stroke-linecap="round" stroke-linejoin="round" stroke-width="0.5"><title>2020-12-02 3.7km</title><desc>10997850558</desc></polyline></svg>