<?xml version="1.0" encoding="utf-8" ?>
<svg baseProfile="full" height="200mm" version="1.1" viewBox="0,0,200,200" width="200mm" xmlns="http://www.w3.org/2000/svg" xmlns:ev="http://www.w3.org/2001/xml-events" xmlns:xlink="http://www.w3.org/1999/xlink"><defs /><rect fill="none" height="200" width="200" x="0" y="0" /><text alignment-baseline="middle" fill="#FFFFFF" style="dominant-baseline: central; font-size:9.0px; font-family:Arial;" text-anchor="middle" x="100.0" y="100.0">2023</text><line stroke="#FFFFFF" stroke-width="0.3" x1="100.0" x2="100.0" y1="15.0" y2="10.0" /><path d="M 100.0 14.0 a86.0,86.0 0 0,1 42.46469731375804,11.215312516191453" fill="none" id="id37" stroke="none" /><text fill="#FFFFFF" style="font-size:6.75px; font-family:Arial;" text-anchor="middle"><textPath startOffset="22.20632615414155" xlink:href="#id37">January</textPath></text><line stroke="#FFFFFF" stroke-width="0.3" x1="143.23703022742887" x2="145.7803849466894" y1="26.81831364943548" y2="22.513508569990506" /><path d="M 143.74570117128098 25.957352633546492 a86.0,86.0 0 0,1 28.547481713284135,27.462654790039103" fill="none" id="id38" stroke="none" /><text fill="#FFFFFF" style="font-size:6.75px; font-family:Arial;" text-anchor="middle"><textPath startOffset="19.985693538727396" xlink:href="#id38">February</textPath></text><line stroke="#FFFFFF" stroke-width="0.3" x1="172.23445277983987" x2="176.4835382374775" y1="55.19839476539836" y2="52.563006222186495" /><path d="M 173.08426987136738 54.67131705675599 a86.0,86.0 0 0,1 12.851231095245387,41.99856678651699" fill="none" id="id39" stroke="none" /><text fill="#FFFFFF" style="font-size:6.75px; font-family:Arial;" text-anchor="middle"><textPath startOffset="22.20632615414155" xlink:href="#id39">March</textPath></text><line stroke="#FFFFFF" stroke-width="0.3" x1="184.98032266829074" x2="189.97916517819016" y1="98.17113171792111" y2="98.06355123074" /><path d="M 185.9800911702706 98.14961562048488 a86.0,86.0 0 0,1 -9.607161424134198,41.387399972396054" fill="none" id="id40" stroke="none" /><text fill="#FFFFFF" style="font-size:6.75px; font-family:Arial;" text-anchor="middle"><textPath startOffset="21.466115282336823" xlink:href="#id40">April</textPath></text><line stroke="#FFFFFF" stroke-width="0.3" x1="174.80103733775053" x2="179.2010983576182" y1="140.37084112569926" y2="142.7455964860345" /><path d="M 175.68104954172406 140.8457921977663 a86.0,86.0 0 0,1 -30.038265399797805,32.042727171017184" fill="none" id="id41" stroke="none" /><text fill="#FFFFFF" style="font-size:6.75px; font-family:Arial;" text-anchor="middle"><textPath startOffset="22.206326154141568" xlink:href="#id41">May</textPath></text><line stroke="#FFFFFF" stroke-width="0.3" x1="143.8653032363475" x2="146.44561519142675" y1="172.8068346515853" y2="177.08958963109032" /><path d="M 144.38136562736335 173.6633856474863 a86.0,86.0 0 0,1 -40.68145358897372,12.25698825130547" fill="none" id="id42" stroke="none" /><text fill="#FFFFFF" style="font-size:6.75px; font-family:Arial;" text-anchor="middle"><textPath startOffset="21.466115282336833" xlink:href="#id42">June</textPath></text><line stroke="#FFFFFF" stroke-width="0.3" x1="102.19456741930631" x2="102.32365962044197" y1="184.97166512339345" y2="189.96999836594603" /><path d="M 102.22038585953345 185.97133177190398 a86.0,86.0 0 0,1 -42.740103519485714,-10.115201625700543" fill="none" id="id43" stroke="none" /><text fill="#FFFFFF" style="font-size:6.75px; font-family:Arial;" text-anchor="middle"><textPath startOffset="22.20632615414155" xlink:href="#id43">July</textPath></text><path d="M 98.01472825383883 120.90594882070398 l -2.2532212480450404 23.72759708308871 a44.834342225663406,44.834342225663406 0 0,0 -0.7676651436656188,-0.07957163093433471 l 2.6613189883162525 -23.685296083698617" fill="#4dd2ff" stroke="none" /><line stroke="#FFFFFF" stroke-width="0.3" x1="58.666819895761336" x2="56.23545636021788" y1="174.27360380694188" y2="178.64263932499728" /><path d="M 58.180547188652646 175.14741091055294 a86.0,86.0 0 0,1 -31.652253787137756,-30.449443065178592" fill="none" id="id44" stroke="none" /><text fill="#FFFFFF" style="font-size:6.75px; font-family:Arial;" text-anchor="middle"><textPath startOffset="22.20632615414155" xlink:href="#id44">August</textPath></text><line stroke="#FFFFFF" stroke-width="0.3" x1="26.63291911575756" x2="22.317208475507996" y1="142.92168965132927" y2="145.44649492493687" /><path d="M 25.769776987707644 143.4266507060508 a86.0,86.0 0 0,1 -11.730757126820373,-40.83630448921669" fill="none" id="id45" stroke="none" /><text fill="#FFFFFF" style="font-size:6.75px; font-family:Arial;" text-anchor="middle"><textPath startOffset="21.46611528233685" xlink:href="#id45">September</textPath></text><path d="M 79.0095281055655 100.63252640178507 l -62.97141568330351 1.8975792053552267 a84.0,84.0 0 0,0 -0.03111174925997018,-1.4456407368394846 l 62.994749495248485 -0.8133486527256131" fill="#4dd2ff" stroke="none" /><line stroke="#FFFFFF" stroke-width="0.3" x1="15.007084014347285" x2="10.007500721073583" y1="101.09737516637583" y2="101.16192664675087" /><path d="M 14.007167355692545 101.11028546245083 a86.0,86.0 0 0,1 10.666146001902534,-42.60595125391555" fill="none" id="id46" stroke="none" /><text fill="#FFFFFF" style="font-size:6.75px; font-family:Arial;" text-anchor="middle"><textPath startOffset="22.20632615414155" xlink:href="#id46">October</textPath></text><path d="M 79.00175016825051 100.2711162175752 l -44.459622303367404 0.5740347281460502 a65.4633279369325,65.4633279369325 0 0,0 -0.004849594129030429,-1.1268748844974117 l 44.46291619478594 0.19134963455503678" fill="#4dd2ff" stroke="none" /><path d="M 79.00019446554 99.90962569577889 l -3.8028612436673415 -0.01636591055007299 a24.802896459491798,24.802896459491798 0 0,0 0.005512140058880304,-0.4269213221517417 l 3.8020160964907457 0.0818234907622867" fill="#4dd2ff" stroke="none" /><path d="M 81.6062741919709 89.86733742301443 l -13.886893997108478 -7.64995697900663 a36.85457872879566,36.85457872879566 0 0,0 0.31088128596155595,-0.553023118659535 l 13.753155069854492 7.887863607600949" fill="#4dd2ff" stroke="none" /><line stroke="#FFFFFF" stroke-width="0.3" x1="26.266209847984243" x2="21.928928074336255" y1="57.711370442889674" y2="55.22380399835377" /><path d="M 25.398753493254645 57.213857153982495 a86.0,86.0 0 0,1 29.58750427330803,-30.492523968695096" fill="none" id="id47" stroke="none" /><text fill="#FFFFFF" style="font-size:6.75px; font-family:Arial;" text-anchor="middle"><textPath startOffset="21.46611528233685" xlink:href="#id47">November</textPath></text><path d="M 81.78341655067845 89.55222093294921 l -13.061394193461947 -7.491117158197567 a36.057119729710706,36.057119729710706 0 0,0 0.31342277967256477,-0.5357411279471627 l 12.930511739319057 7.714837698498621" fill="#4dd2ff" stroke="none" /><path d="M 81.96595687620814 89.24020034530311 l -13.454129870420918 -8.027248295919785 a36.666854367565286,36.666854367565286 0 0,0 0.3280534601050259,-0.539233632563195 l 13.313960612029675 8.257649701690054" fill="#4dd2ff" stroke="none" /><path d="M 82.15384107792192 88.93136811851018 l -13.323381755966864 -8.263492929613697 a36.67794045188992,36.67794045188992 0 0,0 0.3373888534209056,-0.5336681420034711 l 13.179165306299994 8.491608719331383" fill="#4dd2ff" stroke="none" /><path d="M 82.34701348167596 88.62581576622439 l -24.031956007902853 -15.484286177194027 a49.58842472020835,49.58842472020835 0 0,0 0.46850049103761043,-0.7135583898214417 l 23.76185888150732 15.895662630993135" fill="#4dd2ff" stroke="none" /><path d="M 82.54541684631803 88.32363383020206 l -15.691555996257204 -10.496976752351607 a39.87886253255438,39.87886253255438 0 0,0 0.38658860707560033,-0.567271078354857 l 15.508542923512865 10.76552585397688" fill="#4dd2ff" stroke="none" /><path d="M 82.7489923806493 88.02491185347247 l -15.423848210945128 -10.706733540453943 a39.77576194833532,39.77576194833532 0 0,0 0.39527140744298506,-0.5590833741076147 l 15.237264183698265 10.970643414893344" fill="#4dd2ff" stroke="none" /><path d="M 82.95767976084542 87.72973835380427 l -15.350323850238727 -11.052044988776215 a39.91507707468149,39.91507707468149 0 0,0 0.40625449025044696,-0.5541306681436355 l 15.157806747474647 11.314638100591353" fill="#4dd2ff" stroke="none" /><path d="M 83.17141714833178 87.43820079747576 l -15.003522034556383 -11.199471327442286 a39.72254874357711,39.72254874357711 0 0,0 0.41372748218290045,-0.5444168699623567 l 14.808518612149372 11.45607297328567" fill="#4dd2ff" stroke="none" /><path d="M 83.39014120810768 87.1503855733568 l -15.09086399810292 -11.67449923386386 a40.079520658830155,40.079520658830155 0 0,0 0.42683910700461913,-0.5420423197058915 l 14.88767081050433 11.932533947522801" fill="#4dd2ff" stroke="none" /><path d="M 85.31137513191541 84.99185889309783 l -28.467417267392207 -29.086658494928177 a61.6992327725769,61.6992327725769 0 0,0 0.7654135235006448,-0.7363272031712725 l 27.962520500279133 29.572368784861762" fill="#4dd2ff" stroke="none" /><path d="M 85.57189188830299 84.74124197986013 l -41.36744856534176 -43.74904060064526 a81.2100021116351,81.2100021116351 0 0,0 1.0239889674363838,-0.951686146882933 l 40.60825171411052 44.45463133360284" fill="#4dd2ff" stroke="none" /><line stroke="#FFFFFF" stroke-width="0.3" x1="56.762969772571076" x2="54.21961505331055" y1="26.818313649435495" y2="22.513508569990535" /><path d="M 56.25429882871897 25.957352633546506 a86.0,86.0 0 0,1 42.265352541879196,-11.944610805530505" fill="none" id="id48" stroke="none" /><text fill="#FFFFFF" style="font-size:6.75px; font-family:Arial;" text-anchor="middle"><textPath startOffset="22.20632615414155" xlink:href="#id48">December</textPath></text><path d="M 89.63071344664047 81.73862282372117 l -5.639535783499027 -9.93180095001143 a32.42125360737664,32.42125360737664 0 0,0 0.4876710960312536,-0.27138843695110165 l 5.467740598395729 10.027404784522718" fill="#4dd2ff" stroke="none" /><path d="M 91.90106846888425 80.62456947434976 l -7.405588427383825 -17.716715288314973 a40.20220665868938,40.20220665868938 0 0,0 0.6407774784192739,-0.2613892224115309 l 7.099527079376171 17.84156539691008" fill="#4dd2ff" stroke="none" /><path d="M 93.25333710446033 80.11325718540243 l -3.609704465032793 -10.640114297139425 a32.23574646301119,32.23574646301119 0 0,0 0.5270040713614399,-0.17374495656532432 l 3.426017571428944 10.700672977963983" fill="#4dd2ff" stroke="none" /><path d="M 93.94186890950719 79.89281104454417 l -5.475429877347283 -18.173179403289247 a39.98011543605264,39.98011543605264 0 0,0 0.6606424358503385,-0.19285964303311698 l 5.161797223773523 18.26473737524106" fill="#4dd2ff" stroke="none" /><path d="M 94.63758080256005 79.69619591428918 l -2.0955973382266913 -7.934590010830329 a29.206658689378475,29.206658689378475 0 0,0 0.4871825204809669,-0.12419367204191119 l 1.958705929060725 7.969486679041103" fill="#4dd2ff" stroke="none" /><path d="M 94.98787191387505 79.60689891045804 l -2.802145446334126 -11.401232046101171 a32.74053283592595,32.74053283592595 0 0,0 0.5484449489478153,-0.1297991998703275 l 2.6054768104237764 11.44777715811237" fill="#4dd2ff" stroke="none" /><path d="M 95.692805502759 79.44645832069477 l -3.8671372851099894 -18.45362855566817 a39.85447314704019,39.85447314704019 0 0,0 0.672655429347669,-0.13492835111340942 l 3.5489154462951844 18.51746086285879" fill="#4dd2ff" stroke="none" /><path d="M 97.83486435360386 79.11191278185805 l -1.1792651250660495 -11.376928196943926 a32.43788273386359,32.43788273386359 0 0,0 0.5558847107767132,-0.05278795140524833 l 0.9832552871990999 11.395541692864354" fill="#4dd2ff" stroke="none" /><path d="M 98.19473922651362 79.07773832637324 l -1.605286877359528 -18.60464294279899 a39.67376997254874,39.67376997254874 0 0,0 0.6808959963375526,-0.0528506339513006 l 1.2848006916596413 18.62951883893875" fill="#4dd2ff" stroke="none" /><path d="M 98.91598698831166 79.02799685794201 l -0.9656314964047129 -18.681719276716752 a39.70665868937847,39.70665868937847 0 0,0 0.68287732385034,-0.029406134035607847 l 0.6439133401650488 18.69557313727655" fill="#4dd2ff" stroke="none" /><path d="M 99.27714615592234 79.0124445844662 l -0.9092531583437642 -26.3995290387342 a47.41518265643697,47.41518265643697 0 0,0 0.8159325761621925,-0.02107313120669097 l 0.45469394698669263 26.411268962083252" fill="#4dd2ff" stroke="none" /><path d="M 99.63851952072746 79.00311137660856 l -0.3993472578519284 -23.196411358223727 a44.19984866615049,44.19984866615049 0 0,0 0.7608277371244584,-0.006548684535319169 l 5.682324081940837e-15 23.199848666150487" fill="#4dd2ff" stroke="none" /></svg>