<?xml version="1.0" encoding="utf-8" ?>
<svg baseProfile="full" height="200mm" version="1.1" viewBox="0,0,200,200" width="200mm" xmlns="http://www.w3.org/2000/svg" xmlns:ev="http://www.w3.org/2001/xml-events" xmlns:xlink="http://www.w3.org/1999/xlink"><defs /><rect fill="#1a1a1a" height="200" width="200" x="0" y="0" /><text alignment-baseline="middle" fill="#e1ed5e" style="dominant-baseline: central; font-size:9.0px; font-family:Arial;" text-anchor="middle" x="100.0" y="100.0">2023</text><line stroke="#e1ed5e" stroke-width="0.3" x1="100.0" x2="100.0" y1="15.0" y2="10.0" /><path d="M 100.0 14.0 a86.0,86.0 0 0,1 42.46469731375804,11.215312516191453" fill="none" id="id25" stroke="none" /><text fill="#e1ed5e" style="font-size:6.75px; font-family:Arial;" text-anchor="middle"><textPath startOffset="22.20632615414155" xlink:href="#id25">January</textPath></text><line stroke="#e1ed5e" stroke-width="0.3" x1="143.23703022742887" x2="145.7803849466894" y1="26.81831364943548" y2="22.513508569990506" /><path d="M 143.74570117128098 25.957352633546492 a86.0,86.0 0 0,1 28.547481713284135,27.462654790039103" fill="none" id="id26" stroke="none" /><text fill="#e1ed5e" style="font-size:6.75px; font-family:Arial;" text-anchor="middle"><textPath startOffset="19.985693538727396" xlink:href="#id26">February</textPath></text><line stroke="#e1ed5e" stroke-width="0.3" x1="172.23445277983987" x2="176.4835382374775" y1="55.19839476539836" y2="52.563006222186495" /><path d="M 173.08426987136738 54.67131705675599 a86.0,86.0 0 0,1 12.851231095245387,41.99856678651699" fill="none" id="id27" stroke="none" /><text fill="#e1ed5e" style="font-size:6.75px; font-family:Arial;" text-anchor="middle"><textPath startOffset="22.20632615414155" xlink:href="#id27">March</textPath></text><line stroke="#e1ed5e" stroke-width="0.3" x1="184.98032266829074" x2="189.97916517819016" y1="98.17113171792111" y2="98.06355123074" /><path d="M 185.9800911702706 98.14961562048488 a86.0,86.0 0 0,1 -9.607161424134198,41.387399972396054" fill="none" id="id28" stroke="none" /><text fill="#e1ed5e" style="font-size:6.75px; font-family:Arial;" text-anchor="middle"><textPath startOffset="21.466115282336823" xlink:href="#id28">April</textPath></text><line stroke="#e1ed5e" stroke-width="0.3" x1="174.80103733775053" x2="179.2010983576182" y1="140.37084112569926" y2="142.7455964860345" /><path d="M 175.68104954172406 140.8457921977663 a86.0,86.0 0 0,1 -30.038265399797805,32.042727171017184" fill="none" id="id29" stroke="none" /><text fill="#e1ed5e" style="font-size:6.75px; font-family:Arial;" text-anchor="middle"><textPath startOffset="22.206326154141568" xlink:href="#id29">May</textPath></text><line stroke="#e1ed5e" stroke-width="0.3" x1="143.8653032363475" x2="146.44561519142675" y1="172.8068346515853" y2="177.08958963109032" /><path d="M 144.38136562736335 173.6633856474863 a86.0,86.0 0 0,1 -40.68145358897372,12.25698825130547" fill="none" id="id30" stroke="none" /><text fill="#e1ed5e" style="font-size:6.75px; font-family:Arial;" text-anchor="middle"><textPath startOffset="21.466115282336833" xlink:href="#id30">June</textPath></text><line stroke="#e1ed5e" stroke-width="0.3" x1="102.19456741930631" x2="102.32365962044197" y1="184.97166512339345" y2="189.96999836594603" /><path d="M 102.22038585953345 185.97133177190398 a86.0,86.0 0 0,1 -42.740103519485714,-10.115201625700543" fill="none" id="id31" stroke="none" /><text fill="#e1ed5e" style="font-size:6.75px; font-family:Arial;" text-anchor="middle"><textPath startOffset="22.20632615414155" xlink:href="#id31">July</textPath></text><line stroke="#e1ed5e" stroke-width="0.3" x1="58.666819895761336" x2="56.23545636021788" y1="174.27360380694188" y2="178.64263932499728" /><path d="M 58.180547188652646 175.14741091055294 a86.0,86.0 0 0,1 -31.652253787137756,-30.449443065178592" fill="none" id="id32" stroke="none" /><text fill="#e1ed5e" style="font-size:6.75px; font-family:Arial;" text-anchor="middle"><textPath startOffset="22.20632615414155" xlink:href="#id32">August</textPath></text><line stroke="#e1ed5e" stroke-width="0.3" x1="26.63291911575756" x2="22.317208475507996" y1="142.92168965132927" y2="145.44649492493687" /><path d="M 25.769776987707644 143.4266507060508 a86.0,86.0 0 0,1 -11.730757126820373,-40.83630448921669" fill="none" id="id33" stroke="none" /><text fill="#e1ed5e" style="font-size:6.75px; font-family:Arial;" text-anchor="middle"><textPath startOffset="21.46611528233685" xlink:href="#id33">September</textPath></text><line stroke="#e1ed5e" stroke-width="0.3" x1="15.007084014347285" x2="10.007500721073583" y1="101.09737516637583" y2="101.16192664675087" /><path d="M 14.007167355692545 101.11028546245083 a86.0,86.0 0 0,1 10.666146001902534,-42.60595125391555" fill="none" id="id34" stroke="none" /><text fill="#e1ed5e" style="font-size:6.75px; font-family:Arial;" text-anchor="middle"><textPath startOffset="22.20632615414155" xlink:href="#id34">October</textPath></text><path d="M 79.00019446554 99.90962569577889 l -12.477916896291337 -0.05369969049383809 a33.47803244616362,33.47803244616362 0 0,0 0.007440082816149211,-0.5762426133696777 l 12.475143806357472 0.2684785619239878" fill="#ff0000" stroke="none" /><path d="M 81.6062741919709 89.86733742301443 l -45.561134580433034 -25.09853675902019 a73.01685814906759,73.01685814906759 0 0,0 0.615922784663897,-1.0956579074059 l 45.12235415447671 25.879078176360878" fill="#3cffa7" stroke="none" /><line stroke="#e1ed5e" stroke-width="0.3" x1="26.266209847984243" x2="21.928928074336255" y1="57.711370442889674" y2="55.22380399835377" /><path d="M 25.398753493254645 57.213857153982495 a86.0,86.0 0 0,1 29.58750427330803,-30.492523968695096" fill="none" id="id35" stroke="none" /><text fill="#e1ed5e" style="font-size:6.75px; font-family:Arial;" text-anchor="middle"><textPath startOffset="21.46611528233685" xlink:href="#id35">November</textPath></text><path d="M 81.78341655067845 89.55222093294921 l -42.85277462190725 -24.577403490909955 a70.40049650713007,70.40049650713007 0 0,0 0.6119490261839255,-1.0460192519396434 l 42.423365921253 25.31140215520349" fill="#38ff83" stroke="none" /><path d="M 81.96595687620814 89.24020034530311 l -44.14129047262167 -26.33638162695743 a72.40095837422783,72.40095837422783 0 0,0 0.6477617270216411,-1.0647499617454614 l 43.68141294731381 27.092299361909962" fill="#3bff9e" stroke="none" /><path d="M 82.15384107792192 88.93136811851018 l -43.712322523415786 -27.111470250221533 a72.43733040817506,72.43733040817506 0 0,0 0.666328249355838,-1.0539712714057368 l 43.239166677813984 27.859889169341486" fill="#3bff9f" stroke="none" /><path d="M 82.54541684631803 88.32363383020206 l -51.48200127910076 -34.43924686118798 a82.93914900987241,82.93914900987241 0 0,0 0.8040181703173686,-1.1797974543094583 l 50.88155864311465 35.32032233876785" fill="#4bdeff" stroke="none" /><path d="M 82.7489923806493 88.02491185347247 l -50.60368605343743 -35.12743222890807 a82.60088909416314,82.60088909416314 0 0,0 0.8208458641395862,-1.1610282623633394 l 49.99152756949397 35.99328699160319" fill="#4be2ff" stroke="none" /><path d="M 82.95767976084542 87.72973835380427 l -50.3624619687874 -36.26035521171843 a83.0579643207667,83.0579643207667 0 0,0 0.8453615382788822,-1.153072188175991 l 49.73083781799488 37.121889843565924" fill="#4cddff" stroke="none" /><path d="M 83.17141714833178 87.43820079747577 l -49.224649280051395 -36.7440422952422 a82.42630333121645,82.42630333121645 0 0,0 0.8585055093772724,-1.1296926174558448 l 48.584867830450015 37.585919688579075" fill="#4be4ff" stroke="none" /><path d="M 83.39014120810768 87.1503855733568 l -49.51120716380075 -38.30254849385229 a83.59748282431731,83.59748282431731 0 0,0 0.8902969479178171,-1.1305867127850273 l 48.84455613528896 39.14912760059037" fill="#4cd6ff" stroke="none" /><line stroke="#e1ed5e" stroke-width="0.3" x1="56.76296977257108" x2="54.21961505331056" y1="26.818313649435495" y2="22.513508569990535" /><path d="M 56.25429882871898 25.957352633546506 a86.0,86.0 0 0,1 42.26535254187918,-11.944610805530505" fill="none" id="id36" stroke="none" /><text fill="#e1ed5e" style="font-size:6.75px; font-family:Arial;" text-anchor="middle"><textPath startOffset="22.20632615414155" xlink:href="#id36">December</textPath></text><path d="M 91.90106846888425 80.62456947434976 l -24.29679459334727 -58.12629157695071 a84.0,84.0 0 0,0 1.338864521646478,-0.5461564552656921 l 23.29264620211241 58.53590891839998" fill="#4dd2ff" stroke="none" /><path d="M 93.25333710446033 80.11325718540243 l -11.842981660347762 -34.90886295697935 a57.86305640551931,57.86305640551931 0 0,0 0.9459705343605319,-0.31187161226279103 l 11.240328303744821 35.107548293501374" fill="#83ff25" stroke="none" /><path d="M 93.94186890950719 79.89281104454417 l -17.96418965821208 -59.6238923347452 a83.27134691992379,83.27134691992379 0 0,0 1.3759986649790574,-0.4016917426751924 l 16.935200775509603 59.92428240633909" fill="#4cdaff" stroke="none" /><path d="M 94.98787191387505 79.60689891045804 l -9.193483137479115 -37.405993575188354 a59.519196351249924,59.519196351249924 0 0,0 0.9970211165426522,-0.23596268582531965 l 8.548238333973929 37.55870217315455" fill="#6dff28" stroke="none" /><path d="M 95.692805502759 79.44645832069477 l -12.687586030727468 -60.54401036669422 a82.85913053518848,82.85913053518848 0 0,0 1.3984790068580042,-0.2805217325682808 l 11.643540614402328 60.75343605533972" fill="#4bdfff" stroke="none" /><path d="M 97.83486435360386 79.11191278185805 l -3.869019024724522 -37.32625573442233 a58.526239824490496,58.526239824490496 0 0,0 1.0029582437488032,-0.095242970360758 l 3.2259356538854824 37.387324249298274" fill="#7aff26" stroke="none" /><path d="M 98.19473922651362 79.07773832637324 l -5.266742258910414 -61.039469381293294 a82.26626638184862,82.26626638184862 0 0,0 1.411884261359516,-0.1095893920364925 l 4.215267808188563 61.12108403551825" fill="#4ae5ff" stroke="none" /><path d="M 98.91598698831166 79.02799685794201 l -3.1681142357650844 -61.292347038696356 a82.37417008255873,82.37417008255873 0 0,0 1.4166755571255787,-0.061005029546030445 l 2.1125978462501815 61.337799794766575" fill="#4be4ff" stroke="none" /><path d="M 99.63851952072746 79.00311137660856 l -1.065867589509063 -61.91178873404948 a82.9209629928988,82.9209629928988 0 0,0 1.4273480687815836,-0.01228563545787052 l 1.5166261825875042e-14 61.920962992898794" fill="#4bdeff" stroke="none" /></svg>