<?xml version="1.0" encoding="utf-8" ?>
<svg baseProfile="full" height="200mm" version="1.1" viewBox="0,0,200,200" width="200mm" xmlns="http://www.w3.org/2000/svg" xmlns:ev="http://www.w3.org/2001/xml-events" xmlns:xlink="http://www.w3.org/1999/xlink"><defs /><rect fill="none" height="200" width="200" x="0" y="0" /><text alignment-baseline="middle" fill="#FFFFFF" style="dominant-baseline: central; font-size:9.0px; font-family:Arial;" text-anchor="middle" x="100.0" y="100.0">2025</text><line stroke="#FFFFFF" stroke-width="0.3" x1="100.0" x2="100.0" y1="15.0" y2="10.0" /><path d="M 100.0 14.0 a86.0,86.0 0 0,1 42.46469731375804,11.215312516191453" fill="none" id="id61" stroke="none" /><text fill="#FFFFFF" style="font-size:6.75px; font-family:Arial;" text-anchor="middle"><textPath startOffset="22.20632615414155" xlink:href="#id61">January</textPath></text><path d="M 100.0 79.0 l 0.0 -50.42089593989769 a71.42089593989769,71.42089593989769 0 0,0 1.2293933187822663,0.010581776428081656 l -0.867912839509738 50.413425540078165" fill="#4dd2ff" stroke="none" /><path d="M 101.08401301168833 79.027996857942 l 2.1736358253672927 -42.0525370708366 a63.1086756713555,63.1086756713555 0 0,0 1.0843812014141594,0.06541283538591203 l -2.897179075621064 42.00889096607038" fill="#4dd2ff" stroke="none" /><path d="M 102.16513564639614 79.11191278185805 l 4.3325208742663 -41.797877212325744 a63.021819053708434,63.021819053708434 0 0,0 1.0780731337846328,0.12113407793577442 l -5.051360711560657 41.71710718091937" fill="#4dd2ff" stroke="none" /><path d="M 103.2404852339499 79.25152402106235 l 6.497481092393441 -41.60266769825712 a63.1069972826087,63.1069972826087 0 0,0 1.0718296580466615,0.17686107736859397 l -7.212639956578977 41.484660357948904" fill="#4dd2ff" stroke="none" /><path d="M 103.95276090670814 79.375362276772 l 7.912314041636705 -41.28471580060001 a63.036085358056276,63.036085358056276 0 0,0 1.0639098126948883,0.21341029968272449 l -8.621790263798719 41.14240154484008" fill="#4dd2ff" stroke="none" /><path d="M 104.66035177308747 79.52364482259891 l 9.326569957654021 -40.97848581788115 a63.026434622762146,63.026434622762146 0 0,0 1.0557717521663248,0.24986706312053514 l -10.030565396782869 40.81187284261974" fill="#4dd2ff" stroke="none" /><path d="M 105.36241919743992 79.69619591428918 l 10.737374421216579 -40.65507350626077 a63.049092870843985,63.049092870843985 0 0,0 1.0469215126949325,0.2861631971087814 l -11.435593823135221 40.464223768325695" fill="#4dd2ff" stroke="none" /><line stroke="#FFFFFF" stroke-width="0.3" x1="143.23703022742887" x2="145.7803849466894" y1="26.81831364943548" y2="22.513508569990506" /><path d="M 143.74570117128098 25.957352633546492 a86.0,86.0 0 0,1 28.547481713284135,27.462654790039103" fill="none" id="id62" stroke="none" /><text fill="#FFFFFF" style="font-size:6.75px; font-family:Arial;" text-anchor="middle"><textPath startOffset="19.985693538727396" xlink:href="#id62">February</textPath></text><path d="M 111.2981086023043 82.29822771554956 l 18.099819203875352 -28.35862967996059 a54.64246323529412,54.64246323529412 0 0,0 0.7884984834602049,0.5128613471547576 l -18.58528471311984 28.042869408646304" fill="#4dd2ff" stroke="none" /><path d="M 111.90073688211348 82.69761687909136 l 23.806942852867618 -34.612717704648574 a63.009650735294116,63.009650735294116 0 0,0 0.8883426423062237,0.6223407911738348 l -24.39921663475749 34.197792070710804" fill="#4dd2ff" stroke="none" /><path d="M 112.77801427241765 83.33499621200491 l 25.581815378305453 -33.36363859786095 a63.042379315856785,63.042379315856785 0 0,0 0.8554774166814137,0.6677136930777794 l -26.152325350146295 32.918346515559946" fill="#4dd2ff" stroke="none" /><path d="M 113.6212207817346 84.01681056812373 l 27.356205755580092 -32.09987017574351 a63.17539162404092,63.17539162404092 0 0,0 0.8215995821640404,0.7124830614759322 l -27.904699136390896 31.624222120847907" fill="#4dd2ff" stroke="none" /><path d="M 115.19652480421416 85.50635884689758 l 21.316065263455933 -20.33013499500671 a50.45656170076727,50.45656170076727 0 0,0 0.5940243273068222,0.6336637352224647 l -21.662856912733215 19.960201842906187" fill="#4dd2ff" stroke="none" /><path d="M 115.68641384162765 86.03803664274999 l 31.400095865884424 -27.94819723104576 a63.03650495524296,63.03650495524296 0 0,0 0.7144381462363387,0.8167263042694003 l -31.87652587569861 27.40355537057341" fill="#4dd2ff" stroke="none" /><path d="M 116.82858285166822 87.43820079747576 l 33.74862539274765 -25.19186905288829 a63.1141304347826,63.1141304347826 0 0,0 0.6423737786954598,0.8761971122264346 l -34.17726178395674 24.60720949699036" fill="#4dd2ff" stroke="none" /><path d="M 117.2510076193507 88.02491185347247 l 20.754773852780605 -14.407288654229184 a46.2652054028133,46.2652054028133 0 0,0 0.44849828146778675,0.6581158862728124 l -20.999696599917122 14.047894744685966" fill="#4dd2ff" stroke="none" /><line stroke="#FFFFFF" stroke-width="0.3" x1="172.23445277983987" x2="176.4835382374775" y1="55.19839476539836" y2="52.563006222186495" /><path d="M 173.08426987136738 54.67131705675599 a86.0,86.0 0 0,1 12.851231095245387,41.99856678651699" fill="none" id="id63" stroke="none" /><text fill="#FFFFFF" style="font-size:6.75px; font-family:Arial;" text-anchor="middle"><textPath startOffset="22.20632615414155" xlink:href="#id63">March</textPath></text><path d="M 117.84615892207809 88.93136811851018 l 35.71157321064019 -22.14920642046046 a63.02265824808184,63.02265824808184 0 0,0 0.5638553254676658,0.9268298992935338 l -36.087544334394074 21.531208747959845" fill="#4dd2ff" stroke="none" /><path d="M 118.3937258080291 89.86733742301442 l 25.753715278769004 -14.187104328238652 a50.40285326086956,50.40285326086956 0 0,0 0.41208388957959496,0.763528862694581 l -25.994107267567063 13.741694482211612" fill="#4dd2ff" stroke="none" /><path d="M 118.73160827565052 90.50648371742162 l 23.06082248849518 -11.687639980639938 a46.853480658567776,46.853480658567776 0 0,0 0.3584067869561938,0.7225262122250992 l -23.25858928840478 11.288954179915889" fill="#4dd2ff" stroke="none" /><path d="M 119.196687751892 91.48605970444005 l 38.42482787741842 -17.041830061712837 a63.03440696930946,63.03440696930946 0 0,0 0.43136332766890667,0.9956460339141026 l -38.71248191493001 16.37788488321213" fill="#4dd2ff" stroke="none" /><path d="M 119.47837535516314 92.15188598940014 l 27.308567046549935 -11.00300942658567 a50.44187579923273,50.44187579923273 0 0,0 0.31755911127260594,0.8081533003607192 l -27.49391970770424 10.531307121329167" fill="#4dd2ff" stroke="none" /><path d="M 120.08093135843002 93.85539295169968 l 32.53240879701215 -9.954661206906128 a55.02135949488491,55.02135949488491 0 0,0 0.26932720423672457,0.908037442961043 l -32.69894189836058 9.393194377198556" fill="#4dd2ff" stroke="none" /><path d="M 120.28053869075195 94.5502522615342 l 40.64293217721066 -10.921491341764755 a63.08475863171355,63.08475863171355 0 0,0 0.2727774993731512,1.051122978029742 l -40.824906008454114 10.220271938186162" fill="#4dd2ff" stroke="none" /><path d="M 120.45610955862082 95.25157060432595 l 28.67852715754137 -6.657080173982377 a50.441036604859335,50.441036604859335 0 0,0 0.18904727172562452,0.8474618507011308 l -28.788868816269034 6.162440153731282" fill="#4dd2ff" stroke="none" /><path d="M 120.73433829027371 96.67025291283417 l 41.59959191981627 -6.680517993056574 a63.13259271099745,63.13259271099745 0 0,0 0.1630748136413631,1.0744592700904596 l -41.70842262689693 5.9634596105740325" fill="#4dd2ff" stroke="none" /><path d="M 120.83666639777658 97.38593545837742 l 25.587033317506258 -3.2100219509079357 a46.78760390025576,46.78760390025576 0 0,0 0.09337390301274408,0.7999705785315893 l -25.638497573522592 2.7691076340514935" fill="#4dd2ff" stroke="none" /><path d="M 120.94382443527127 98.46500227214037 l 41.9286593963309 -3.0730011657842087 a63.04112052429667,63.04112052429667 0 0,0 0.07000388919266713,1.082929181355808 l -41.97534387652799 2.3508129201753656" fill="#4dd2ff" stroke="none" /><line stroke="#FFFFFF" stroke-width="0.3" x1="184.98032266829074" x2="189.97916517819016" y1="98.17113171792111" y2="98.06355123074" /><path d="M 185.9800911702706 98.14961562048488 a86.0,86.0 0 0,1 -9.607161424134198,41.387399972396054" fill="none" id="id64" stroke="none" /><text fill="#FFFFFF" style="font-size:6.75px; font-family:Arial;" text-anchor="middle"><textPath startOffset="21.466115282336823" xlink:href="#id64">April</textPath></text><path d="M 120.99513854157772 99.54816195383933 l 21.040025047011472 -0.4528040522136404 a42.04489689897699,42.04489689897699 0 0,0 0.009343963550662337,0.7237002744079175 l -21.04470201767985 0.09056751974526013" fill="#4dd2ff" stroke="none" /><path d="M 120.99980553446 99.90962569577887 l 21.018687233010404 -0.09045556308641843 a42.01888187340154,42.01888187340154 0 0,0 -0.003112804210595404,0.7233060730339836 l -21.017130131510307 -0.27135998815124995" fill="#4dd2ff" stroke="none" /><path d="M 120.8583938346157 102.4346265915055 l 41.85432103650729 4.88530630751543 a63.13846707161126,63.13846707161126 0 0,0 -0.13529217746143254,1.0784117695284237 l -41.76402734979901 -5.605035831331248" fill="#4dd2ff" stroke="none" /><path d="M 120.76222939487914 103.15116336523771 l 41.561380113610284 6.307930421721935 a63.03734414961637,63.03734414961637 0 0,0 -0.1720566655418909,1.0713970205702674 l -41.44664169370711 -7.022406671985407" fill="#4dd2ff" stroke="none" /><path d="M 120.5718875245553 104.21870165774334 l 41.19556648589316 8.448024247569387 a63.052869245524306,63.052869245524306 0 0,0 -0.22718837917355217,1.0613484725929565 l -41.044044067995166 -9.155886539578514" fill="#4dd2ff" stroke="none" /><path d="M 120.41448212921028 104.9243191809786 l 41.06758462378159 9.906197639468244 a63.245464354219955,63.245464354219955 0 0,0 -0.26439219964074034,1.0561154111147282 l -40.89098110984579 -10.61164088998037" fill="#4dd2ff" stroke="none" /><path d="M 120.23288151984713 105.62410040840565 l 28.329187430132823 7.874617089974155 a50.40327285805627,50.40327285805627 0 0,0 -0.239553226489192,0.8339162078397359 l -28.18944156675753 -8.361090773318473" fill="#4dd2ff" stroke="none" /><path d="M 120.02730092923936 106.31721596034902 l 40.08141270331285 12.64288887141222 a63.02811301150895,63.02811301150895 0 0,0 -0.33527279177186947,1.0318635516990768 l -39.85784766052473 -13.330951323089092" fill="#4dd2ff" stroke="none" /><path d="M 119.79798401119884 107.00284435728193 l 23.774353402194894 8.40934594534534 a46.21779092071611,46.21779092071611 0 0,0 -0.27175123279244495,0.7477426801344443 l -23.62607790839722 -8.817336422485916" fill="#4dd2ff" stroke="none" /><path d="M 119.26925614724726 108.34839909993367 l 38.55583799235712 16.704304552958316 a63.01888187340154,63.01888187340154 0 0,0 -0.43980852232446566,0.9916521117826833 l -38.26258838530138 -17.36550500123369" fill="#4dd2ff" stroke="none" /><path d="M 118.64920377521936 109.65438752849418 l 37.39789878701127 19.36028004160529 a63.1120324488491,63.1120324488491 0 0,0 -0.5077437896696293,0.9604599018118495 l -37.059102489116746 -20.001154958503275" fill="#4dd2ff" stroke="none" /><line stroke="#FFFFFF" stroke-width="0.3" x1="174.80103733775053" x2="179.2010983576182" y1="140.37084112569926" y2="142.7455964860345" /><path d="M 175.68104954172406 140.8457921977663 a86.0,86.0 0 0,1 -30.038265399797805,32.042727171017184" fill="none" id="id65" stroke="none" /><text fill="#FFFFFF" style="font-size:6.75px; font-family:Arial;" text-anchor="middle"><textPath startOffset="22.206326154141568" xlink:href="#id65">May</textPath></text><path d="M 118.30583269289576 110.29060199501025 l 18.352650679322608 10.316920670189301 a42.053708439897704,42.053708439897704 0 0,0 -0.3601559770145443,0.6279623035625046 l -18.172342706155685 -10.631302819610122" fill="#4dd2ff" stroke="none" /><path d="M 117.75023020441432 111.22182372390056 l 35.506489698979614 22.44745920857688 a63.00713315217391,63.00713315217391 0 0,0 -0.5874519163690606,0.9117384198008851 l -35.1148329192335 -23.05531922829922" fill="#4dd2ff" stroke="none" /><path d="M 117.35343817320211 111.8261652097733 l 17.379790101374322 11.844123740702454 a42.031889386189256,42.031889386189256 0 0,0 -0.41259121658716613,0.5943684200008367 l -17.173337977625017 -12.14153342289031" fill="#4dd2ff" stroke="none" /><path d="M 117.14729908036423 112.12312394758627 l 17.168883955725153 12.13838443369357 a42.02643462276215,42.02643462276215 0 0,0 -0.4227062974634751,0.5871020762392134 l -16.957397865886076 -12.432120115383915" fill="#4dd2ff" stroke="none" /><path d="M 115.80600337817218 113.82643327865902 l 12.198427119603188 10.670675858939514 a37.206941336317136,37.206941336317136 0 0,0 -0.42582662294463114,0.478420725035329 l -12.01294164701022 -10.87907075371571" fill="#4dd2ff" stroke="none" /><path d="M 114.81725581225074 114.88116024355365 l 20.79916625195914 20.88886969689847 a50.477961157289,50.477961157289 0 0,0 -0.6209992223313534,0.6077784420618539 l -20.43651707725199 -21.243798241882896" fill="#4dd2ff" stroke="none" /><path d="M 114.55890576462653 115.13401014063108 l 14.58421396478483 15.16031806267062 a42.03650495524297,42.03650495524297 0 0,0 -0.5257849285331226,0.4971624677686092 l -14.3210932018609 -15.409115167185151" fill="#4dd2ff" stroke="none" /><path d="M 112.92097659922987 116.55440617244103 l 25.841953198459766 33.108812344882075 a63.00000000000001,63.00000000000001 0 0,0 -0.8606138145195189,0.6598819745178858 l -25.26821065544675 -33.54873366122733" fill="#4dd2ff" stroke="none" /><path d="M 112.34349029814194 116.9893568818739 l 24.67292251310385 33.95936447222232 a62.976082960358056,62.976082960358056 0 0,0 -0.882482867350233,0.6296280944810314 l -24.08471231790473 -34.37903682854757" fill="#4dd2ff" stroke="none" /><path d="M 111.45004920935366 117.60387380957326 l 22.90650429662178 35.2175963337139 a63.01174872122762,63.01174872122762 0 0,0 -0.9143250723906721,0.583565520993266 l -22.296897422184177 -35.60667628353097" fill="#4dd2ff" stroke="none" /><line stroke="#FFFFFF" stroke-width="0.3" x1="143.8653032363475" x2="146.44561519142675" y1="172.8068346515853" y2="177.08958963109032" /><path d="M 144.38136562736335 173.6633856474863 a86.0,86.0 0 0,1 -40.68145358897372,12.25698825130547" fill="none" id="id66" stroke="none" /><text fill="#FFFFFF" style="font-size:6.75px; font-family:Arial;" text-anchor="middle"><textPath startOffset="21.466115282336833" xlink:href="#id66">June</textPath></text><path d="M 110.5260780823613 118.17145234162733 l 8.534561271262366 14.733443185959386 a38.02683423913044,38.02683423913044 0 0,0 -0.5692277253882772,0.3232223584065339 l -8.27968477895289 -14.878168710160548" fill="#4dd2ff" stroke="none" /><path d="M 110.21172684928248 118.3499491758327 l 20.42243350526562 36.698065116653424 a62.9979020140665,62.9979020140665 0 0,0 -0.9520998571142294,0.519160755383628 l -19.78771083628274 -37.044166523796825" fill="#4dd2ff" stroke="none" /><path d="M 109.57404056367764 118.69057910512821 l 19.136794594561618 37.3591244792941 a62.975243765984665,62.975243765984665 0 0,0 -0.9690573302715972,0.48590546269835755 l -18.49088335660726 -37.68299778290176" fill="#4dd2ff" stroke="none" /><path d="M 108.2653958097858 119.30500536409082 l 16.524515943405284 38.59535299552827 a62.98405530690537,62.98405530690537 0 0,0 -1.0003323829258732,0.4181390171923734 l -15.85771210098195 -38.87407705574062" fill="#4dd2ff" stroke="none" /><path d="M 107.59598834532513 119.57807347666477 l 15.19152136845884 39.15497339553643 a62.998741208439895,62.998741208439895 0 0,0 -1.0143690693900171,0.38354758593231164 l -14.515282078308548 -39.410669231575376" fill="#4dd2ff" stroke="none" /><path d="M 106.57524785965236 119.94407469862006 l 6.5881229853366285 19.98312759424956 a42.04112052429668,42.04112052429668 0 0,0 -0.6892314488083106,0.22067014469663845 l -6.243170191437378 -20.093570585605903" fill="#4dd2ff" stroke="none" /><path d="M 106.2309692047433 120.05430185196036 l 12.456584915324925 40.09137354528031 a62.98195732097186,62.98195732097186 0 0,0 -1.0380776946440349,0.3127642939150712 l -11.764632246240645 -40.29985320830111" fill="#4dd2ff" stroke="none" /><path d="M 105.53697534728816 120.25689768951611 l 5.548591843680925 20.299396375925145 a42.04405770460358,42.04405770460358 0 0,0 -0.6997523805116118,0.18481096364353386 l -5.198349020357816 -20.39189868887226" fill="#4dd2ff" stroke="none" /><path d="M 105.18746579009965 120.34920634021253 l 5.192026381826884 20.36709646726994 a42.018462276214834,42.018462276214834 0 0,0 -0.7024020553431674,0.17263333584624843 l -4.840671041740506 -20.45345106143022" fill="#4dd2ff" stroke="none" /><path d="M 104.48393922423573 120.51570834832081 l 8.961696546967456 41.00313217226435 a62.97104779411765,62.97104779411765 0 0,0 -1.0609378282046455,0.22232983720556931 l -8.254567257333433 -41.15131799019646" fill="#4dd2ff" stroke="none" /><path d="M 103.06178313531738 120.77559828337769 l 6.122159201179185 41.54164895725015 a62.99034926470588,62.99034926470588 0 0,0 -1.0740496715641348,0.1488534977158929 l -5.40618093842822 -41.640877020458646" fill="#4dd2ff" stroke="none" /><path d="M 101.26447882468166 120.96189622390904 l 1.7713517103267138 29.364580887513227 a50.41795875959079,50.41795875959079 0 0,0 -0.8667373656404475,0.044800421576633324 l -1.2656262762727866 -29.390721115852063" fill="#4dd2ff" stroke="none" /><path d="M 100.90346689309514 120.98055641714683 l 0.4886498027731861 11.347559975538438 a32.35807624680307,32.35807624680307 0 0,0 -0.5566816384252287,0.019173241203942728 l -0.2932478126733052 -11.354290015168473" fill="#4dd2ff" stroke="none" /><line stroke="#FFFFFF" stroke-width="0.3" x1="102.19456741930631" x2="102.32365962044197" y1="184.97166512339345" y2="189.96999836594603" /><path d="M 102.22038585953345 185.97133177190398 a86.0,86.0 0 0,1 -42.740103519485714,-10.115201625700543" fill="none" id="id67" stroke="none" /><text fill="#FFFFFF" style="font-size:6.75px; font-family:Arial;" text-anchor="middle"><textPath startOffset="22.20632615414155" xlink:href="#id67">July</textPath></text><path d="M 100.18074693466247 120.99922214144158 l 0.36175389528591667 42.02865416128356 a63.03021099744245,63.03021099744245 0 0,0 -1.0850016598967154,0.0 l 0.36175389528588775 -42.02865416128356" fill="#4dd2ff" stroke="none" /><path d="M 99.45781275523022 120.99299961872073 l -1.084916156783776 42.006972103109156 a63.02097985933504,63.02097985933504 0 0,0 -1.08419987812857,-0.0373420359892757 l 1.8078363865869889 -41.98207326869379" fill="#4dd2ff" stroke="none" /><path d="M 98.37488393609728 120.93702456842531 l -3.250037300911586 41.87153910353441 a62.9974824168798,62.9974824168798 0 0,0 -1.0804238695436463,-0.09322351765077591 l 3.9703054881967743 -41.80939133360497" fill="#4dd2ff" stroke="none" /><path d="M 97.2962882734958 120.8252237178851 l -5.408125743858063 41.65585680094626 a63.00545476342711,63.00545476342711 0 0,0 -1.074307235716892,-0.1488891937605284 l 6.124361570761786 -41.55659304169313" fill="#4dd2ff" stroke="none" /><path d="M 95.16358092515715 120.4354850818985 l -6.78459299885244 28.66717024915941 a50.45907928388747,50.45907928388747 0 0,0 -0.8434997160709813,-0.20731170796411474 l 7.2770459996666315 -28.546137282881265" fill="#4dd2ff" stroke="none" /><path d="M 92.7421414339146 119.70592522655815 l -14.645798236985744 39.76503569384964 a63.37637867647058,63.37637867647058 0 0,0 -1.0204495681375099,-0.38584671027102 l 15.328118025883537 -39.50704073347198" fill="#4dd2ff" stroke="none" /><path d="M 92.06813273071674 119.44442032107085 l -15.876730324933225 38.92069890753347 a63.03440696930946,63.03440696930946 0 0,0 -1.0011320837103226,-0.4184732921851324 l 16.54433386814101 -38.64164057232836" fill="#4dd2ff" stroke="none" /><path d="M 90.7491055286396 118.85261126421891 l -18.513988411932537 37.730084108190034 a63.02769341432226,63.02769341432226 0 0,0 -0.9698644206955833,-0.4863101545918665 l 19.160706740310882 -37.405806112688865" fill="#4dd2ff" stroke="none" /><path d="M 90.10565033884886 118.52300852407294 l -13.8573878106763 25.942130744212907 a50.411245204603574,50.411245204603574 0 0,0 -0.761875202535122,-0.41543510662320593 l 14.301885825080063 -25.699754985829937" fill="#4dd2ff" stroke="none" /><line stroke="#FFFFFF" stroke-width="0.3" x1="58.666819895761336" x2="56.23545636021788" y1="174.27360380694188" y2="178.64263932499728" /><path d="M 58.180547188652646 175.14741091055294 a86.0,86.0 0 0,1 -31.652253787137756,-30.449443065178592" fill="none" id="id68" stroke="none" /><text fill="#FFFFFF" style="font-size:6.75px; font-family:Arial;" text-anchor="middle"><textPath startOffset="22.20632615414155" xlink:href="#id68">August</textPath></text><path d="M 88.24862548938628 117.40417183066458 l -23.655605175447565 35.03472864897628 a63.273157768542205,63.273157768542205 0 0,0 -0.8974035442633325,-0.6172423407067131 l 24.255165604333786 -34.62234551890446" fill="#4dd2ff" stroke="none" /><path d="M 86.79598089348748 116.32954008644616 l -13.274460944376953 16.416656199039696 a42.11203244884911,42.11203244884911 0 0,0 -0.5597488668651974,-0.4606352099212111 l 13.555079939786838 -16.185725870261304" fill="#4dd2ff" stroke="none" /><path d="M 86.24171649860922 115.8653595955263 l -18.933584116743695 21.833255610259712 a49.89933663682864,49.89933663682864 0 0,0 -0.6440760371571846,-0.5683222173544571 l 19.30660250680747 -21.504110251132964" fill="#4dd2ff" stroke="none" /><path d="M 84.67929136418377 114.36230785411682 l -23.15463316225432 21.706174148368415 a52.737911604859335,52.737911604859335 0 0,0 -0.615159089638763,-0.6676336964071183 l 23.52483865988881 -21.304389197159953" fill="#4dd2ff" stroke="none" /><path d="M 84.19399662182784 113.82643327865904 l -31.631903219995724 27.670271154835557 a63.026434622762146,63.026434622762146 0 0,0 -0.7072691149476908,-0.8227137661094153 l 32.103514844514194 -27.121680289564612" fill="#4dd2ff" stroke="none" /><path d="M 83.06392112726016 112.41649034213515 l -33.88197125026128 24.840175341797504 a63.012168318414325,63.012168318414325 0 0,0 -0.633783013098983,-0.8802691729656775 l 34.304534055735864 -24.25327256338069" fill="#4dd2ff" stroke="none" /><path d="M 82.6465618267979 111.8261652097733 l -34.725253348945344 23.664854131905088 a63.02223865089514,63.02223865089514 0 0,0 -0.6032035361377983,-0.9017074427954828 l 35.127459990493875 -23.063609774903785" fill="#4dd2ff" stroke="none" /><line stroke="#FFFFFF" stroke-width="0.3" x1="26.63291911575756" x2="22.317208475507996" y1="142.92168965132927" y2="145.44649492493687" /><path d="M 25.769776987707644 143.4266507060508 a86.0,86.0 0 0,1 -11.730757126820373,-40.83630448921669" fill="none" id="id69" stroke="none" /><text fill="#FFFFFF" style="font-size:6.75px; font-family:Arial;" text-anchor="middle"><textPath startOffset="21.46611528233685" xlink:href="#id69">September</textPath></text><path d="M 81.87401531095188 110.60418214915194 l -36.241828561853985 21.20243165164115 a62.988251278772374,62.988251278772374 0 0,0 -0.5394433932542707,-0.9405650259577684 l 36.601423951260635 -20.575446779825075" fill="#4dd2ff" stroke="none" /><path d="M 81.51974371655577 109.97397251340807 l -18.489118298925433 9.978755428615909 a42.01007033248082,42.01007033248082 0 0,0 -0.337976000569941,-0.6393232234969839 l 18.65814680772026 -9.659017190032799" fill="#4dd2ff" stroke="none" /><path d="M 81.02952815118164 109.00673069616217 l -38.48828547652288 18.273326304513795 a63.60589833759591,63.60589833759591 0 0,0 -0.46106820217559846,-0.9930998889333671 l 38.79712829553831 -17.6081063483016" fill="#4dd2ff" stroke="none" /><path d="M 80.73074385275274 108.34839909993369 l -38.53312207738173 16.694462890016855 a62.9941256393862,62.9941256393862 0 0,0 -0.4225076565217194,-0.9986832932732493 l 38.81478071509576 -16.028705071077447" fill="#4dd2ff" stroke="none" /><path d="M 80.32549172779594 107.34259656027581 l -47.23289329071271 17.62748400163241 a71.41502157928389,71.41502157928389 0 0,0 -0.4199058364204726,-1.155400519448447 l 47.52932338813841 -16.811835685177847" fill="#4dd2ff" stroke="none" /><path d="M 80.0844068197444 106.66101706037122 l -59.74200438255544 19.981454070245622 a83.9949648337596,83.9949648337596 0 0,0 -0.44680421178802776,-1.3751219669605843 l 60.077100845359716 -18.95013320330723" fill="#4dd2ff" stroke="none" /><path d="M 79.76711848015287 105.62410040840567 l -40.453230684213196 11.244717218812212 a62.98699248721228,62.98699248721228 0 0,0 -0.2813776633653122,-1.0471109604423818 l 40.640796423920285 -10.546715325194292" fill="#4dd2ff" stroke="none" /><path d="M 79.58551787078972 104.9243191809786 l -40.821622093332536 9.846867307264557 a62.99244725063938,62.99244725063938 0 0,0 -0.24518890423412473,-1.056267382250798 l 40.985071563497215 -9.142731267665184" fill="#4dd2ff" stroke="none" /><path d="M 79.04373962182676 101.35467743843564 l -29.40400160918437 1.900765540266665 a50.465373241687985,50.465373241687985 0 0,0 -0.04857568319224911,-0.8673514546959037 l 29.43236364326415 -1.3943423692353236" fill="#4dd2ff" stroke="none" /><path d="M 79.0095281055655 100.63252640178507 l -41.98387963652048 1.2651412723363853 a63.0029371803069,63.0029371803069 0 0,0 -0.023334899811849535,-1.08428110152846 l 41.999436599017336 -0.5422703550177965" fill="#4dd2ff" stroke="none" /><line stroke="#FFFFFF" stroke-width="0.3" x1="15.007084014347285" x2="10.007500721073583" y1="101.09737516637583" y2="101.16192664675087" /><path d="M 14.007167355692545 101.11028546245083 a86.0,86.0 0 0,1 10.666146001902534,-42.60595125391555" fill="none" id="id70" stroke="none" /><text fill="#FFFFFF" style="font-size:6.75px; font-family:Arial;" text-anchor="middle"><textPath startOffset="22.20632615414155" xlink:href="#id70">October</textPath></text><path d="M 79.00019446554 99.90962569577889 l -41.999191475618865 -0.18074680268967852 a62.9995804028133,62.9995804028133 0 0,0 0.014000885396516024,-1.084384003477193 l 41.98985758310464 0.9036670642273436" fill="#4dd2ff" stroke="none" /><path d="M 79.03285615573316 98.82574320788736 l -42.4709507173162 -2.3785691898578087 a63.53750399616369,63.53750399616369 0 0,0 0.07055509724977492,-1.0914561260287663 l 42.42371502906201 3.109284380139587" fill="#4dd2ff" stroke="none" /><path d="M 79.08570108090925 98.10471618934814 l -33.4859455120001 -3.0345444835988333 a54.623161764705884,54.623161764705884 0 0,0 0.0929188734552324,-0.9356803750978514 l 33.42874951286264 3.610500389401115" fill="#4dd2ff" stroke="none" /><path d="M 79.16333360222342 97.38593545837743 l -41.666255123543046 -5.227241153713324 a62.992866847826086,62.992866847826086 0 0,0 0.1442356699457436,-1.074723274873299 l 41.57010345453947 5.943682770651282" fill="#4dd2ff" stroke="none" /><path d="M 79.26566170972629 96.67025291283419 l -29.05906242719747 -4.666622446211323 a50.43138586956522,50.43138586956522 0 0,0 0.14502178636277963,-0.85592679232578 l 28.97442877931447 5.166135026852932" fill="#4dd2ff" stroke="none" /><path d="M 79.3925641242962 95.95851677861259 l -20.636670369533224 -4.047216623495756 a42.02979140025575,42.02979140025575 0 0,0 0.1453444306682133,-0.7087510619621257 l 20.563946642950015 4.4018433416212845" fill="#4dd2ff" stroke="none" /><path d="M 79.54389044137918 95.25157060432595 l -40.91426276629444 -9.497333178875639 a63.00209798593351,63.00209798593351 0 0,0 0.2543100678076831,-1.0542794127951813 l 40.744719898225945 10.200197823330218" fill="#4dd2ff" stroke="none" /><path d="M 79.81627453868168 94.20196356495316 l -60.551176383954946 -17.394109305140535 a84.0,84.0 0 0,0 0.4111764115531722,-1.3862824530138431 l 60.24279407529007 18.433821144900918" fill="#4dd2ff" stroke="none" /><path d="M 80.02781315780177 93.51064311812611 l -27.989315072292584 -9.094279751056407 a50.429707480818415,50.429707480818415 0 0,0 0.2753527016213588,-0.823269530294473 l 27.828625076899453 9.574722384273201" fill="#4dd2ff" stroke="none" /><path d="M 80.38941819471856 92.48833698450439 l -39.21724525582237 -15.021825139244212 a62.995804028132994,62.995804028132994 0 0,0 0.3965929344241965,-1.0092857596503249 l 38.95285877151648 15.694659903790301" fill="#4dd2ff" stroke="none" /><path d="M 80.65960295795068 91.81776055985345 l -38.671133160064706 -16.360391684281186 a62.989510070332486,62.989510070332486 0 0,0 0.4310560847411807,-0.994936874876205 l 38.383786365480844 17.02362770374399" fill="#4dd2ff" stroke="none" /><path d="M 80.95270993114464 91.15688171328213 l -26.67830855452149 -12.385984430559382 a50.41334319053708,50.41334319053708 0 0,0 0.37219884679697646,-0.7839456938946007 l 26.46115151388276 12.843372540094515" fill="#4dd2ff" stroke="none" /><line stroke="#FFFFFF" stroke-width="0.3" x1="26.266209847984243" x2="21.928928074336255" y1="57.711370442889674" y2="55.22380399835377" /><path d="M 25.398753493254645 57.213857153982495 a86.0,86.0 0 0,1 29.58750427330803,-30.492523968695096" fill="none" id="id71" stroke="none" /><text fill="#FFFFFF" style="font-size:6.75px; font-family:Arial;" text-anchor="middle"><textPath startOffset="21.46611528233685" xlink:href="#id71">November</textPath></text><path d="M 81.96595687620814 89.24020034530311 l -36.27023414944689 -21.64020847671886 a63.23539402173914,63.23539402173914 0 0,0 0.5657586440871899,-0.9299584546600833 l 35.89235970707349 22.261334704586016" fill="#4dd2ff" stroke="none" /><path d="M 82.34701348167596 88.62581576622439 l -35.33277984162317 -22.765640646294955 a63.03188938618926,63.03188938618926 0 0,0 0.5955113778079688,-0.9070046840887721 l 34.93567182845728 23.370463394361394" fill="#4dd2ff" stroke="none" /><path d="M 82.7489923806493 88.02491185347247 l -34.510977159219784 -23.95639736666058 a63.01090952685423,63.01090952685423 0 0,0 0.6261705539492409,-0.885673842015179 l 34.093493985466665 24.546897709007546" fill="#4dd2ff" stroke="none" /><path d="M 83.17141714833178 87.43820079747576 l -33.67128815537787 -25.134140196259025 a63.01762308184143,63.01762308184143 0 0,0 0.6563557313279649,-0.8636872052735801 l 33.2336564838258 25.71001217741363" fill="#4dd2ff" stroke="none" /><path d="M 83.6137871275137 86.86637796730984 l -32.76489531626281 -26.261208393490293 a62.99034926470588,62.99034926470588 0 0,0 0.6853995138866662,-0.8402187614742864 l 32.30799731029975 26.82131132457266" fill="#4dd2ff" stroke="none" /><path d="M 85.57189188830299 84.74124197986013 l -34.643545793852745 -36.638031690341826 a71.4234135230179,71.4234135230179 0 0,0 0.9005884196835714,-0.8369987864242242 l 34.007749490374316 37.2289350628407" fill="#4dd2ff" stroke="none" /><path d="M 86.10567301691215 84.25364557470407 l -16.713558331258746 -18.941371792401128 a46.261009430946295,46.261009430946295 0 0,0 0.6016270741167394,-0.5217250701423992 l 16.38503745849523 19.226261855963205" fill="#4dd2ff" stroke="none" /><path d="M 87.22198572758235 83.33499621200491 l -10.265202242583605 -13.387810547876652 a37.87032448849105,37.87032448849105 0 0,0 0.5207238978318869,-0.39219844410842836 l 10.033232190993328 13.562525581490934" fill="#4dd2ff" stroke="none" /><path d="M 87.80319425747018 82.90503203632743 l -24.402628465008373 -34.20257407102032 a63.015525095907925,63.015525095907925 0 0,0 0.8884254620801294,-0.6223988117181174 l 23.810271863344582 34.61755772550239" fill="#4dd2ff" stroke="none" /><line stroke="#FFFFFF" stroke-width="0.3" x1="56.762969772571076" x2="54.21961505331055" y1="26.818313649435495" y2="22.513508569990535" /><path d="M 56.25429882871897 25.957352633546506 a86.0,86.0 0 0,1 42.265352541879196,-11.944610805530505" fill="none" id="id72" stroke="none" /><text fill="#FFFFFF" style="font-size:6.75px; font-family:Arial;" text-anchor="middle"><textPath startOffset="22.20632615414155" xlink:href="#id72">December</textPath></text><path d="M 89.3179101791058 81.91981866633112 l -21.371009622492306 -36.171922885581786 a63.01342710997442,63.01342710997442 0 0,0 0.9386098046932561,-0.5437033819491742 l 20.745203085333728 36.534430424921005" fill="#4dd2ff" stroke="none" /><path d="M 89.94658935756843 81.56283822128135 l -10.078520063992952 -18.483210476415657 a42.0524496483376,42.0524496483376 0 0,0 0.6385062798091176,-0.34106794180123423 l 9.75886873765553 18.65395714471864" fill="#4dd2ff" stroke="none" /><path d="M 90.26544431104013 81.39251694778311 l -19.475919031554536 -37.22797885033428 a63.014685901534534,63.014685901534534 0 0,0 0.965443538890806,-0.4945376786503613 l 18.832215005074968 37.55770905429715" fill="#4dd2ff" stroke="none" /><path d="M 91.90106846888425 80.62456947434976 l -16.21242715745611 -38.78570337761339 a63.03776374680307,63.03776374680307 0 0,0 1.0047503024348476,-0.4098628761408348 l 15.54239298543288 39.0590271399378" fill="#4dd2ff" stroke="none" /><path d="M 92.91201910852362 80.23233633223022 l -14.18969927788709 -39.57363982306701 a63.04070092710997,63.04070092710997 0 0,0 1.0246155096612841,-0.3574682324679113 l 13.50640176416252 39.812028908707134" fill="#4dd2ff" stroke="none" /><path d="M 93.59665428221793 80.00007090966166 l -12.823068278832139 -40.05100889446272 a63.0537084398977,63.0537084398977 0 0,0 1.0365267837278886,-0.32205391725809557 l 12.131756122393522 40.26580294660334" fill="#4dd2ff" stroke="none" /><path d="M 94.28887869178378 79.79150937346287 l -11.42178616492125 -40.4153661243477 a62.9983216112532,62.9983216112532 0 0,0 1.046078462914608,-0.2859327597574314 l 10.72440981278292 40.605985424931426" fill="#4dd2ff" stroke="none" /><path d="M 94.98787191387505 79.60689891045804 l -10.022253243826736 -40.77805276208842 a62.99160805626599,62.99160805626599 0 0,0 1.0551883635397328,-0.24972899388115183 l 9.318841193324468 40.944527668110446" fill="#4dd2ff" stroke="none" /><path d="M 96.75951476605007 79.25152402106235 l -5.188609429104275 -33.222104200930055 a54.62484015345269,54.62484015345269 0 0,0 0.9302636799048272,-0.13709668466249236 l 4.6159767687708 33.30649536975351" fill="#4dd2ff" stroke="none" /><path d="M 98.19473922651362 79.07773832637324 l -2.8937268280884627 -33.537154741548775 a54.66176470588235,54.66176470588235 0 0,0 0.9381255365127477,-0.07281659695062047 l 2.316011102213381 33.58199660068786" fill="#4dd2ff" stroke="none" /><path d="M 98.91598698831166 79.02799685794201 l -2.169130656201087 -41.965377211230866 a63.02139945652175,63.02139945652175 0 0,0 1.0838455318751095,-0.046672668532187454 l 1.4464442919366534 41.99649760628724" fill="#4dd2ff" stroke="none" /></svg>