<?xml version="1.0" encoding="utf-8" ?>
<svg baseProfile="full" height="200mm" version="1.1" viewBox="0,0,200,200" width="200mm" xmlns="http://www.w3.org/2000/svg" xmlns:ev="http://www.w3.org/2001/xml-events" xmlns:xlink="http://www.w3.org/1999/xlink"><defs /><rect fill="#1a1a1a" height="200" width="200" x="0" y="0" /><text alignment-baseline="middle" fill="#e1ed5e" style="dominant-baseline: central; font-size:9.0px; font-family:Arial;" text-anchor="middle" x="100.0" y="100.0">2024</text><line stroke="#e1ed5e" stroke-width="0.3" x1="100.0" x2="100.0" y1="15.0" y2="10.0" /><path d="M 100.0 14.0 a86.0,86.0 0 0,1 42.35913384403234,11.155469271406648" fill="none" id="id49" stroke="none" /><text fill="#e1ed5e" style="font-size:6.75px; font-family:Arial;" text-anchor="middle"><textPath startOffset="22.145653131862478" xlink:href="#id49">January</textPath></text><path d="M 100.36049292484886 79.00309439819443 l 0.5406854341894626 -31.492215906060565 a52.496857040229884,52.496857040229884 0 0,0 0.9009127776395485,0.023204317394366118 l -1.0812115258997523 31.478293871316154" fill="#cdff1d" stroke="none" /><path d="M 101.08105385017728 79.02784411241856 l 1.6322592885129974 -31.6653941355778 a52.70743534482759,52.70743534482759 0 0,0 0.9031937282594896,0.054333891864212086 l -2.1755973689049495 31.632708265888894" fill="#caff1d" stroke="none" /><path d="M 101.80034050326958 79.07731436759882 l 2.7189948543003686 -31.598841702071415 a52.715607040229884,52.715607040229884 0 0,0 0.9009359230077424,0.08531956860838061 l -3.2610303406931243 31.54751037795785" fill="#caff1d" stroke="none" /><path d="M 102.87502721639298 79.19773525538626 l 4.321404803375644 -31.267532451831265 a52.56474497126437,52.56474497126437 0 0,0 0.8927868981611832,0.1312089292243641 l -4.857516807144508 31.188742449308016" fill="#ccff1d" stroke="none" /><path d="M 104.64783097203109 79.52079915486377 l 6.992754075287306 -30.811364705432304 a52.59491738505747,52.59491738505747 0 0,0 0.8787554946249426,0.20738390400432533 l -7.520641723652133 30.686784657781754" fill="#ccff1d" stroke="none" /><path d="M 105.69591212413111 79.78721728523813 l 8.582741149687502 -30.457120505900157 a52.64331896551724,52.64331896551724 0 0,0 0.8677122749959707,0.2525783970771341 l -9.104313437065077 30.305298414520507" fill="#cbff1d" stroke="none" /><path d="M 107.74402155503746 80.48000691201159 l 11.669578458610248 -29.414960848557246 a52.64520474137932,52.64520474137932 0 0,0 0.837172917290454,0.34047093732721445 l -12.172805837091142 29.210302654650736" fill="#cbff1d" stroke="none" /><path d="M 108.07796709384702 80.6158196554323 l 12.126380738850642 -29.098899319337132 a52.524515086206904,52.524515086206904 0 0,0 0.8292993760127527,0.35397859043073715 l -12.624115190033825 28.88644607924699" fill="#cdff1d" stroke="none" /><path d="M 109.3889696526874 81.21577127319529 l 14.096382298835435 -28.20220738981892 a52.52891522988506,52.52891522988506 0 0,0 0.8031240358681475,0.41008085519959175 l -14.57843355641716 27.956068582946497" fill="#cdff1d" stroke="none" /><path d="M 109.71004243097381 81.37971332152246 l 14.596744520053157 -27.991182270109576 a52.56851652298851,52.56851652298851 0 0,0 0.7965661854820946,0.42412662700038706 l -15.075099521321812 27.736485175386616" fill="#ccff1d" stroke="none" /><line stroke="#e1ed5e" stroke-width="0.3" x1="143.13028292997686" x2="145.6673583964461" y1="26.7553504044142" y2="22.446841604673864" /><path d="M 143.63769802327073 25.89364864446614 a86.0,86.0 0 0,1 29.32050498858742,28.57503671076993" fill="none" id="id50" stroke="none" /><text fill="#e1ed5e" style="font-size:6.75px; font-family:Arial;" text-anchor="middle"><textPath startOffset="20.669276256404974" xlink:href="#id50">February</textPath></text><path d="M 110.65571695917076 81.90426304109057 l 16.022807155290437 -27.210229469911855 a52.577316810344826,52.577316810344826 0 0,0 0.7738060178180833,0.46464828044701734 l -16.487545929665952 26.931167188928917" fill="#ccff1d" stroke="none" /><path d="M 111.5731344415666 82.4767994020092 l 17.402657501393072 -26.349841512232565 a52.57794540229885,52.57794540229885 0 0,0 0.7488694587648004,0.5038727928390312 l -17.852423248254876 26.047219045336416" fill="#ccff1d" stroke="none" /><path d="M 112.16784306229584 82.88440491214696 l 18.30821860669375 -25.752802271345445 a52.59743175287356,52.59743175287356 0 0,0 0.7314023274951638,0.5294788809673723 l -18.74760194456288 25.434722619004997" fill="#ccff1d" stroke="none" /><path d="M 112.7482090630111 83.31218511350987 l 19.10361561067783 -25.007246068676825 a52.46919899425288,52.46919899425288 0 0,0 0.7110577260342748,0.5529227885584581 l -19.530083281347334 24.675622228497577" fill="#ceff1d" stroke="none" /><path d="M 113.31354834802062 83.75963576809568 l 19.977894283842843 -24.36978266611578 a52.51194324712644,52.51194324712644 0 0,0 0.6922216025637467,0.5774758805731045 l -20.393290220568485 24.023244601630804" fill="#cdff1d" stroke="none" /><path d="M 113.86319453409587 84.22622945171908 l 20.822179577701824 -23.691818084639607 a52.54148706896552,52.54148706896552 0 0,0 0.6723683389589719,0.6012359147260361 l -21.225812943484172 23.330886640030187" fill="#cdff1d" stroke="none" /><path d="M 115.16444852881244 85.47280134310134 l 22.753481543456097 -21.79732061405529 a52.50942887931035,52.50942887931035 0 0,0 0.6179713819696337,0.6562641925148597 l -23.12430875916199 21.403514961595935" fill="#cdff1d" stroke="none" /><path d="M 115.41159269507618 85.73525988315684 l 23.14506790880514 -21.422729320589525 a52.53771551724138,52.53771551724138 0 0,0 0.6069414560475298,0.6671349806899484 l -23.509407065694546 21.022256764341904" fill="#cdff1d" stroke="none" /><path d="M 115.8921839302757 86.27271002978787 l 23.886321590365615 -20.632435682299494 a52.56348778735632,52.56348778735632 0 0,0 0.5839689267532201,0.6879139273463246 l -24.23698508062595 20.219354972503616" fill="#ccff1d" stroke="none" /><path d="M 116.1254893667686 86.54754324733833 l 24.199335769963593 -20.187946578504945 a52.51445761494253,52.51445761494253 0 0,0 0.5715403011358757,0.6971862362327171 l -24.5423228903381 19.769558060573733" fill="#cdff1d" stroke="none" /><path d="M 117.81537515405839 88.88188828441811 l 26.758791602475316 -16.699465031614693 a52.542115660919535,52.542115660919535 0 0,0 0.4709575896511699,0.7692738288582628 l -27.041517156581886 16.237654086631874" fill="#cdff1d" stroke="none" /><line stroke="#e1ed5e" stroke-width="0.3" x1="172.87174338648825" x2="177.1583165268699" y1="56.24261187166439" y2="53.66864786411523" /><path d="M 173.72905801456457 55.72781907015455 a86.0,86.0 0 0,1 12.242430191666344,42.057860355516425" fill="none" id="id51" stroke="none" /><text fill="#e1ed5e" style="font-size:6.75px; font-family:Arial;" text-anchor="middle"><textPath startOffset="22.145653131862474" xlink:href="#id51">March</textPath></text><path d="M 118.53625476483649 90.13048839642627 l 27.816033887857643 -14.810471300944732 a52.51320043103449,52.51320043103449 0 0,0 0.4168346087692815,0.7993353240184123 l -28.06617656560187 14.330789733821822" fill="#cdff1d" stroke="none" /><path d="M 118.8641267826498 90.77261029715802 l 28.29901346881168 -13.842465569244826 a52.503142959770116,52.503142959770116 0 0,0 0.38907514603982135,0.8130174139431343 l -28.532467872811416 13.354635653236588" fill="#cdff1d" stroke="none" /><path d="M 119.16976305983485 91.42560881287824 l 28.734561325052372 -12.85260379183119 a52.47799928160919,52.47799928160919 0 0,0 0.3607640493239114,0.825498745951964 l -28.950959256393254 12.357442976103375" fill="#cdff1d" stroke="none" /><path d="M 119.58574465831526 92.42381321644754 l 29.42551771701868 -11.382422385059408 a52.55028735632184,52.55028735632184 0 0,0 0.3182278146884807,0.8441370861999644 l -29.6165762155216 10.875617018665286" fill="#ccff1d" stroke="none" /><path d="M 119.94978838288452 93.4421083053983 l 29.963497715756606 -9.849596849857189 a52.5408584770115,52.5408584770115 0 0,0 0.2743015215444792,0.8592456094021018 l -30.128163953078342 9.3337822067637" fill="#cdff1d" stroke="none" /><path d="M 120.26092885502905 94.47779374421319 l 30.448401403723327 -8.298847200611613 a52.55908764367817,52.55908764367817 0 0,0 0.22978462499979896,0.8725296488078551 l -30.58637550952786 7.774937047430959" fill="#ccff1d" stroke="none" /><path d="M 120.43855184770803 95.1765574152323 l 30.678628500813197 -7.24007279261738 a52.52137212643679,52.52137212643679 0 0,0 0.199554049132266,0.8792719606698576 l -30.798393411503127 6.712366498008496" fill="#cdff1d" stroke="none" /><path d="M 120.592083275326 95.88100663000786 l 30.893672349216196 -6.179599697598657 a52.50565732758621,52.50565732758621 0 0,0 0.16920250035810933,0.8853389800446682 l -30.995201141856462 5.648358152520674" fill="#cdff1d" stroke="none" /><path d="M 120.7213421655516 96.59031103205396 l 31.07705124110386 -5.1137169555186945 a52.49497126436781,52.49497126436781 0 0,0 0.13868298457103678,0.8904442454065337 l -31.16025571781316 4.57948452818072" fill="#cdff1d" stroke="none" /><path d="M 120.82617615685814 97.30363454192243 l 31.23365373524494 -4.0438217955597615 a52.494342672413794,52.494342672413794 0 0,0 0.1080331415939065,0.8946693889621905 l -31.29846896309851 3.5070587296741587" fill="#cdff1d" stroke="none" /><line stroke="#e1ed5e" stroke-width="0.3" x1="184.99686870605535" x2="189.99668451229388" y1="99.2704041080226" y2="99.22748670261217" /><path d="M 185.99683186730306 99.26182062694052 a86.0,86.0 0 0,1 -10.086455211305974,41.156179273409016" fill="none" id="id52" stroke="none" /><text fill="#e1ed5e" style="font-size:6.75px; font-family:Arial;" text-anchor="middle"><textPath startOffset="21.40746469413373" xlink:href="#id52">April</textPath></text><path d="M 118.70294669586154 109.54985784667822 l 16.90531852774578 8.631976095430504 a39.98159123563218,39.98159123563218 0 0,0 -0.3173623165962749,0.608584087863329 l -16.754648142174556 -8.920906426398336" fill="#ff6f0a" stroke="none" /><line stroke="#e1ed5e" stroke-width="0.3" x1="174.33088141563837" x2="178.70328620479359" y1="141.23008692659167" y2="143.65538615756765" /><path d="M 175.20536237346943 141.71514677278685 a86.0,86.0 0 0,1 -30.301960400862466,31.631185727798858" fill="none" id="id53" stroke="none" /><text fill="#e1ed5e" style="font-size:6.75px; font-family:Arial;" text-anchor="middle"><textPath startOffset="22.145653131862474" xlink:href="#id53">May</textPath></text><path d="M 118.36410011445183 110.18625677009912 l 16.703481506760298 9.265139621438037 a40.101023706896555,40.101023706896555 0 0,0 -0.33907637327769313,0.5991154619111131 l -16.541971768461224 -9.550511853448274" fill="#ff710a" stroke="none" /><line stroke="#e1ed5e" stroke-width="0.3" x1="143.1302829299769" x2="145.66735839644613" y1="173.24464959558577" y2="177.55315839532614" /><path d="M 143.63769802327073 174.10635135553383 a86.0,86.0 0 0,1 -40.68552437913181,11.842963189579606" fill="none" id="id54" stroke="none" /><text fill="#e1ed5e" style="font-size:6.75px; font-family:Arial;" text-anchor="middle"><textPath startOffset="21.407464694133747" xlink:href="#id54">June</textPath></text><path d="M 108.4095320186766 119.2426549942271 l 7.597728236342064 17.385089071203204 a39.972790948275865,39.972790948275865 0 0,0 -0.6311226393330075,0.2693887258593405 l -7.2981705218386255 -17.512952446721947" fill="#ff6f0a" stroke="none" /><path d="M 107.06938296918513 119.77432235084164 l 10.611057500891642 29.68101635186046 a52.52074353448276,52.52074353448276 0 0,0 -0.8515719057807201,0.29622091366129555 l -10.099979823065901 -29.858795698090347" fill="#cdff1d" stroke="none" /><path d="M 105.69591212413111 120.21278271476187 l 8.548471563452157 30.335509834035122 a52.51697198275862,52.51697198275862 0 0,0 -0.8698276010569033,0.23707538061959302 l -8.026462561460558 -30.47778570879886" fill="#cdff1d" stroke="none" /><path d="M 104.9986988182912 120.39639698878246 l 7.504033259546825 30.619016456579793 a52.525143678160916,52.525143678160916 0 0,0 -0.8775897160409392,0.2071087834327534 l -6.977311389766006 -30.74332138365877" fill="#cdff1d" stroke="none" /><line stroke="#e1ed5e" stroke-width="0.3" x1="101.45913802915013" x2="101.54496967792366" y1="184.9874750549273" y2="189.98673829345242" /><path d="M 101.47630435890484 185.9873277026323 a86.0,86.0 0 0,1 -42.54439059252881,-10.42667462771756" fill="none" id="id55" stroke="none" /><text fill="#e1ed5e" style="font-size:6.75px; font-family:Arial;" text-anchor="middle"><textPath startOffset="22.145653131862474" xlink:href="#id55">July</textPath></text><path d="M 95.00130118170881 120.39639698878247 l -7.5713648707845635 30.893752407398534 a52.808010057471265,52.808010057471265 0 0,0 -0.8786113899705441,-0.22333957954740047 l 8.100581553980486 -30.75922759601587" fill="#c9ff1d" stroke="none" /><path d="M 94.30408787586889 120.21278271476187 l -5.140608430755424 18.24220580797369 a39.95267600574712,39.95267600574712 0 0,0 -0.6585342275214754,-0.1916897160508378 l 5.453002670658505 -18.151272397620335" fill="#ff6f0a" stroke="none" /><line stroke="#e1ed5e" stroke-width="0.3" x1="58.13341422392154" x2="55.67067388415222" y1="173.97424548756322" y2="178.32567169271397" /><path d="M 57.64086615596768 174.84453072859336 a86.0,86.0 0 0,1 -31.369924170532247,-30.572349798747897" fill="none" id="id56" stroke="none" /><text fill="#e1ed5e" style="font-size:6.75px; font-family:Arial;" text-anchor="middle"><textPath startOffset="22.145653131862474" xlink:href="#id56">August</textPath></text><line stroke="#e1ed5e" stroke-width="0.3" x1="26.387840678322732" x2="22.057713659400534" y1="142.50000000000003" y2="145.00000000000006" /><path d="M 25.521815274538284 143.00000000000003 a86.0,86.0 0 0,1 -11.493303480769212,-40.785679425670985" fill="none" id="id57" stroke="none" /><text fill="#e1ed5e" style="font-size:6.75px; font-family:Arial;" text-anchor="middle"><textPath startOffset="21.40746469413373" xlink:href="#id57">September</textPath></text><path d="M 80.68587082218212 108.24405325689762 l -28.959631189393345 12.361144508636116 a52.487428160919535,52.487428160919535 0 0,0 -0.34660237012701917,-0.8317195121423913 l 29.16755940405685 -11.862192487052443" fill="#cdff1d" stroke="none" /><path d="M 79.2786578344484 103.40968896794605 l -31.14713959313653 5.125249967173929 a52.56600215517241,52.56600215517241 0 0,0 -0.1388706363726466,-0.891649104585204 l 31.23053172164744 -4.589812680657275" fill="#ccff1d" stroke="none" /><path d="M 79.17382384314188 102.69636545807758 l -31.426904292256015 4.068841949175801 a52.68920617816092,52.68920617816092 0 0,0 -0.10843416988831801,-0.8979904785262138 l 31.492120548403996 -3.5287577937261885" fill="#caff1d" stroke="none" /><line stroke="#e1ed5e" stroke-width="0.3" x1="15.003131293944662" x2="10.003315487706104" y1="100.72959589197737" y2="100.7725132973878" /><path d="M 14.003168132696942 100.73817937305945 a86.0,86.0 0 0,1 10.791469493833604,-42.45332614584628" fill="none" id="id58" stroke="none" /><text fill="#e1ed5e" style="font-size:6.75px; font-family:Arial;" text-anchor="middle"><textPath startOffset="22.145653131862435" xlink:href="#id58">October</textPath></text><path d="M 79.13060592940154 97.66154086499901 l -31.37093213695475 -3.5151783794484803 a52.56725933908046,52.56725933908046 0 0,0 0.10818320379438211,-0.8959121192505924 l 31.3059668469007 4.053184175622509" fill="#ccff1d" stroke="none" /><path d="M 79.2786578344484 96.59031103205396 l -31.124810560630547 -5.121575733372252 a52.54337284482759,52.54337284482759 0 0,0 0.1540901526772517,-0.8887510527777951 l 31.03230559046106 5.65511981907064" fill="#ccff1d" stroke="none" /><path d="M 79.407916724674 95.88100663000787 l -30.9701036927908 -6.194888106898189 a52.58360272988506,52.58360272988506 0 0,0 0.18464929706684757,-0.8836137302628614 l 30.859196684899583 6.725618288446459" fill="#ccff1d" stroke="none" /><path d="M 79.56144815229197 95.17655741523228 l -31.099537375071538 -7.339406140866918 a52.95384339080459,52.95384339080459 0 0,0 0.21638572770635794,-0.8829276108525786 l 30.96896412084888 7.872189576327614" fill="#c7ff1e" stroke="none" /><path d="M 79.73907114497095 94.47779374421319 l -30.402309731280127 -8.286284710326655 a52.51131465517241,52.51131465517241 0 0,0 0.24450645381565986,-0.8676671471800194 l 30.255584785389885 8.806959781409688" fill="#cdff1d" stroke="none" /><path d="M 79.94057633289273 93.78553927170692 l -30.077126746070913 -9.317970749570662 a52.487428160919535,52.487428160919535 0 0,0 0.2740225764068195,-0.8583718177313455 l 29.912739453886836 9.8329116009934" fill="#cdff1d" stroke="none" /><path d="M 80.16572619554312 93.10060997987247 l -29.819092316291066 -10.3726282073433 a52.571659482758626,52.571659482758626 0 0,0 0.3038136978731098,-0.8498209847353334 l 29.63663844837401 10.882984148459556" fill="#ccff1d" stroke="none" /><path d="M 80.41425534168474 92.42381321644754 l -29.437242899405117 -11.386957937492095 a52.5628591954023,52.5628591954023 0 0,0 0.33275124519073546,-0.8387505070821422 l 29.23743297924825 11.89060946178782" fill="#ccff1d" stroke="none" /><path d="M 80.83023694016515 91.42560881287825 l -28.8372728788033 -12.898545363385727 a52.59051724137932,52.59051724137932 0 0,0 0.3756854565483528,-0.8209405229882584 l 28.611602957399903 13.391674868588657" fill="#ccff1d" stroke="none" /><path d="M 81.29705330413844 90.45014215332179 l -28.063937228114334 -14.329646312144758 a52.51068606321839,52.51068606321839 0 0,0 0.41681465044422406,-0.7992970512985065 l 27.813814508695174 14.809289606547752" fill="#cdff1d" stroke="none" /><line stroke="#e1ed5e" stroke-width="0.3" x1="26.387840678322718" x2="22.05771365940052" y1="57.49999999999999" y2="54.99999999999999" /><path d="M 25.521815274538284 56.99999999999999 a86.0,86.0 0 0,1 29.574782752854787,-30.34633250058573" fill="none" id="id59" stroke="none" /><text fill="#e1ed5e" style="font-size:6.75px; font-family:Arial;" text-anchor="middle"><textPath startOffset="21.40746469413373" xlink:href="#id59">November</textPath></text><path d="M 81.99639281039701 89.18935116829357 l -27.13313033971865 -16.292665170844916 a52.648976293103445,52.648976293103445 0 0,0 0.4719154274757379,-0.7708383849603881 l 26.84944694778752 16.75604067192985" fill="#cbff1d" stroke="none" /><path d="M 82.18462484594161 88.88188828441811 l -26.69159999359687 -16.657532498204628 a52.462913074712645,52.462913074712645 0 0,0 0.4833640726536039,-0.7599286068499569 l 26.401718229317378 17.113274779733256" fill="#ceff1d" stroke="none" /><path d="M 82.576782715395 88.27688183743585 l -15.685485005141887 -10.55389433241378 a39.90553160919541,39.90553160919541 0 0,0 0.3872931857045213,-0.565072332339976 l 15.502002082622052 10.821601399823791" fill="#ff6e0a" stroke="none" /><path d="M 82.98947788004972 87.6856937992154 l -25.52698503237511 -18.479568578488237 a52.5138290229885,52.5138290229885 0 0,0 0.5348858081875183,-0.725675326600234 l 25.205997204603772 18.915050214357333" fill="#cdff1d" stroke="none" /><path d="M 83.2033758604659 87.39550010848427 l -25.200466706952472 -18.910900025815472 a52.50691451149426,52.50691451149426 0 0,0 0.5471921150508083,-0.7162920437043732 l 24.872122614547358 19.34071298276073" fill="#cdff1d" stroke="none" /><path d="M 83.64595745247003 86.82634096563983 l -24.644144036467363 -19.851577968354707 a52.64520474137932,52.64520474137932 0 0,0 0.5729632854988479,-0.6989220457815352 l 24.299733931729886 20.271702295834736" fill="#cbff1d" stroke="none" /><path d="M 84.10781606972428 86.27271002978789 l -23.854449693714272 -20.604905497074263 a52.52137212643679,52.52137212643679 0 0,0 0.5952145462764536,-0.6772448916353756 l 23.497224083479225 21.01136266652094" fill="#cdff1d" stroke="none" /><path d="M 84.58840730492382 85.73525988315684 l -23.102165666209284 -21.383019645336105 a52.47925646551724,52.47925646551724 0 0,0 0.6176162897766969,-0.6558870969112967 l 22.731693542696316 21.77644820219191" fill="#cdff1d" stroke="none" /><path d="M 85.60350026404147 84.71141617570332 l -30.223255177845168 -32.096049644308174 a65.0862966954023,65.0862966954023 0 0,0 0.8199950667157369,-0.7589751919365562 l 29.667830339815477 32.610142582377094" fill="#30ff37" stroke="none" /><path d="M 86.13680546590413 84.22622945171909 l -33.26701925914146 -37.851761174406846 a71.39295977011494,71.39295977011494 0 0,0 0.9274983059882277,-0.8011509462161165 l 32.61234147339039 38.41725625308768" fill="#3aff90" stroke="none" /><path d="M 86.68645165197937 83.75963576809568 l -31.921352257686802 -38.9388594151032 a71.3508441091954,71.3508441091954 0 0,0 0.953890215150456,-0.7683864349797977 l 31.248211272181102 39.481094143876405" fill="#3aff90" stroke="none" /><path d="M 87.25179093698888 83.31218511350988 l -30.562808563330638 -40.00769748873482 a71.34581537356323,71.34581537356323 0 0,0 0.9796358388901072,-0.7351369967225926 l 29.871519735529777 40.52645351272142" fill="#3aff90" stroke="none" /><path d="M 87.83215693770416 82.88440491214696 l -29.651468856099346 -41.70850430128124 a72.17429956896552,72.17429956896552 0 0,0 1.0159560592229235,-0.7092162324614212 l 28.931117705702654 42.21136534954778" fill="#3bff9b" stroke="none" /><path d="M 88.4268655584334 82.4767994020092 l -24.330672219331593 -36.83973880507314 a65.1491558908046,65.1491558908046 0 0,0 0.9385026525378668,-0.6083260807076758 l 23.694683934536698 37.251978727484726" fill="#30ff38" stroke="none" /><path d="M 89.03521579738668 82.08984904055464 l -26.335108944967985 -43.0164213013331 a71.43758979885058,71.43758979885058 0 0,0 1.0513818551100715,-0.6313245953392576 l 25.59279433330048 43.462159897208274" fill="#3aff91" stroke="none" /><line stroke="#e1ed5e" stroke-width="0.3" x1="56.869717070023135" x2="54.33264160355391" y1="26.7553504044142" y2="22.446841604673864" /><path d="M 56.362301976729285 25.89364864446614 a86.0,86.0 0 0,1 42.16139366436587,-11.88097634709845" fill="none" id="id60" stroke="none" /><text fill="#e1ed5e" style="font-size:6.75px; font-family:Arial;" text-anchor="middle"><textPath startOffset="22.145653131862474" xlink:href="#id60">December</textPath></text><path d="M 89.65649057296885 81.72400993836675 l -9.368232406702248 -16.552769015951245 a40.01993534482759,40.01993534482759 0 0,0 0.600786533670186,-0.33324616277638064 l 9.082701684875959 16.71114809416077" fill="#ff700a" stroke="none" /><path d="M 89.97174638481275 81.54914285379989 l -6.007106422028477 -11.052399222035339 a33.579382183908045,33.579382183908045 0 0,0 0.5088254747570002,-0.2709209055992582 l 5.816492131484916 11.153890595357172" fill="#ff0000" stroke="none" /><path d="M 90.28995756902619 81.37971332152246 l -23.34473473459609 -44.7666069722413 a71.48787715517241,71.48787715517241 0 0,0 1.0929910158099683,-0.5580890005418947 l 22.57281649707254 45.160753924456024" fill="#3aff92" stroke="none" /><path d="M 90.93487009805054 81.0573650232925 l -21.786376910546032 -45.52514853567542 a71.46964798850576,71.46964798850576 0 0,0 1.111221270660789,-0.5201076635204867 l 21.001666926013723 45.892432430766455" fill="#3aff91" stroke="none" /><path d="M 93.61358852112211 79.99465700312896 l -19.15923443663367 -60.01602899061309 a84.0,84.0 0 0,0 1.3774374685135353,-0.4267336487734319 l 18.126156335248517 60.33607922719316" fill="#4dd2ff" stroke="none" /><path d="M 94.6519064749342 79.69241777938228 l -12.826747895590811 -48.70525100056858 a71.36593031609195,71.36593031609195 0 0,0 1.1873751569756688,-0.3018261217087848 l 11.988767445389763 48.91826235411263" fill="#3aff90" stroke="none" /><path d="M 95.35216902796891 79.52079915486377 l -11.148505960031716 -49.12237429729846 a71.37158764367817,71.37158764367817 0 0,0 1.1971312168412376,-0.26090917686128573 l 10.303612326571361 49.30651493229346" fill="#3aff90" stroke="none" /><path d="M 96.05791012581881 79.37332000966035 l -11.825915627404 -61.87818771886465 a83.99811422413794,83.99811422413794 0 0,0 1.41862921726258,-0.25852150041086336 l 10.76195167659038 62.072077393206875" fill="#4dd2ff" stroke="none" /><path d="M 97.12497278360702 79.19773525538626 l -8.61423833532402 -62.32833741637768 a83.9207974137931,83.9207974137931 0 0,0 1.4287402990495583,-0.1849790360892632 l 7.543020214383667 62.46702804866734" fill="#4dd3ff" stroke="none" /><path d="M 99.27912038922189 79.0123766808444 l -1.7288768012082136 -50.33436169712002 a71.36404454022988,71.36404454022988 0 0,0 1.224697690779108,-0.031543868212684976 l 0.8645657963583616 50.356623282682754" fill="#3aff90" stroke="none" /></svg>