<?xml version="1.0" encoding="utf-8" ?>
<svg baseProfile="full" height="200mm" version="1.1" viewBox="0,0,200,200" width="200mm" xmlns="http://www.w3.org/2000/svg" xmlns:ev="http://www.w3.org/2001/xml-events" xmlns:xlink="http://www.w3.org/1999/xlink"><defs /><rect fill="#1a1a1a" height="200" width="200" x="0" y="0" /><text alignment-baseline="middle" fill="#e1ed5e" style="dominant-baseline: central; font-size:9.0px; font-family:Arial;" text-anchor="middle" x="100.0" y="100.0">2021</text><line stroke="#e1ed5e" stroke-width="0.3" x1="100.0" x2="100.0" y1="15.0" y2="10.0" /><path d="M 100.0 14.0 a86.0,86.0 0 0,1 42.46469731375804,11.215312516191453" fill="none" id="id1" stroke="none" /><text fill="#e1ed5e" style="font-size:6.75px; font-family:Arial;" text-anchor="middle"><textPath startOffset="22.20632615414155" xlink:href="#id1">January</textPath></text><line stroke="#e1ed5e" stroke-width="0.3" x1="143.23703022742887" x2="145.7803849466894" y1="26.81831364943548" y2="22.513508569990506" /><path d="M 143.74570117128098 25.957352633546492 a86.0,86.0 0 0,1 28.547481713284135,27.462654790039103" fill="none" id="id2" stroke="none" /><text fill="#e1ed5e" style="font-size:6.75px; font-family:Arial;" text-anchor="middle"><textPath startOffset="19.985693538727396" xlink:href="#id2">February</textPath></text><line stroke="#e1ed5e" stroke-width="0.3" x1="172.23445277983987" x2="176.4835382374775" y1="55.19839476539836" y2="52.563006222186495" /><path d="M 173.08426987136738 54.67131705675599 a86.0,86.0 0 0,1 12.851231095245387,41.99856678651699" fill="none" id="id3" stroke="none" /><text fill="#e1ed5e" style="font-size:6.75px; font-family:Arial;" text-anchor="middle"><textPath startOffset="22.20632615414155" xlink:href="#id3">March</textPath></text><line stroke="#e1ed5e" stroke-width="0.3" x1="184.98032266829074" x2="189.97916517819016" y1="98.17113171792111" y2="98.06355123074" /><path d="M 185.9800911702706 98.14961562048488 a86.0,86.0 0 0,1 -9.607161424134198,41.387399972396054" fill="none" id="id4" stroke="none" /><text fill="#e1ed5e" style="font-size:6.75px; font-family:Arial;" text-anchor="middle"><textPath startOffset="21.466115282336823" xlink:href="#id4">April</textPath></text><line stroke="#e1ed5e" stroke-width="0.3" x1="174.80103733775053" x2="179.2010983576182" y1="140.37084112569926" y2="142.7455964860345" /><path d="M 175.68104954172406 140.8457921977663 a86.0,86.0 0 0,1 -30.038265399797805,32.042727171017184" fill="none" id="id5" stroke="none" /><text fill="#e1ed5e" style="font-size:6.75px; font-family:Arial;" text-anchor="middle"><textPath startOffset="22.206326154141568" xlink:href="#id5">May</textPath></text><line stroke="#e1ed5e" stroke-width="0.3" x1="143.8653032363475" x2="146.44561519142675" y1="172.8068346515853" y2="177.08958963109032" /><path d="M 144.38136562736335 173.6633856474863 a86.0,86.0 0 0,1 -40.68145358897372,12.25698825130547" fill="none" id="id6" stroke="none" /><text fill="#e1ed5e" style="font-size:6.75px; font-family:Arial;" text-anchor="middle"><textPath startOffset="21.466115282336833" xlink:href="#id6">June</textPath></text><path d="M 109.2508944713604 118.85261126421891 l 23.391431827283107 47.669938568480525 a74.09973753280839,74.09973753280839 0 0,0 -1.1499126555452355,0.5520279547387101 l -22.567406503737637 -48.06552079971879" fill="#32ff2f" stroke="none" /><path d="M 104.48393922423573 120.51570834832081 l 11.582248712320935 52.993143911354366 a75.24409448818898,75.24409448818898 0 0,0 -1.267714433663616,0.26566188533077334 l -10.66834281722794 -53.18466177741168" fill="#33ff4e" stroke="none" /><path d="M 101.98527174616119 120.90594882070398 l 5.955815238483573 62.71784646211194 a84.0,84.0 0 0,0 -1.4406227290338331,0.12430299088534635 l -4.8753481917081976 -62.81107370527595" fill="#4dd2ff" stroke="none" /><path d="M 100.90346689309514 120.98055641714683 l 1.9514704220060308 45.31758230235365 a66.35958005249344,66.35958005249344 0 0,0 -1.1416364640182186,0.03932026814061628 l -1.17111360631316 -45.34445936892036" fill="#ffff18" stroke="none" /><line stroke="#e1ed5e" stroke-width="0.3" x1="102.19456741930631" x2="102.32365962044197" y1="184.97166512339345" y2="189.96999836594603" /><path d="M 102.22038585953345 185.97133177190398 a86.0,86.0 0 0,1 -42.740103519485714,-10.115201625700543" fill="none" id="id7" stroke="none" /><text fill="#e1ed5e" style="font-size:6.75px; font-family:Arial;" text-anchor="middle"><textPath startOffset="22.20632615414155" xlink:href="#id7">July</textPath></text><path d="M 99.81925306533755 120.99922214144158 l -0.44413007567350726 51.59913852027764 a72.60104986876641,72.60104986876641 0 0,0 -1.2495688561278482,-0.021512461065012454 l 1.3322586216940233 -51.583848581933474" fill="#56ff2b" stroke="none" /><path d="M 99.45781275523022 120.99299961872073 l -1.2874321172051828 49.84820688117308 a70.86482939632545,70.86482939632545 0 0,0 -1.2191438401400416,-0.04198977888947392 l 2.1452963090198676 -49.81866030385751" fill="#82ff25" stroke="none" /><path d="M 92.40401165467489 119.57807347666478 l -18.56654744098871 47.85384251298524 a72.32939632545933,72.32939632545933 0 0,0 -1.1568533242065362,-0.4603358124334234 l 19.387521841237103 -47.527159856145744" fill="#5dff2a" stroke="none" /><path d="M 92.06813273071674 119.44442032107085 l -18.94041871182243 46.43111766581915 a71.14566929133858,71.14566929133858 0 0,0 -1.129957678181732,-0.4723224011222468 l 19.736847849501626 -46.098210221676936" fill="#7bff26" stroke="none" /><line stroke="#e1ed5e" stroke-width="0.3" x1="58.666819895761336" x2="56.23545636021788" y1="174.27360380694188" y2="178.64263932499728" /><path d="M 58.180547188652646 175.14741091055294 a86.0,86.0 0 0,1 -31.652253787137756,-30.449443065178592" fill="none" id="id8" stroke="none" /><text fill="#e1ed5e" style="font-size:6.75px; font-family:Arial;" text-anchor="middle"><textPath startOffset="22.20632615414155" xlink:href="#id8">August</textPath></text><path d="M 82.44556493220864 111.52570212397912 l -42.39963225660145 27.838294406436255 a71.7217847769029,71.7217847769029 0 0,0 -0.6687036499636109,-1.0378429147039752 l 42.872540769942105 -27.10432989181083" fill="#6cff28" stroke="none" /><line stroke="#e1ed5e" stroke-width="0.3" x1="26.63291911575756" x2="22.317208475507996" y1="142.92168965132927" y2="145.44649492493687" /><path d="M 25.769776987707644 143.4266507060508 a86.0,86.0 0 0,1 -11.730757126820373,-40.83630448921669" fill="none" id="id9" stroke="none" /><text fill="#e1ed5e" style="font-size:6.75px; font-family:Arial;" text-anchor="middle"><textPath startOffset="21.46611528233685" xlink:href="#id9">September</textPath></text><path d="M 81.35079622478065 109.6543875284942 l -33.33827791488094 17.258680767410635 a58.54068241469816,58.54068241469816 0 0,0 -0.4555617234204608,-0.8988664994604817 l 33.63041830808766 -16.68226005624747" fill="#ff0000" stroke="none" /><line stroke="#e1ed5e" stroke-width="0.3" x1="15.007084014347285" x2="10.007500721073583" y1="101.09737516637583" y2="101.16192664675087" /><path d="M 14.007167355692545 101.11028546245083 a86.0,86.0 0 0,1 10.666146001902534,-42.60595125391555" fill="none" id="id10" stroke="none" /><text fill="#e1ed5e" style="font-size:6.75px; font-family:Arial;" text-anchor="middle"><textPath startOffset="22.20632615414155" xlink:href="#id10">October</textPath></text><path d="M 79.00175016825051 100.2711162175752 l -53.68450186643566 0.6931405810035735 a74.68897637795274,74.68897637795274 0 0,0 -0.005533040142639356,-1.2856836687285476 l 53.6884792038678 0.2310525659286495" fill="#31ff3e" stroke="none" /><path d="M 79.00486145842228 99.54816195383935 l -39.98680398273114 -0.8605591884038292 a60.99606299212598,60.99606299212598 0 0,0 0.03162589385052325,-1.0495094499333635 l 39.96606639442497 1.548738785762187" fill="#ff5507" stroke="none" /><path d="M 79.03285615573316 98.82574320788736 l -39.65439578195801 -2.2208291186412374 a60.71653543307087,60.71653543307087 0 0,0 0.0674225582170866,-1.0429971336876738 l 39.61029263273651 2.903085316581923" fill="#ff4c07" stroke="none" /><path d="M 81.6062741919709 89.86733742301443 l -46.01879844547214 -25.350652810249795 a73.53937007874015,73.53937007874015 0 0,0 0.6203303558865181,-1.1034984848009295 l 45.5756104482932 26.13903480498551" fill="#3fff2d" stroke="none" /><line stroke="#e1ed5e" stroke-width="0.3" x1="26.266209847984243" x2="21.928928074336255" y1="57.711370442889674" y2="55.22380399835377" /><path d="M 25.398753493254645 57.213857153982495 a86.0,86.0 0 0,1 29.58750427330803,-30.492523968695096" fill="none" id="id11" stroke="none" /><text fill="#e1ed5e" style="font-size:6.75px; font-family:Arial;" text-anchor="middle"><textPath startOffset="21.46611528233685" xlink:href="#id11">November</textPath></text><path d="M 82.54541684631803 88.32363383020206 l -43.863339105050166 -29.34268921297865 a73.77296587926509,73.77296587926509 0 0,0 0.7151605213368178,-1.0494098188884875 l 43.35175411804461 30.093377055137555" fill="#39ff2e" stroke="none" /><path d="M 84.5562425177563 85.77008943001954 l -38.182813227722015 -35.181724276973945 a72.91994750656168,72.91994750656168 0 0,0 0.858485423991469,-0.915772394148928 l 37.57156048176009 35.83376608800093" fill="#4eff2b" stroke="none" /><path d="M 85.57189188830299 84.74124197986013 l -35.28133173420225 -37.31253601600257 a72.35170603674541,72.35170603674541 0 0,0 0.9122933977391572,-0.8478772878722913 l 34.633830452668235 37.91431788994951" fill="#5cff2a" stroke="none" /><line stroke="#e1ed5e" stroke-width="0.3" x1="56.76296977257108" x2="54.21961505331056" y1="26.818313649435495" y2="22.513508569990535" /><path d="M 56.25429882871898 25.957352633546506 a86.0,86.0 0 0,1 42.26535254187918,-11.944610805530505" fill="none" id="id12" stroke="none" /><text fill="#e1ed5e" style="font-size:6.75px; font-family:Arial;" text-anchor="middle"><textPath startOffset="22.20632615414155" xlink:href="#id12">December</textPath></text><path d="M 92.57280143429618 80.3572730644239 l -18.343815880124115 -48.51392663091106 a72.86614173228345,72.86614173228345 0 0,0 1.1770230061119806,-0.4335075064568026 l 17.506010548239566 48.82249740517418" fill="#4fff2b" stroke="none" /><path d="M 92.91201910852362 80.23233633223022 l -17.564479082027525 -48.985560247577986 a73.03937007874015,73.03937007874015 0 0,0 1.1871262580836015,-0.41416504161026685 l 16.718670819880636 49.28064614236047" fill="#4bff2c" stroke="none" /><path d="M 97.47563105711357 79.15227682838746 l -4.984532276489339 -41.16519866600683 a62.46587926509186,62.46587926509186 0 0,0 1.0685630345982335,-0.12006550748362593 l 4.275202538381388 41.244900126961056" fill="#ff860c" stroke="none" /></svg>