<?xml version="1.0" encoding="utf-8" ?>
<svg baseProfile="full" height="200mm" version="1.1" viewBox="0,0,200,200" width="200mm" xmlns="http://www.w3.org/2000/svg" xmlns:ev="http://www.w3.org/2001/xml-events" xmlns:xlink="http://www.w3.org/1999/xlink"><defs /><rect fill="none" height="200" width="200" x="0" y="0" /><text alignment-baseline="middle" fill="#FFFFFF" style="dominant-baseline: central; font-size:9.0px; font-family:Arial;" text-anchor="middle" x="100.0" y="100.0">2026</text><line stroke="#FFFFFF" stroke-width="0.3" x1="100.0" x2="100.0" y1="15.0" y2="10.0" /><path d="M 100.0 14.0 a86.0,86.0 0 0,1 42.46469731375804,11.215312516191453" fill="none" id="id73" stroke="none" /><text fill="#FFFFFF" style="font-size:6.75px; font-family:Arial;" text-anchor="middle"><textPath startOffset="22.20632615414155" xlink:href="#id73">January</textPath></text><path d="M 101.08401301168833 79.027996857942 l 2.9578755506343275 -57.22493611502423 a78.30132931391421,78.30132931391421 0 0,0 1.3454329163222685,0.08116018773047952 l -3.9424705157962077 57.16554265791344" fill="#4dd2ff" stroke="none" /><path d="M 101.80526077348638 79.07773832637324 l 3.457127162794806 -40.06674282259403 a61.215613990484144,61.215613990484144 0 0,0 1.049045776424674,0.09961953691875401 l -4.146298066309724 40.0012977411601" fill="#4dd2ff" stroke="none" /><path d="M 102.52436894288641 79.15227682838746 l 6.896126144315431 -56.95226492876295 a78.36825809029165,78.36825809029165 0 0,0 1.337803156088828,0.17368524486799444 l -7.8754440289121055 56.82512136073082" fill="#4dd2ff" stroke="none" /><path d="M 103.95276090670814 79.375362276772 l 10.782518158900013 -56.26081010719255 a78.2847401300258,78.2847401300258 0 0,0 1.3212734061056222,0.2650350153699355 l -11.74935797447276 56.06687113574541" fill="#4dd2ff" stroke="none" /><path d="M 104.66035177308747 79.52364482259891 l 6.361880346034913 -27.952422457422312 a49.667253840845525,49.667253840845525 0 0,0 0.831988734991861,0.1969048530946444 l -6.842092767989298 27.8387716921868" fill="#4dd2ff" stroke="none" /><path d="M 105.71112130821622 79.79150937346287 l 15.576718813054972 -55.11736822556538 a78.2761595176697,78.2761595176697 0 0,0 1.2934568129368023,0.377595512617432 l -16.5231658437152 54.84107438402925" fill="#4dd2ff" stroke="none" /><path d="M 106.40334571778207 80.00007090966166 l 12.282130135798132 -38.36146643029503 a61.279682562742884,61.279682562742884 0 0,0 1.0018270319676872,0.3302866213263376 l -12.940639990008236 38.14436608470945" fill="#4dd2ff" stroke="none" /><path d="M 107.08798089147638 80.2323363322302 l 9.677978485415323 -26.99090567719538 a49.67354628990665,49.67354628990665 0 0,0 0.8023878496709713,0.2955262166634381 l -10.141148660858871 26.820316192725617" fill="#4dd2ff" stroke="none" /><path d="M 107.4271985657038 80.35727306442388 l 10.154703911936727 -26.85616579242462 a49.71187302509715,49.71187302509715 0 0,0 0.7977970528026985,0.30953286196657936 l -10.615484129739091 26.677390226567493" fill="#4dd2ff" stroke="none" /><path d="M 109.08828744355905 81.06846463323043 l 24.798616747756615 -51.657244879489355 a78.30132931391421,78.30132931391421 0 0,0 1.210049104459215,0.5937658403725741 l -25.68413711922626 51.222723878981945" fill="#4dd2ff" stroke="none" /><line stroke="#FFFFFF" stroke-width="0.3" x1="143.23703022742887" x2="145.7803849466894" y1="26.81831364943548" y2="22.513508569990506" /><path d="M 143.74570117128098 25.957352633546492 a86.0,86.0 0 0,1 28.547481713284135,27.462654790039103" fill="none" id="id74" stroke="none" /><text fill="#FFFFFF" style="font-size:6.75px; font-family:Arial;" text-anchor="middle"><textPath startOffset="19.985693538727396" xlink:href="#id74">February</textPath></text><path d="M 110.68208982089419 81.91981866633111 l 29.162070293375653 -49.35883594033418 a78.32993135510114,78.32993135510114 0 0,0 1.1549484808622765,0.6958435369127663 l -30.007380840455568 48.849545793962804" fill="#4dd2ff" stroke="none" /><path d="M 113.89432698308785 84.25364557470407 l 37.894376008809104 -42.94546084070426 a78.27387135437476,78.27387135437476 0 0,0 1.0026100644119902,0.9001532152164762 l -38.62799706081709 42.28680861671848" fill="#4dd2ff" stroke="none" /><path d="M 114.42810811169701 84.74124197986012 l 10.843090328703976 -11.4673448684571 a36.782034286129374,36.782034286129374 0 0,0 0.45630172693139265,0.4389618997806153 l -11.038875299247788 11.278999881914183" fill="#4dd2ff" stroke="none" /><path d="M 114.68862486808459 84.99185889309783 l 44.06587460425377 -45.02442332070654 a84.0,84.0 0 0,0 1.0246567993307099,1.0202565973995252 l -44.8343672037518 44.25923087265689" fill="#4dd2ff" stroke="none" /><path d="M 115.4437574822437 85.77008943001954 l 11.379625537392181 -10.48521086290919 a36.473704282134165,36.473704282134165 0 0,0 0.42145601401666605,0.4653822571596459 l -11.558425192024883 10.287775818479995" fill="#4dd2ff" stroke="none" /><path d="M 115.68641384162765 86.03803664274999 l 13.573137753222566 -12.081005503660519 a39.17087676606254,39.17087676606254 0 0,0 0.4439517800529671,0.5075136294255715 l -13.779081396853382 11.845576318031998" fill="#4dd2ff" stroke="none" /><path d="M 116.15771136456269 86.58626213691792 l 44.058122942580454 -36.575979020603775 a78.26185849707623,78.26185849707623 0 0,0 0.851569175213554,1.0439231181391342 l -44.68119060987041 35.81217173285654" fill="#4dd2ff" stroke="none" /><path d="M 116.82858285166822 87.43820079747576 l 45.88421635732241 -34.250555589042094 a78.25785421131005,78.25785421131005 0 0,0 0.7965061575911861,1.0864335038227542 l -46.466985127427215 33.45565964154785" fill="#4dd2ff" stroke="none" /><path d="M 117.45458315368197 88.32363383020206 l 23.815492742838842 -15.931541379771785 a49.652952820252054,49.652952820252054 0 0,0 0.469110138283439,0.7144869244023323 l -24.086199516480203 15.519236391391779" fill="#4dd2ff" stroke="none" /><path d="M 117.65298651832404 88.62581576622439 l 5.625194392856425 -3.624429062398951 a27.69173355609632,27.69173355609632 0 0,0 0.25472755881655507,0.4029178250922229 l -5.686749547918936 3.527063589592522" fill="#4dd2ff" stroke="none" /><line stroke="#FFFFFF" stroke-width="0.3" x1="172.23445277983987" x2="176.4835382374775" y1="55.19839476539836" y2="52.563006222186495" /><path d="M 173.08426987136738 54.67131705675599 a86.0,86.0 0 0,1 12.851231095245387,41.99856678651699" fill="none" id="id75" stroke="none" /><text fill="#FFFFFF" style="font-size:6.75px; font-family:Arial;" text-anchor="middle"><textPath startOffset="22.20632615414155" xlink:href="#id75">March</textPath></text><path d="M 117.84615892207809 88.93136811851018 l 48.65335570220301 -30.17602198984342 a78.25156176224893,78.25156176224893 0 0,0 0.7001062959312564,1.1507906699551873 l -49.165577796420486 29.33406354668115" fill="#4dd2ff" stroke="none" /><path d="M 118.56541770881063 90.18545643968196 l 50.632957387665364 -26.76693698268558 a78.27272727272727,78.27272727272727 0 0,0 0.6194375673122935,1.1965562170296238 l -51.08620438813777 25.89140804339561" fill="#4dd2ff" stroke="none" /><path d="M 118.89224826269711 90.83032412892265 l 51.538722960064 -25.015200826371625 a78.28874441579194,78.28874441579194 0 0,0 0.5780013493374051,1.2174182504264834 l -51.96168250324317 24.1243401603046" fill="#4dd2ff" stroke="none" /><path d="M 119.34039704204932 91.81776055985345 l 52.73389339122969 -22.30984924456767 a78.25899829295754,78.25899829295754 0 0,0 0.514192598592297,1.245158162882317 l -53.11010767670819 21.39881651123205" fill="#4dd2ff" stroke="none" /><line stroke="#FFFFFF" stroke-width="0.3" x1="184.98032266829074" x2="189.97916517819016" y1="98.17113171792111" y2="98.06355123074" /><path d="M 185.9800911702706 98.14961562048488 a86.0,86.0 0 0,1 -9.607161424134198,41.387399972396054" fill="none" id="id76" stroke="none" /><text fill="#FFFFFF" style="font-size:6.75px; font-family:Arial;" text-anchor="middle"><textPath startOffset="21.466115282336823" xlink:href="#id76">April</textPath></text><line stroke="#FFFFFF" stroke-width="0.3" x1="174.80103733775053" x2="179.2010983576182" y1="140.37084112569926" y2="142.7455964860345" /><path d="M 175.68104954172406 140.8457921977663 a86.0,86.0 0 0,1 -30.038265399797805,32.042727171017184" fill="none" id="id77" stroke="none" /><text fill="#FFFFFF" style="font-size:6.75px; font-family:Arial;" text-anchor="middle"><textPath startOffset="22.206326154141568" xlink:href="#id77">May</textPath></text><line stroke="#FFFFFF" stroke-width="0.3" x1="143.8653032363475" x2="146.44561519142675" y1="172.8068346515853" y2="177.08958963109032" /><path d="M 144.38136562736335 173.6633856474863 a86.0,86.0 0 0,1 -40.68145358897372,12.25698825130547" fill="none" id="id78" stroke="none" /><text fill="#FFFFFF" style="font-size:6.75px; font-family:Arial;" text-anchor="middle"><textPath startOffset="21.466115282336833" xlink:href="#id78">June</textPath></text><line stroke="#FFFFFF" stroke-width="0.3" x1="102.19456741930631" x2="102.32365962044197" y1="184.97166512339345" y2="189.96999836594603" /><path d="M 102.22038585953345 185.97133177190398 a86.0,86.0 0 0,1 -42.740103519485714,-10.115201625700543" fill="none" id="id79" stroke="none" /><text fill="#FFFFFF" style="font-size:6.75px; font-family:Arial;" text-anchor="middle"><textPath startOffset="22.20632615414155" xlink:href="#id79">July</textPath></text><line stroke="#FFFFFF" stroke-width="0.3" x1="58.666819895761336" x2="56.23545636021788" y1="174.27360380694188" y2="178.64263932499728" /><path d="M 58.180547188652646 175.14741091055294 a86.0,86.0 0 0,1 -31.652253787137756,-30.449443065178592" fill="none" id="id80" stroke="none" /><text fill="#FFFFFF" style="font-size:6.75px; font-family:Arial;" text-anchor="middle"><textPath startOffset="22.20632615414155" xlink:href="#id80">August</textPath></text><line stroke="#FFFFFF" stroke-width="0.3" x1="26.63291911575756" x2="22.317208475507996" y1="142.92168965132927" y2="145.44649492493687" /><path d="M 25.769776987707644 143.4266507060508 a86.0,86.0 0 0,1 -11.730757126820373,-40.83630448921669" fill="none" id="id81" stroke="none" /><text fill="#FFFFFF" style="font-size:6.75px; font-family:Arial;" text-anchor="middle"><textPath startOffset="21.46611528233685" xlink:href="#id81">September</textPath></text><line stroke="#FFFFFF" stroke-width="0.3" x1="15.007084014347285" x2="10.007500721073583" y1="101.09737516637583" y2="101.16192664675087" /><path d="M 14.007167355692545 101.11028546245083 a86.0,86.0 0 0,1 10.666146001902534,-42.60595125391555" fill="none" id="id82" stroke="none" /><text fill="#FFFFFF" style="font-size:6.75px; font-family:Arial;" text-anchor="middle"><textPath startOffset="22.20632615414155" xlink:href="#id82">October</textPath></text><line stroke="#FFFFFF" stroke-width="0.3" x1="26.266209847984243" x2="21.928928074336255" y1="57.711370442889674" y2="55.22380399835377" /><path d="M 25.398753493254645 57.213857153982495 a86.0,86.0 0 0,1 29.58750427330803,-30.492523968695096" fill="none" id="id83" stroke="none" /><text fill="#FFFFFF" style="font-size:6.75px; font-family:Arial;" text-anchor="middle"><textPath startOffset="21.46611528233685" xlink:href="#id83">November</textPath></text><line stroke="#FFFFFF" stroke-width="0.3" x1="56.762969772571076" x2="54.21961505331055" y1="26.818313649435495" y2="22.513508569990535" /><path d="M 56.25429882871897 25.957352633546506 a86.0,86.0 0 0,1 42.265352541879196,-11.944610805530505" fill="none" id="id84" stroke="none" /><text fill="#FFFFFF" style="font-size:6.75px; font-family:Arial;" text-anchor="middle"><textPath startOffset="22.20632615414155" xlink:href="#id84">December</textPath></text></svg>