<?xml version="1.0" encoding="utf-8" ?>
<svg baseProfile="full" height="200mm" version="1.1" viewBox="0,0,200,200" width="200mm" xmlns="http://www.w3.org/2000/svg" xmlns:ev="http://www.w3.org/2001/xml-events" xmlns:xlink="http://www.w3.org/1999/xlink"><defs /><rect fill="none" height="200" width="200" x="0" y="0" /><text alignment-baseline="middle" fill="#FFFFFF" style="dominant-baseline: central; font-size:9.0px; font-family:Arial;" text-anchor="middle" x="100.0" y="100.0">2021</text><line stroke="#FFFFFF" stroke-width="0.3" x1="100.0" x2="100.0" y1="15.0" y2="10.0" /><path d="M 100.0 14.0 a86.0,86.0 0 0,1 42.46469731375804,11.215312516191453" fill="none" id="id13" stroke="none" /><text fill="#FFFFFF" style="font-size:6.75px; font-family:Arial;" text-anchor="middle"><textPath startOffset="22.20632615414155" xlink:href="#id13">January</textPath></text><path d="M 100.0 79.0 l 0.0 -39.64758104738154 a60.64758104738154,60.64758104738154 0 0,0 1.043948412558428,0.00898559357316672 l -0.6824679332858996 39.641706830416936" fill="#4dd2ff" stroke="none" /><path d="M 100.36148047927253 79.00311137660856 l 0.6819541081657366 -39.611860879007125 a60.6177306733167,60.6177306733167 0 0,0 1.0431253952508441,0.02694085143964411 l -1.3637061386114486 39.59425323542512" fill="#4dd2ff" stroke="none" /><path d="M 100.72285384407766 79.0124445844662 l 1.0949613372540472 -31.791436030624983 a52.81028678304239,52.81028678304239 0 0,0 0.9082342483735371,0.03911047725645609 l -1.6420364180169158 31.767877826844334" fill="#4dd2ff" stroke="none" /><path d="M 102.88285421437855 79.19881850522331 l 5.4352226226848455 -39.217748741885316 a60.592593516209476,60.592593516209476 0 0,0 1.0318948094130485,0.15207447129983565 l -6.109486412526549 39.11837978642451" fill="#4dd2ff" stroke="none" /><path d="M 103.2404852339499 79.25152402106235 l 4.902910726040115 -31.392806348980177 a52.77336658354115,52.77336658354115 0 0,0 0.8963199311464656,0.14790046860469186 l -5.442559863325456 31.30375961743586" fill="#4dd2ff" stroke="none" /><path d="M 104.307194497241 79.44645832069477 l 8.151070204859836 -38.896168095925084 a60.74105985037407,60.74105985037407 0 0,0 1.021483201370744,0.22325666341903522 l -8.819396130384108 38.75009793441018" fill="#4dd2ff" stroke="none" /><path d="M 105.36241919743992 79.69619591428918 l 10.092848541336187 -38.21469599912567 a60.5250374064838,60.5250374064838 0 0,0 1.005009918974036,0.2747071753252354 l -10.749156349533934 38.035302282974136" fill="#4dd2ff" stroke="none" /><path d="M 105.71112130821622 79.79150937346287 l 10.749369982500573 -38.03605821155118 a60.52582294264339,60.52582294264339 0 0,0 1.0001453638779563,0.2919698575076405 l -11.402505564101956 37.845390025124836" fill="#4dd2ff" stroke="none" /><path d="M 107.76421540070413 80.48803036053334 l 14.58781837206611 -36.6601201141321 a60.4559102244389,60.4559102244389 0 0,0 0.9635984919445729,0.3930760193814274 l -15.21670073359907 36.40358320856709" fill="#4dd2ff" stroke="none" /><path d="M 108.09893153111575 80.62456947434976 l 15.3960486438143 -36.832645111479245 a60.92094763092269,60.92094763092269 0 0,0 0.9640485899314869,0.41275529456579907 l -16.0277809915361 36.562170288950654" fill="#4dd2ff" stroke="none" /><path d="M 109.08828744355905 81.06846463323043 l 17.08065434015228 -35.5801919488505 a60.46769326683292,60.46769326683292 0 0,0 0.9344525658422443,0.45853181577585267 l -17.690578173004955 35.28090497293981" fill="#4dd2ff" stroke="none" /><path d="M 110.05341064243156 81.56283822128135 l 18.750488327866734 -34.38691594589446 a60.16683291770573,60.16683291770573 0 0,0 0.9050120550252806,0.5036382287858087 l -19.33962447196405 34.059062319548474" fill="#4dd2ff" stroke="none" /><path d="M 110.36928655335952 81.73862282372117 l 15.81535997231974 -27.85247105931146 a53.02945137157107,53.02945137157107 0 0,0 0.78989455545707,0.45755791068643875 l -16.29245126024214 27.57610899123497" fill="#4dd2ff" stroke="none" /><line stroke="#FFFFFF" stroke-width="0.3" x1="143.23703022742887" x2="145.7803849466894" y1="26.81831364943548" y2="22.513508569990506" /><path d="M 143.74570117128098 25.957352633546492 a86.0,86.0 0 0,1 28.547481713284135,27.462654790039103" fill="none" id="id14" stroke="none" /><text fill="#FFFFFF" style="font-size:6.75px; font-family:Arial;" text-anchor="middle"><textPath startOffset="19.985693538727396" xlink:href="#id14">February</textPath></text><path d="M 111.2981086023043 82.29822771554956 l 24.1668233493354 -37.864355780862695 a65.91931421446384,65.91931421446384 0 0,0 0.9512250402223598,0.618703226206521 l -24.81501541534204 37.44275363049665" fill="#4dd2ff" stroke="none" /><path d="M 113.06298171725822 83.55741782278167 l 22.50334776901095 -28.325320586313047 a57.17629675810474,57.17629675810474 0 0,0 0.7653363191129212,0.6188487444825739 l -22.987587486688362 27.933765744566344" fill="#4dd2ff" stroke="none" /><path d="M 113.6212207817346 84.01681056812373 l 20.615259083378387 -24.190019117719967 a52.782793017456356,52.782793017456356 0 0,0 0.6864432427529336,0.5952768157912992 l -21.028596124778087 23.831577308508994" fill="#4dd2ff" stroke="none" /><path d="M 114.42810811169701 84.74124197986012 l 26.209683824002813 -27.718618418904725 a59.14799251870325,59.14799251870325 0 0,0 0.733763959895685,0.7058803480592317 l -26.682931027510918 27.263354984083193" fill="#4dd2ff" stroke="none" /><path d="M 114.68862486808459 84.99185889309783 l 22.852716415712248 -23.34982312661878 a53.672019950124685,53.672019950124685 0 0,0 0.6547071449489198,0.6518956244032577 l -23.251259360828488 22.952991651565405" fill="#4dd2ff" stroke="none" /><path d="M 115.4437574822437 85.77008943001954 l 7.153617789374949 -6.591358450925241 a30.72729426433915,30.72729426433915 0 0,0 0.3550558742811575,0.3920615644227642 l -7.266017304272142 6.467244099232927" fill="#4dd2ff" stroke="none" /><path d="M 117.65298651832404 88.62581576622439 l 12.27630943998113 -7.909880015839988 a35.60390274314214,35.60390274314214 0 0,0 0.3275091179008562,0.518040773034367 l -12.41064615412794 7.697391595091415" fill="#4dd2ff" stroke="none" /><line stroke="#FFFFFF" stroke-width="0.3" x1="172.23445277983987" x2="176.4835382374775" y1="55.19839476539836" y2="52.563006222186495" /><path d="M 173.08426987136738 54.67131705675599 a86.0,86.0 0 0,1 12.851231095245387,41.99856678651699" fill="none" id="id15" stroke="none" /><text fill="#FFFFFF" style="font-size:6.75px; font-family:Arial;" text-anchor="middle"><textPath startOffset="22.20632615414155" xlink:href="#id15">March</textPath></text><path d="M 120.87857604477298 97.74499172005257 l 39.24964031319619 -4.239190627819378 a60.47790523690774,60.47790523690774 0 0,0 0.10287831465619711,1.0359705888311481 l -39.31679575353461 3.562944508283795" fill="#4dd2ff" stroke="none" /><path d="M 120.91429891909075 98.10471618934814 l 9.311296224501927 -0.8438030391912152 a30.34945137157107,30.34945137157107 0 0,0 0.04267062940670376,0.5206897595026977 l -9.324441337728127 0.6833993624807488" fill="#4dd2ff" stroke="none" /><line stroke="#FFFFFF" stroke-width="0.3" x1="184.98032266829074" x2="189.97916517819016" y1="98.17113171792111" y2="98.06355123074" /><path d="M 185.9800911702706 98.14961562048488 a86.0,86.0 0 0,1 -9.607161424134198,41.387399972396054" fill="none" id="id16" stroke="none" /><text fill="#FFFFFF" style="font-size:6.75px; font-family:Arial;" text-anchor="middle"><textPath startOffset="21.466115282336823" xlink:href="#id16">April</textPath></text><path d="M 120.99980553446 99.90962569577887 l 33.34570118221297 -0.14350583095462485 a54.346009975062344,54.346009975062344 0 0,0 -0.004026011191566703,0.9355032144491925 l -33.3432308737319 -0.43050686169825236" fill="#4dd2ff" stroke="none" /><path d="M 120.9764740272857 100.99374915477107 l 39.55843908050906 1.8740597370741847 a60.60280548628429,60.60280548628429 0 0,0 -0.058333516444336424,1.0415841223534656 l -39.520319213177196 -2.5547155757630735" fill="#4dd2ff" stroke="none" /><path d="M 120.92983693683757 101.71520430193887 l 39.897958359283535 3.2696456270987584 a61.03170822942644,61.03170822942644 0 0,0 -0.09481829147070386,1.0463119452984233 l -39.83576547153575 -3.955938960945752" fill="#4dd2ff" stroke="none" /><path d="M 120.32669344350535 105.2749913415812 l 38.015225390084915 9.865351949066168 a60.27445137157107,60.27445137157107 0 0,0 -0.2692601062195755,1.002017022461189 l -37.83977720752356 -10.518259904702905" fill="#4dd2ff" stroke="none" /><path d="M 119.54520255179757 107.68017299344265 l 36.99234215137038 14.535924424534327 a60.74577306733167,60.74577306733167 0 0,0 -0.3907902445862071,0.9699093385882525 l -36.736649292526785 -15.170533130965392" fill="#4dd2ff" stroke="none" /><line stroke="#FFFFFF" stroke-width="0.3" x1="174.80103733775053" x2="179.2010983576182" y1="140.37084112569926" y2="142.7455964860345" /><path d="M 175.68104954172406 140.8457921977663 a86.0,86.0 0 0,1 -30.038265399797805,32.042727171017184" fill="none" id="id17" stroke="none" /><text fill="#FFFFFF" style="font-size:6.75px; font-family:Arial;" text-anchor="middle"><textPath startOffset="22.206326154141568" xlink:href="#id17">May</textPath></text><path d="M 118.12598468904814 110.60418214915192 l 21.717958188587314 12.705581985766287 a46.16150872817955,46.16150872817955 0 0,0 -0.40714258205152654,0.6823943863159232 l -21.49603473083756 -13.077538465968313" fill="#4dd2ff" stroke="none" /><path d="M 117.14729908036423 112.12312394758627 l 48.74793254766891 34.46474139712806 a80.70074812967582,80.70074812967582 0 0,0 -0.81169660835211,1.1273755960094936 l -48.147456146941195 -35.29875059858868" fill="#4dd2ff" stroke="none" /><path d="M 115.56566222782051 114.09645910891815 l 30.05143237789048 27.214954396364732 a61.54309226932668,61.54309226932668 0 0,0 -0.7178667387820067,0.7791025645450557 l -29.57851923111275 -27.728208215711124" fill="#4dd2ff" stroke="none" /><path d="M 114.0293411484842 115.62618273729858 l 34.583550437098836 38.51990432872728 a72.76683291770573,72.76683291770573 0 0,0 -0.9392384055767988,0.82876868954465 l -33.91536967861545 -39.109496160044216" fill="#4dd2ff" stroke="none" /><path d="M 112.92097659922987 116.55440617244103 l 17.099671986439674 21.908167181101923 a48.79148379052369,48.79148379052369 0 0,0 -0.6665178568417439,0.5110574708467966 l -16.720025401104436 -22.19926399377609" fill="#4dd2ff" stroke="none" /><line stroke="#FFFFFF" stroke-width="0.3" x1="143.8653032363475" x2="146.44561519142675" y1="172.8068346515853" y2="177.08958963109032" /><path d="M 144.38136562736335 173.6633856474863 a86.0,86.0 0 0,1 -40.68145358897372,12.25698825130547" fill="none" id="id18" stroke="none" /><text fill="#FFFFFF" style="font-size:6.75px; font-family:Arial;" text-anchor="middle"><textPath startOffset="21.466115282336833" xlink:href="#id18">June</textPath></text><path d="M 109.57404056367764 118.69057910512821 l 12.071886258869542 23.5669092447255 a47.478852867830426,47.478852867830426 0 0,0 -0.730600274854503,0.36633814482495897 l -11.664432076332279 -23.771215230459763" fill="#4dd2ff" stroke="none" /><path d="M 109.2508944713604 118.85261126421891 l 14.001609430181457 28.534202879282745 a52.78436408977556,52.78436408977556 0 0,0 -0.8191312183105371,0.39323276331121804 l -13.508365543870687 -28.770989919093523" fill="#4dd2ff" stroke="none" /><path d="M 108.59647513512805 119.15986991738527 l 10.386514221869174 23.149518640830834 a46.37281795511222,46.37281795511222 0 0,0 -0.7310991087046359,0.3204923642338167 l -9.986494438506785 -23.324875558359107" fill="#4dd2ff" stroke="none" /><path d="M 105.88484417918355 120.15858648285463 l 6.934136844549198 23.75294791308931 a45.744389027431424,45.744389027431424 0 0,0 -0.7577641512733838,0.21415171825138063 l -6.524241525171209 -23.868788424679213" fill="#4dd2ff" stroke="none" /><path d="M 104.48393922423573 120.51570834832081 l 6.9328856818413795 31.720559434020913 a53.46935162094763,53.46935162094763 0 0,0 -0.9008530073964856,0.1887825065296613 l -6.385841213015516 -31.835197921277114" fill="#4dd2ff" stroke="none" /><path d="M 101.98527174616119 120.90594882070398 l 3.5650232710553915 37.54155782119883 a58.71044887780549,58.71044887780549 0 0,0 -1.0069000843469702,0.08687957609205296 l -2.9182788689668797 -37.59736164956954" fill="#4dd2ff" stroke="none" /><path d="M 100.90346689309514 120.98055641714683 l 1.1681083426286973 27.126132867915082 a48.15127182044888,48.15127182044888 0 0,0 -0.8283845023671428,0.028531237204847407 l -0.7010034885869023 -27.142220903546022" fill="#4dd2ff" stroke="none" /><line stroke="#FFFFFF" stroke-width="0.3" x1="102.19456741930631" x2="102.32365962044197" y1="184.97166512339345" y2="189.96999836594603" /><path d="M 102.22038585953345 185.97133177190398 a86.0,86.0 0 0,1 -42.740103519485714,-10.115201625700543" fill="none" id="id19" stroke="none" /><text fill="#FFFFFF" style="font-size:6.75px; font-family:Arial;" text-anchor="middle"><textPath startOffset="22.20632615414155" xlink:href="#id19">July</textPath></text><path d="M 99.81925306533755 120.99922214144158 l -0.26584673831399486 30.88613770329736 a51.88728179551122,51.88728179551122 0 0,0 -0.8930550106093381,-0.015374751899772091 l 0.7974614388160008 -30.876985474118428" fill="#4dd2ff" stroke="none" /><path d="M 99.45781275523022 120.99299961872073 l -0.7706292545954117 29.838067575281737 a50.8480174563591,50.8480174563591 0 0,0 -0.8747787554607156,-0.03012914908776087 l 1.2841283617307704 -29.820381627767883" fill="#4dd2ff" stroke="none" /><path d="M 98.01472825383883 120.90594882070398 l -3.1561365041839156 33.235766516705205 a54.385286783042396,54.385286783042396 0 0,0 -0.9311988738780332,-0.09652257071993137 l 3.727767974667542 -33.17651457752952" fill="#4dd2ff" stroke="none" /><path d="M 93.42475214034765 119.94407469862007 l -10.699125257913115 32.45264025149525 a55.17082294264339,55.17082294264339 0 0,0 -0.8993639310489592,-0.3051130755681481 l 11.2561589218993 -32.26366418902897" fill="#4dd2ff" stroke="none" /><path d="M 92.40401165467489 119.57807347666478 l -11.113537112869126 28.64428383638864 a51.72467581047382,51.72467581047382 0 0,0 -0.827296593014556,-0.32919838781633437 l 11.60495478192554 -28.44873860416624" fill="#4dd2ff" stroke="none" /><path d="M 92.06813273071674 119.44442032107085 l -11.337328437403336 27.792671255178483 a51.01612219451371,51.01612219451371 0 0,0 -0.8102539417921562,-0.33868621338266286 l 11.814053838692955 -27.593399998775848" fill="#4dd2ff" stroke="none" /><path d="M 91.40352486487194 119.15986991738527 l -9.743386406273565 21.716111913844404 a44.80174563591022,44.80174563591022 0 0,0 -0.7008955850897074,-0.3217467863571057 l 10.115749987130691 -21.545178057153226" fill="#4dd2ff" stroke="none" /><line stroke="#FFFFFF" stroke-width="0.3" x1="58.666819895761336" x2="56.23545636021788" y1="174.27360380694188" y2="178.64263932499728" /><path d="M 58.180547188652646 175.14741091055294 a86.0,86.0 0 0,1 -31.652253787137756,-30.449443065178592" fill="none" id="id20" stroke="none" /><text fill="#FFFFFF" style="font-size:6.75px; font-family:Arial;" text-anchor="middle"><textPath startOffset="22.20632615414155" xlink:href="#id20">August</textPath></text><path d="M 89.1626897886671 117.98757091392108 l -16.29650388387467 27.04864154886387 a52.578553615960104,52.578553615960104 0 0,0 -0.7712041976757159,-0.47373660674391116 l 16.759687281482694 -26.76411647529158" fill="#4dd2ff" stroke="none" /><path d="M 87.07902340077011 116.55440617244103 l -19.381464898844825 24.831609258661548 a52.5,52.5 0 0,0 -0.7076062682066048,-0.5621652149871734 l 19.806028659768785 -24.494310129669245" fill="#4dd2ff" stroke="none" /><path d="M 85.18274418774928 114.88116024355367 l -44.45176743675218 44.64348073066098 a84.0,84.0 0 0,0 -1.015837499777867,-1.0290380240773414 l 45.21364556158558 -43.871702212602976" fill="#4dd2ff" stroke="none" /><path d="M 84.67929136418377 114.36230785411682 l -24.356488167912346 22.832846027430115 a54.385286783042396,54.385286783042396 0 0,0 -0.6343748261756436,-0.6884885832638568 l 24.74590940208372 -22.410206189364917" fill="#4dd2ff" stroke="none" /><path d="M 83.50135304334701 112.99209946851258 l -25.118264256949253 19.779742457673148 a52.971321695760594,52.971321695760594 0 0,0 -0.5579473924786128,-0.7212222168440022 l 25.45501846664593 -19.344442246715893" fill="#4dd2ff" stroke="none" /><path d="M 83.06392112726016 112.41649034213515 l -25.594174057058208 18.764072686618196 a52.7356608478803,52.7356608478803 0 0,0 -0.5304208206428012,-0.7367081279568616 l 25.913374670076614 -18.32073095321019" fill="#4dd2ff" stroke="none" /><path d="M 82.44556493220864 111.52570212397912 l -25.379510550005097 16.663406000939883 a51.36097256857855,51.36097256857855 0 0,0 -0.47886803053107846,-0.7432138176484778 l 25.662583443913224 -16.224070583369958" fill="#4dd2ff" stroke="none" /><line stroke="#FFFFFF" stroke-width="0.3" x1="26.63291911575756" x2="22.317208475507996" y1="142.92168965132927" y2="145.44649492493687" /><path d="M 25.769776987707644 143.4266507060508 a86.0,86.0 0 0,1 -11.730757126820373,-40.83630448921669" fill="none" id="id21" stroke="none" /><text fill="#FFFFFF" style="font-size:6.75px; font-family:Arial;" text-anchor="middle"><textPath startOffset="21.46611528233685" xlink:href="#id21">September</textPath></text><path d="M 81.35079622478065 109.6543875284942 l -19.955578174336335 10.330676171076243 a43.47104738154613,43.47104738154613 0 0,0 -0.33829030423221407,-0.6674788638596464 l 20.130447148354815 -9.985643095513911" fill="#4dd2ff" stroke="none" /><line stroke="#FFFFFF" stroke-width="0.3" x1="15.007084014347285" x2="10.007500721073583" y1="101.09737516637583" y2="101.16192664675087" /><path d="M 14.007167355692545 101.11028546245083 a86.0,86.0 0 0,1 10.666146001902534,-42.60595125391555" fill="none" id="id22" stroke="none" /><text fill="#FFFFFF" style="font-size:6.75px; font-family:Arial;" text-anchor="middle"><textPath startOffset="22.20632615414155" xlink:href="#id22">October</textPath></text><path d="M 79.00175016825051 100.2711162175752 l -32.134391478804375 0.4148990864296453 a53.137069825436406,53.137069825436406 0 0,0 -0.003936451597871384,-0.9146927189487972 l 32.13677222769174 0.1383031107228273" fill="#4dd2ff" stroke="none" /><path d="M 79.00486145842228 99.54816195383935 l -23.935243291708115 -0.5151122742956885 a44.940785536159595,44.940785536159595 0 0,0 0.023301381158144414,-0.7732594005897853 l 23.922830216094326 0.9270418223104682" fill="#4dd2ff" stroke="none" /><path d="M 79.03285615573316 98.82574320788736 l -23.736270871679253 -1.3293406816644793 a44.77346633416459,44.77346633416459 0 0,0 0.04971860826650102,-0.769124863905848 l 23.709871672408337 1.737724609823339" fill="#4dd2ff" stroke="none" /><path d="M 79.46518482838121 95.60439243477599 l -31.339917419029184 -6.70850830403265 a53.0498753117207,53.0498753117207 0 0,0 0.19882490266068809,-0.8912930529822726 l 31.219798129366456 7.246979526564882" fill="#4dd2ff" stroke="none" /><path d="M 81.6062741919709 89.86733742301443 l -27.545865812635117 -15.174357092379703 a52.44894014962594,52.44894014962594 0 0,0 0.44242518903889877,-0.7870250441709848 l 27.28058298230379 15.646265646485471" fill="#4dd2ff" stroke="none" /><line stroke="#FFFFFF" stroke-width="0.3" x1="26.266209847984243" x2="21.928928074336255" y1="57.711370442889674" y2="55.22380399835377" /><path d="M 25.398753493254645 57.213857153982495 a86.0,86.0 0 0,1 29.58750427330803,-30.492523968695096" fill="none" id="id23" stroke="none" /><text fill="#FFFFFF" style="font-size:6.75px; font-family:Arial;" text-anchor="middle"><textPath startOffset="21.46611528233685" xlink:href="#id23">November</textPath></text><path d="M 82.54541684631803 88.32363383020206 l -26.255654078267316 -17.5639044683074 a52.58876558603492,52.58876558603492 0 0,0 0.5097993359046865,-0.7480676195061468 l 25.94943027669389 18.013250111083963" fill="#4dd2ff" stroke="none" /><path d="M 84.5562425177563 85.77008943001954 l -22.855413114838193 -21.05902563142658 a52.07816708229427,52.07816708229427 0 0,0 0.6131154626012162,-0.6540288272636097 l 22.48953033026652 21.449323875568236" fill="#4dd2ff" stroke="none" /><path d="M 85.57189188830299 84.74124197986013 l -21.118648519103655 -22.334483840202235 a51.738029925187035,51.738029925187035 0 0,0 0.6523724967702541,-0.6063091376248123 l 20.731068138538543 22.6946975639017" fill="#4dd2ff" stroke="none" /><line stroke="#FFFFFF" stroke-width="0.3" x1="56.76296977257108" x2="54.21961505331056" y1="26.818313649435495" y2="22.513508569990535" /><path d="M 56.25429882871898 25.957352633546506 a86.0,86.0 0 0,1 42.26535254187918,-11.944610805530505" fill="none" id="id24" stroke="none" /><text fill="#FFFFFF" style="font-size:6.75px; font-family:Arial;" text-anchor="middle"><textPath startOffset="22.20632615414155" xlink:href="#id24">December</textPath></text><path d="M 92.57280143429618 80.3572730644239 l -10.980214777322173 -29.03939603296155 a52.045960099750616,52.045960099750616 0 0,0 0.8407099779986245,-0.3096405799402559 l 10.47872247355098 29.224099880708128" fill="#4dd2ff" stroke="none" /><path d="M 92.91201910852362 80.23233633223022 l -10.513720483937824 -29.321705801062713 a52.14965087281796,52.14965087281796 0 0,0 0.8476006821290271,-0.2957112349191565 l 10.007437797745512 29.49833788915408" fill="#4dd2ff" stroke="none" /><path d="M 97.47563105711357 79.15227682838746 l -2.983634120513057 -24.640605076812022 a45.820586034912715,45.820586034912715 0 0,0 0.7838228651637273,-0.08807163174846008 l 2.559044551839612 24.68831266203108" fill="#4dd2ff" stroke="none" /></svg>