<?xml version="1.0" encoding="utf-8" ?>
<svg baseProfile="full" height="200mm" version="1.1" viewBox="0,0,200,200" width="200mm" xmlns="http://www.w3.org/2000/svg" xmlns:ev="http://www.w3.org/2001/xml-events" xmlns:xlink="http://www.w3.org/1999/xlink"><defs /><rect fill="#1a1a1a" height="200" width="200" x="0" y="0" /><text alignment-baseline="middle" fill="#e1ed5e" style="dominant-baseline: central; font-size:9.0px; font-family:Arial;" text-anchor="middle" x="100.0" y="100.0">2020</text><line stroke="#e1ed5e" stroke-width="0.3" x1="100.0" x2="100.0" y1="15.0" y2="10.0" /><path d="M 100.0 14.0 a86.0,86.0 0 0,1 42.35913384403234,11.155469271406648" fill="none" id="id1" stroke="none" /><text fill="#e1ed5e" style="font-size:6.75px; font-family:Arial;" text-anchor="middle"><textPath startOffset="22.145653131862478" xlink:href="#id1">January</textPath></text><line stroke="#e1ed5e" stroke-width="0.3" x1="143.13028292997686" x2="145.6673583964461" y1="26.7553504044142" y2="22.446841604673864" /><path d="M 143.63769802327073 25.89364864446614 a86.0,86.0 0 0,1 29.32050498858742,28.57503671076993" fill="none" id="id2" stroke="none" /><text fill="#e1ed5e" style="font-size:6.75px; font-family:Arial;" text-anchor="middle"><textPath startOffset="20.669276256404974" xlink:href="#id2">February</textPath></text><line stroke="#e1ed5e" stroke-width="0.3" x1="172.87174338648825" x2="177.1583165268699" y1="56.24261187166439" y2="53.66864786411523" /><path d="M 173.72905801456457 55.72781907015455 a86.0,86.0 0 0,1 12.242430191666344,42.057860355516425" fill="none" id="id3" stroke="none" /><text fill="#e1ed5e" style="font-size:6.75px; font-family:Arial;" text-anchor="middle"><textPath startOffset="22.145653131862474" xlink:href="#id3">March</textPath></text><line stroke="#e1ed5e" stroke-width="0.3" x1="184.99686870605535" x2="189.99668451229388" y1="99.2704041080226" y2="99.22748670261217" /><path d="M 185.99683186730306 99.26182062694052 a86.0,86.0 0 0,1 -10.086455211305974,41.156179273409016" fill="none" id="id4" stroke="none" /><text fill="#e1ed5e" style="font-size:6.75px; font-family:Arial;" text-anchor="middle"><textPath startOffset="21.40746469413373" xlink:href="#id4">April</textPath></text><line stroke="#e1ed5e" stroke-width="0.3" x1="174.33088141563837" x2="178.70328620479359" y1="141.23008692659167" y2="143.65538615756765" /><path d="M 175.20536237346943 141.71514677278685 a86.0,86.0 0 0,1 -30.301960400862466,31.631185727798858" fill="none" id="id5" stroke="none" /><text fill="#e1ed5e" style="font-size:6.75px; font-family:Arial;" text-anchor="middle"><textPath startOffset="22.145653131862474" xlink:href="#id5">May</textPath></text><line stroke="#e1ed5e" stroke-width="0.3" x1="143.1302829299769" x2="145.66735839644613" y1="173.24464959558577" y2="177.55315839532614" /><path d="M 143.63769802327073 174.10635135553383 a86.0,86.0 0 0,1 -40.68552437913181,11.842963189579606" fill="none" id="id6" stroke="none" /><text fill="#e1ed5e" style="font-size:6.75px; font-family:Arial;" text-anchor="middle"><textPath startOffset="21.407464694133747" xlink:href="#id6">June</textPath></text><line stroke="#e1ed5e" stroke-width="0.3" x1="101.45913802915013" x2="101.54496967792366" y1="184.9874750549273" y2="189.98673829345242" /><path d="M 101.47630435890484 185.9873277026323 a86.0,86.0 0 0,1 -42.54439059252881,-10.42667462771756" fill="none" id="id7" stroke="none" /><text fill="#e1ed5e" style="font-size:6.75px; font-family:Arial;" text-anchor="middle"><textPath startOffset="22.145653131862474" xlink:href="#id7">July</textPath></text><line stroke="#e1ed5e" stroke-width="0.3" x1="58.13341422392154" x2="55.67067388415222" y1="173.97424548756322" y2="178.32567169271397" /><path d="M 57.64086615596768 174.84453072859336 a86.0,86.0 0 0,1 -31.369924170532247,-30.572349798747897" fill="none" id="id8" stroke="none" /><text fill="#e1ed5e" style="font-size:6.75px; font-family:Arial;" text-anchor="middle"><textPath startOffset="22.145653131862474" xlink:href="#id8">August</textPath></text><line stroke="#e1ed5e" stroke-width="0.3" x1="26.387840678322732" x2="22.057713659400548" y1="142.50000000000003" y2="145.00000000000006" /><path d="M 25.521815274538298 143.00000000000003 a86.0,86.0 0 0,1 -11.493303480769221,-40.785679425670985" fill="none" id="id9" stroke="none" /><text fill="#e1ed5e" style="font-size:6.75px; font-family:Arial;" text-anchor="middle"><textPath startOffset="21.40746469413373" xlink:href="#id9">September</textPath></text><line stroke="#e1ed5e" stroke-width="0.3" x1="15.003131293944662" x2="10.003315487706104" y1="100.72959589197737" y2="100.7725132973878" /><path d="M 14.003168132696942 100.73817937305945 a86.0,86.0 0 0,1 10.791469493833604,-42.45332614584628" fill="none" id="id10" stroke="none" /><text fill="#e1ed5e" style="font-size:6.75px; font-family:Arial;" text-anchor="middle"><textPath startOffset="22.145653131862435" xlink:href="#id10">October</textPath></text><line stroke="#e1ed5e" stroke-width="0.3" x1="26.387840678322718" x2="22.05771365940052" y1="57.49999999999999" y2="54.99999999999999" /><path d="M 25.521815274538284 56.99999999999999 a86.0,86.0 0 0,1 29.574782752854787,-30.34633250058573" fill="none" id="id11" stroke="none" /><text fill="#e1ed5e" style="font-size:6.75px; font-family:Arial;" text-anchor="middle"><textPath startOffset="21.40746469413373" xlink:href="#id11">November</textPath></text><line stroke="#e1ed5e" stroke-width="0.3" x1="56.869717070023135" x2="54.33264160355391" y1="26.7553504044142" y2="22.446841604673864" /><path d="M 56.362301976729285 25.89364864446614 a86.0,86.0 0 0,1 42.16139366436587,-11.88097634709845" fill="none" id="id12" stroke="none" /><text fill="#e1ed5e" style="font-size:6.75px; font-family:Arial;" text-anchor="middle"><textPath startOffset="22.145653131862474" xlink:href="#id12">December</textPath></text><path d="M 89.65649057296885 81.72400993836675 l -22.51625233763566 -39.78406041497355 a66.71381719386764,66.71381719386764 0 0,0 1.0015199333646716,-0.5555262244294137 l 21.829988216114884 40.16471955483611" fill="#b3ff20" stroke="none" /><path d="M 90.61103034731259 81.2157712731953 l -20.048083055595715 -40.10959578961862 a65.84088880263923,65.84088880263923 0 0,0 1.015328429438646,-0.49664801359487637 l 19.356594376895018 40.44783755331071" fill="#c8ff1d" stroke="none" /><path d="M 90.93487009805054 81.0573650232925 l -20.354057729195688 -42.53215232757681 a68.15158160294973,68.15158160294973 0 0,0 1.0596314552794763,-0.4959610249995447 l 19.620937560044688 42.8752895841469" fill="#92ff23" stroke="none" /><path d="M 91.92203290615298 80.6158196554323 l -15.425891634694915 -37.01652432459722 a61.102134678827866,61.102134678827866 0 0,0 0.9716564422731152,-0.3951642161711065 l 14.78818073123136 37.275875797347624" fill="#ffbc11" stroke="none" /><path d="M 92.93061703081487 80.22567764915836 l -18.47862351351487 -51.6879987332479 a75.8917911895983,75.8917911895983 0 0,0 1.2305103261535244,-0.4280353668416006 l 17.58860741531634 51.99759253265808" fill="#38ff7e" stroke="none" /><path d="M 93.27111125876988 80.10723608172694 l -16.296237691428225 -48.17693108303362 a71.8584707937124,71.8584707937124 0 0,0 1.1718996359166163,-0.3852266872102564 l 15.466815317863846 48.44957869164591" fill="#40ff2d" stroke="none" /><path d="M 94.30408787586887 79.78721728523814 l -11.227567981690191 -39.84267788607068 a62.39441102270523,62.39441102270523 0 0,0 1.0334255538772972,-0.2816647301485665 l 10.541961026878216 40.029543110363385" fill="#ffde14" stroke="none" /><path d="M 95.35216902796891 79.52079915486377 l -7.442031548055763 -32.79096414770707 a54.62485930525908,54.62485930525908 0 0,0 0.9162346873431011,-0.19968908564360754 l 6.878034444093544 32.9138846914844" fill="#ff0000" stroke="none" /><path d="M 95.70440661134978 79.44403061299748 l -12.886780165950631 -61.667908161007546 a84.0,84.0 0 0,0 1.4140140578760931,-0.28284241334853544 l 11.826269622543562 61.88003997101895" fill="#4dd2ff" stroke="none" /><path d="M 97.84075906011542 79.11130261209362 l -5.3498724579628085 -51.75516301772867 a73.03093343683292,73.03093343683292 0 0,0 1.2481349474704382,-0.11819967720646345 l 4.4606379471073545 51.83937445044032" fill="#30ff38" stroke="none" /><path d="M 98.1996594967304 79.07731436759882 l -5.316332486328756 -61.783842071413915 a83.01214826314768,83.01214826314768 0 0,0 1.4208161855281847,-0.10998015862944988 l 4.254947306025354 61.865999997038415" fill="#4ae5ff" stroke="none" /></svg>