<?xml version="1.0" encoding="utf-8" ?>
<svg baseProfile="full" height="200mm" version="1.1" viewBox="0,0,200,200" width="200mm" xmlns="http://www.w3.org/2000/svg" xmlns:ev="http://www.w3.org/2001/xml-events" xmlns:xlink="http://www.w3.org/1999/xlink"><defs /><rect fill="none" height="200" width="200" x="0" y="0" /><text alignment-baseline="middle" fill="#FFFFFF" style="dominant-baseline: central; font-size:9.0px; font-family:Arial;" text-anchor="middle" x="100.0" y="100.0">2022</text><line stroke="#FFFFFF" stroke-width="0.3" x1="100.0" x2="100.0" y1="15.0" y2="10.0" /><path d="M 100.0 14.0 a86.0,86.0 0 0,1 42.46469731375804,11.215312516191453" fill="none" id="id25" stroke="none" /><text fill="#FFFFFF" style="font-size:6.75px; font-family:Arial;" text-anchor="middle"><textPath startOffset="22.20632615414155" xlink:href="#id25">January</textPath></text><path d="M 100.0 79.0 l 0.0 -34.71125772767416 a55.71125772767416,55.71125772767416 0 0,0 0.9589777211559526,0.008254224006060948 l -0.5974972418834242 34.70611488027666" fill="#4dd2ff" stroke="none" /><path d="M 102.16513564639614 79.11191278185805 l 1.0852673533302029 -10.470087252545198 a31.526183178346926,31.526183178346926 0 0,0 0.5392978432816101,0.06059639641453129 l -1.2653319001215384 10.449854902660066" fill="#4dd2ff" stroke="none" /><path d="M 105.01212808612495 79.60689891045804 l 5.135810399019615 -20.896333622012868 a42.51820873811627,42.51820873811627 0 0,0 0.7092262185712775,0.18079755469430692 l -5.494745506275918 20.804833071149694" fill="#4dd2ff" stroke="none" /><path d="M 105.36241919743992 79.69619591428918 l 5.541547232348434 -20.982039112315434 a42.701490986544755,42.701490986544755 0 0,0 0.7090523828715639,0.19381080084773447 l -5.901897504443709 20.883541770641404" fill="#4dd2ff" stroke="none" /><line stroke="#FFFFFF" stroke-width="0.3" x1="143.23703022742887" x2="145.7803849466894" y1="26.81831364943548" y2="22.513508569990506" /><path d="M 143.74570117128098 25.957352633546492 a86.0,86.0 0 0,1 28.547481713284135,27.462654790039103" fill="none" id="id26" stroke="none" /><text fill="#FFFFFF" style="font-size:6.75px; font-family:Arial;" text-anchor="middle"><textPath startOffset="19.985693538727396" xlink:href="#id26">February</textPath></text><path d="M 117.2510076193507 88.02491185347247 l 14.311014347218121 -9.93424048354849 a38.4210868097044,38.4210868097044 0 0,0 0.3724568227082644,0.546534428566391 l -14.479895635595119 9.68642803171169" fill="#4dd2ff" stroke="none" /><line stroke="#FFFFFF" stroke-width="0.3" x1="172.23445277983987" x2="176.4835382374775" y1="55.19839476539836" y2="52.563006222186495" /><path d="M 173.08426987136738 54.67131705675599 a86.0,86.0 0 0,1 12.851231095245387,41.99856678651699" fill="none" id="id27" stroke="none" /><text fill="#FFFFFF" style="font-size:6.75px; font-family:Arial;" text-anchor="middle"><textPath startOffset="22.20632615414155" xlink:href="#id27">March</textPath></text><path d="M 118.3937258080291 89.86733742301442 l 14.50743130643139 -7.991796105968892 a37.56304223596031,37.56304223596031 0 0,0 0.3071081009823387,0.5690246694830959 l -14.642847506632192 7.740890453153337" fill="#4dd2ff" stroke="none" /><path d="M 118.56541770881063 90.18545643968196 l 14.988133991112125 -7.923424953366017 a37.95360797963531,37.95360797963531 0 0,0 0.30035864875020585,0.580197307147637 l -15.122302073022448 7.664254923958035" fill="#4dd2ff" stroke="none" /><path d="M 119.34039704204932 91.81776055985345 l 6.960895148180047 -2.9449090779435436 a28.558210816146293,28.558210816146293 0 0,0 0.18763875018858178,0.45438211695380976 l -7.010555585254826 2.8246523905364307" fill="#4dd2ff" stroke="none" /><path d="M 119.47837535516314 92.15188598940014 l 15.406930436388185 -6.2076710410092995 a37.61049924671411,37.61049924671411 0 0,0 0.23677859964690728,0.6025757094249198 l -15.511502585916794 5.941546326688595" fill="#4dd2ff" stroke="none" /><path d="M 119.61058180528143 92.48833698450437 l 15.447319165804961 -5.916961425136504 a37.541768403553434,37.541768403553434 0 0,0 0.22595748884494377,0.6054537311088939 l -15.54688124315153 5.650184556998277" fill="#4dd2ff" stroke="none" /><path d="M 120.18372546131832 94.20196356495316 l 13.04565537570741 -3.7475333942872546 a34.573250558470576,34.573250558470576 0 0,0 0.1593880018373251,0.5734034463609387 l -13.1082301481111 3.522418644507364" fill="#4dd2ff" stroke="none" /><path d="M 120.28053869075195 94.5502522615342 l 5.789472705370772 -1.555736080984444 a26.994856875681855,26.994856875681855 0 0,0 0.11672533452133775,0.4497903291713463 l -5.815394371762412 1.4558493262642471" fill="#4dd2ff" stroke="none" /><path d="M 120.37134235888165 94.90015583598534 l 16.16827798263881 -4.047632044040406 a37.66722946646579,37.66722946646579 0 0,0 0.15204502684787874,0.6303247960471461 l -16.235555809747506 3.768722016333854" fill="#4dd2ff" stroke="none" /><path d="M 120.83666639777658 97.38593545837742 l 15.312768604236453 -1.9210637958227945 a36.43280170398462,36.43280170398462 0 0,0 0.0727088504049638,0.6229250277230788 l -15.343567807645005 1.657195029774863" fill="#4dd2ff" stroke="none" /><line stroke="#FFFFFF" stroke-width="0.3" x1="184.98032266829074" x2="189.97916517819016" y1="98.17113171792111" y2="98.06355123074" /><path d="M 185.9800911702706 98.14961562048488 a86.0,86.0 0 0,1 -9.607161424134198,41.387399972396054" fill="none" id="id28" stroke="none" /><text fill="#FFFFFF" style="font-size:6.75px; font-family:Arial;" text-anchor="middle"><textPath startOffset="21.466115282336823" xlink:href="#id28">April</textPath></text><path d="M 120.41448212921028 104.9243191809786 l 21.367384212076697 5.154175318134262 a42.98023273936309,42.98023273936309 0 0,0 -0.17967514968957532,0.717712908472154 l -21.27549774809206 -5.521216066003812" fill="#4dd2ff" stroke="none" /><path d="M 120.32669344350535 105.2749913415812 l 21.49250307318117 5.577531236698129 a43.20442620395865,43.20442620395865 0 0,0 -0.19300430155919468,0.7182408054642807 l -21.3933106952802 -5.946662975337958" fill="#4dd2ff" stroke="none" /><line stroke="#FFFFFF" stroke-width="0.3" x1="174.80103733775053" x2="179.2010983576182" y1="140.37084112569926" y2="142.7455964860345" /><path d="M 175.68104954172406 140.8457921977663 a86.0,86.0 0 0,1 -30.038265399797805,32.042727171017184" fill="none" id="id29" stroke="none" /><text fill="#FFFFFF" style="font-size:6.75px; font-family:Arial;" text-anchor="middle"><textPath startOffset="22.206326154141568" xlink:href="#id29">May</textPath></text><line stroke="#FFFFFF" stroke-width="0.3" x1="143.8653032363475" x2="146.44561519142675" y1="172.8068346515853" y2="177.08958963109032" /><path d="M 144.38136562736335 173.6633856474863 a86.0,86.0 0 0,1 -40.68145358897372,12.25698825130547" fill="none" id="id30" stroke="none" /><text fill="#FFFFFF" style="font-size:6.75px; font-family:Arial;" text-anchor="middle"><textPath startOffset="21.466115282336833" xlink:href="#id30">June</textPath></text><path d="M 103.41894727170886 120.7198165907248 l 1.1196967946829783 6.785688803986134 a27.877448179126187,27.877448179126187 0 0,0 -0.47413450969980575,0.0740500593464287 l -1.0027264213746554 -6.803957170679669" fill="#4dd2ff" stroke="none" /><line stroke="#FFFFFF" stroke-width="0.3" x1="102.19456741930631" x2="102.32365962044197" y1="184.97166512339345" y2="189.96999836594603" /><path d="M 102.22038585953345 185.97133177190398 a86.0,86.0 0 0,1 -42.740103519485714,-10.115201625700543" fill="none" id="id31" stroke="none" /><text fill="#FFFFFF" style="font-size:6.75px; font-family:Arial;" text-anchor="middle"><textPath startOffset="22.20632615414155" xlink:href="#id31">July</textPath></text><line stroke="#FFFFFF" stroke-width="0.3" x1="58.666819895761336" x2="56.23545636021788" y1="174.27360380694188" y2="178.64263932499728" /><path d="M 58.180547188652646 175.14741091055294 a86.0,86.0 0 0,1 -31.652253787137756,-30.449443065178592" fill="none" id="id32" stroke="none" /><text fill="#FFFFFF" style="font-size:6.75px; font-family:Arial;" text-anchor="middle"><textPath startOffset="22.20632615414155" xlink:href="#id32">August</textPath></text><line stroke="#FFFFFF" stroke-width="0.3" x1="26.63291911575756" x2="22.317208475507996" y1="142.92168965132927" y2="145.44649492493687" /><path d="M 25.769776987707644 143.4266507060508 a86.0,86.0 0 0,1 -11.730757126820373,-40.83630448921669" fill="none" id="id33" stroke="none" /><text fill="#FFFFFF" style="font-size:6.75px; font-family:Arial;" text-anchor="middle"><textPath startOffset="21.46611528233685" xlink:href="#id33">September</textPath></text><line stroke="#FFFFFF" stroke-width="0.3" x1="15.007084014347285" x2="10.007500721073583" y1="101.09737516637583" y2="101.16192664675087" /><path d="M 14.007167355692545 101.11028546245083 a86.0,86.0 0 0,1 10.666146001902534,-42.60595125391555" fill="none" id="id34" stroke="none" /><text fill="#FFFFFF" style="font-size:6.75px; font-family:Arial;" text-anchor="middle"><textPath startOffset="22.20632615414155" xlink:href="#id34">October</textPath></text><path d="M 81.26839172434947 90.50648371742162 l -56.19482482695157 -28.480548847735136 a84.0,84.0 0 0,0 0.6647622673595439,-1.284109110958658 l 55.69625312643191 29.44363068095413" fill="#4dd2ff" stroke="none" /><line stroke="#FFFFFF" stroke-width="0.3" x1="26.266209847984243" x2="21.928928074336255" y1="57.711370442889674" y2="55.22380399835377" /><path d="M 25.398753493254645 57.213857153982495 a86.0,86.0 0 0,1 29.58750427330803,-30.492523968695096" fill="none" id="id35" stroke="none" /><text fill="#FFFFFF" style="font-size:6.75px; font-family:Arial;" text-anchor="middle"><textPath startOffset="21.46611528233685" xlink:href="#id35">November</textPath></text><line stroke="#FFFFFF" stroke-width="0.3" x1="56.76296977257108" x2="54.21961505331056" y1="26.818313649435495" y2="22.513508569990535" /><path d="M 56.25429882871898 25.957352633546506 a86.0,86.0 0 0,1 42.26535254187918,-11.944610805530505" fill="none" id="id36" stroke="none" /><text fill="#FFFFFF" style="font-size:6.75px; font-family:Arial;" text-anchor="middle"><textPath startOffset="22.20632615414155" xlink:href="#id36">December</textPath></text></svg>